{
.appVersion = "3148";
.formatVersion = 3;
axes = (
{
name = Weight;
tag = wght;
}
);
customParameters = (
{
name = fsType;
value = (
);
},
{
name = "Use Typo Metrics";
value = 1;
},
{
name = "Write lastChange";
value = 0;
},
{
name = "Use Line Breaks";
value = 1;
},
{
name = glyphOrder;
value = (
A,
AE,
B,
C,
D,
E,
Eth,
F,
G,
H,
I,
J,
I_J.loclNLD,
K,
L,
Lslash,
M,
N,
Eng,
O,
Oslash,
OE,
P,
Thorn,
Q,
R,
S,
Germandbls,
Schwa,
T,
U,
Uhorn,
V,
W,
X,
Y,
Z,
a,
ae,
b,
c,
d,
eth,
e,
f,
g,
h,
i,
idotless,
i_j.loclNLD,
j,
jdotless,
k,
l,
lslash,
m,
n,
eng,
o,
oslash,
oe,
p,
thorn,
q,
r,
s,
germandbls,
schwa,
t,
u,
uhorn,
v,
w,
x,
y,
z
);
},
{
name = "Variable Font Origin";
value = "14AB8F11-4722-4116-93B5-2CBF67C8CE3C";
},
{
name = "Axis Mappings";
value = {
wght = {
100 = 30;
200 = 47;
300 = 59;
400 = 82;
500 = 105;
600 = 111;
700 = 137;
800 = 170;
900 = 200;
};
};
}
);
date = "2016-12-06 21:35:03 +0000";
familyName = Rokkitt;
featurePrefixes = (
{
automatic = 1;
code = "languagesystem DFLT dflt;

languagesystem latn dflt;
languagesystem latn AZE;
languagesystem latn CRT;
languagesystem latn KAZ;
languagesystem latn TAT;
languagesystem latn TRK;
languagesystem latn ROM;
languagesystem latn MOL;
languagesystem latn NLD;
languagesystem latn CAT;
";
name = Languagesystems;
}
);
features = (
{
automatic = 1;
code = "feature locl;
feature sups;
feature frac;
feature ordn;
";
tag = aalt;
},
{
automatic = 1;
code = "lookup ccmp_Other_1 {
	@CombiningTopAccents = [acutecomb brevecomb breveinvertedcomb caroncomb circumflexcomb commaturnedabovecomb dblgravecomb dieresiscomb dotaccentcomb gravecomb hookabovecomb hungarumlautcomb macroncomb ringcomb tildecomb];
	@CombiningNonTopAccents = [brevebelowcomb cedillacomb dieresisbelowcomb dotbelowcomb macronbelowcomb ogonekcomb horncomb strokeshortcomb];
	sub [i j]' @CombiningTopAccents by [idotless jdotless];
	sub [i j]' @CombiningNonTopAccents @CombiningTopAccents by [idotless jdotless];
} ccmp_Other_1;

lookup ccmp_Other_2 {

glyphs = (
{
color = 3;
glyphname = A;
kernLeft = A;
kernRight = A;
layers = (
{
anchors = (
{
name = bottom;
pos = (274,0);
},
{
name = ogonek;
pos = (523,0);
},
{
name = top;
pos = (364,583);
}
);
background = {
anchors = (
{
name = bottom;
pos = (303,0);
},
{
name = ogonek;
pos = (554,0);
},
{
name = top;
pos = (303,583);
}
);
shapes = (
{
closed = 1;
nodes = (
(187,0,l),
(187,22,l),
(107,22,l),
(189,249,l),
(183,243,l),
(431,243,l),
(416,249,l),
(498,22,l),
(418,22,l),
(418,0,l),
(604,0,l),
(604,22,l),
(529,22,l),
(331,561,l),
(411,561,l),
(411,583,l),
(195,583,l),
(195,561,l),
(275,561,l),
(77,22,l),
(2,22,l),
(2,0,l)
);
},
{
closed = 1;
nodes = (
(301,558,l),
(304,558,l),
(414,256,l),
(416,264,l),
(186,264,l),
(191,256,l)
);
}
);
};
layerId = "98C086B7-81AA-4491-8494-0C6A76849168";
shapes = (
{
closed = 1;
nodes = (
(158,0,l),
(161,22,l),
(81,22,l),
(199,249,l),
(190,243,l),
(438,243,l),
(426,249,l),
(472,22,l),
(392,22,l),
(389,0,l),
(573,0,l),
(576,22,l),
(501,22,l),
(389,561,l),
(469,561,l),
(472,583,l),
(256,583,l),
(253,561,l),
(333,561,l),
(49,22,l),
(-26,22,l),
(-29,0,l)
);
},
{
closed = 1;
nodes = (
(360,558,l),
(363,558,l),
(425,256,l),
(427,264,l),
(197,264,l),
(202,256,l)
);
}
);
width = 606;
},
{
anchors = (
{
name = bottom;
pos = (336,0);
},
{
name = ogonek;
pos = (622,0);
},
{
name = top;
pos = (422,583);
}
);
background = {
anchors = (
{
name = bottom;
pos = (375,0);
},
{
name = ogonek;
pos = (668,0);
},
{
name = top;
pos = (376,583);
}
);
shapes = (
{
closed = 1;
nodes = (
(317,0,l),
(317,120,l),
(262,120,l),
(302,243,l),
(243,195,l),
(507,195,l),
(448,243,l),
(488,120,l),
(433,120,l),
(433,0,l),
(737,0,l),
(737,120,l),
(687,120,l),
(563,463,l),
(618,463,l),
(618,583,l),
(135,583,l),
(135,463,l),
(190,463,l),
(66,120,l),
(16,120,l),
(16,0,l)
);
},
{
closed = 1;
nodes = (
(373,463,l),
(378,463,l),
(441,267,l),
(472,315,l),
(278,315,l),
(309,267,l)
);
}
);
};
layerId = "EFCDB4D9-E20B-4A8D-9DB5-150AD166B0AE";
shapes = (
{
closed = 1;
nodes = (
(278,0,l),
(297,120,l),
(242,120,l),
(301,243,l),
(235,195,l),
(499,195,l),
(447,243,l),
(468,120,l),
(413,120,l),
(394,0,l),
(691,0,l),
(710,120,l),
(660,120,l),
(590,463,l),
(645,463,l),
(664,583,l),
(181,583,l),
(162,463,l),
(217,463,l),
(39,120,l),
(-11,120,l),
(-30,0,l)
);
},
{
closed = 1;
nodes = (
(407,463,l),
(412,463,l),
(444,267,l),
(483,315,l),
(289,315,l),
(312,267,l)
);
}
);
width = 725;
},
{
anchors = (
{
name = bottom;
pos = (305,0);
},
{
name = ogonek;
pos = (573,0);
},
{
name = top;
pos = (393,583);
}
);
background = {
anchors = (
{
name = bottom;
pos = (305,0);
},
{
name = ogonek;
pos = (573,0);
},
{
name = top;
pos = (393,583);
}
);
shapes = (
{
closed = 1;
nodes = (
(218,0,l),
(229,83,l),
(162,83,l),
(250,245,l),
(213,213,l),
(469,213,l),
(437,245,l),
(470,83,l),
(403,83,l),
(392,0,l),
(632,0,l),
(643,83,l),
(581,83,l),
(490,500,l),
(557,500,l),
(568,583,l),
(219,583,l),
(208,500,l),
(275,500,l),
(44,83,l),
(-18,83,l),
(-29,0,l)
);
},
{
closed = 1;
nodes = (
(384,499,l),
(388,499,l),
(435,263,l),
(455,296,l),
(243,296,l),
(257,263,l)
);
}
);
};
guides = (
{
angle = 101.1509;
pos = (429,291);
},
{
angle = 61.9132;
pos = (273,291);
}
);
layerId = "14AB8F11-4722-4116-93B5-2CBF67C8CE3C";
shapes = (
{
closed = 1;
nodes = (
(216,0,l),
(229,83,l),
(162,83,l),
(250,248,l),
(213,216,l),
(469,216,l),
(437,245,l),
(470,83,l),
(403,83,l),
(390,0,l),
(630,0,l),
(643,83,l),
(581,83,l),
(490,500,l),
(557,500,l),
(570,583,l),
(221,583,l),
(208,500,l),
(275,500,l),
(44,83,l),
(-18,83,l),
(-31,0,l)
);
},
{
closed = 1;
nodes = (
(384,499,l),
(388,499,l),
(435,263,l),
(455,294,l),
(243,294,l),
(257,263,l)
);
}
);
width = 662;
}
);
metricRight = "=|";
unicode = 65;
userData = {
com.typemytype.robofont.layerData = {
b = {
anchors = (
);
components = (
);
contours = (
);
lib = {
};
name = A;
unicodes = (
);
width = 1383;
};
};
org.robofab.postScriptHintData = {
};
};
},
{
color = 3;
glyphname = AE;
kernLeft = AE;
kernRight = AE;
layers = (
{
anchors = (
{
name = bottom;
pos = (405,0);
},
{
name = top;
pos = (583,583);
}
);
background = {
anchors = (
{
name = bottom;
pos = (405,0);
},
{
name = top;
pos = (583,583);
}
);
shapes = (
{
closed = 1;
nodes = (
(145,0,l),
(148,22,l),
(68,22,l),
(227,249,l),
(218,243,l),
(452,243,l),
(440,249,l),
(436,22,l),
(351,22,l),
(348,0,l),
(830,0,l),
(833,165,l),
(807,165,l),
(804,22,l),
(464,22,l),
(469,286,l),
(685,286,l),
(683,196,l),
(708,196,l),
(712,393,l),
(686,393,l),
(685,308,l),
(470,308,l),
(474,561,l),
(799,561,l),
(797,423,l),
(823,423,l),
(825,583,l),
(340,583,l),
(337,561,l),
(417,561,l),
(37,22,l),
(-38,22,l),
(-41,0,l)
);
},
{
closed = 1;
nodes = (
(442,558,l),
(445,558,l),
(440,256,l),
(446,264,l),
(229,264,l),
(231,256,l)
);
}
);
};
layerId = "98C086B7-81AA-4491-8494-0C6A76849168";
shapes = (
{
closed = 1;
nodes = (
(147,0,l),
(150,22,l),
(70,22,l),
(227,249,l),
(218,243,l),
(452,243,l),
(442,249,l),
(438,22,l),
(353,22,l),
(350,0,l),
(830,0,l),
(833,165,l),
(807,165,l),
(804,22,l),
(464,22,l),
(469,286,l),
(685,286,l),
(683,196,l),
(708,196,l),
(712,393,l),
(686,393,l),
(685,308,l),
(469,308,l),
(473,561,l),
(799,561,l),
(797,423,l),
(823,423,l),
(825,583,l),
(340,583,l),
(337,561,l),
(417,561,l),
(37,22,l),
(-38,22,l),
(-41,0,l)
);
},
{
closed = 1;
nodes = (
(444,558,l),
(447,558,l),
(442,256,l),
(446,264,l),
(229,264,l),
(233,256,l)
);
}
);
width = 901;
},
{
anchors = (
{
name = bottom;
pos = (458,0);
},
{
name = top;
pos = (604,583);
}
);
background = {
anchors = (
{
name = bottom;
pos = (458,0);
},
{
name = top;
pos = (604,583);
}
);
shapes = (
{
closed = 1;
nodes = (
(274,0,l),
(293,120,l),
(238,120,l),
(318,243,l),
(244,195,l),
(508,195,l),
(463,223,l),
(462,120,l),
(412,120,l),
(393,0,l),
(978,0,l),
(982,215,l),
(857,215,l),
(855,120,l),
(657,120,l),
(659,235,l),
(707,235,l),
(706,185,l),
(806,185,l),
(810,400,l),
(710,400,l),
(709,355,l),
(661,355,l),
(663,463,l),
(841,463,l),
(840,373,l),
(965,373,l),
(968,583,l),
(239,583,l),
(220,463,l),
(275,463,l),
(37,120,l),
(-13,120,l),
(-32,0,l)
);
},
{
closed = 1;
nodes = (
(463,463,l),
(468,463,l),
(465,287,l),
(513,315,l),
(319,315,l),
(334,267,l)
);
}
);
};
layerId = "EFCDB4D9-E20B-4A8D-9DB5-150AD166B0AE";
shapes = (
{
closed = 1;
nodes = (
(277,0,l),
(296,120,l),
(241,120,l),
(321,243,l),
(247,195,l),
(511,195,l),
(466,223,l),
(465,120,l),
(415,120,l),
(396,0,l),
(978,0,l),
(982,215,l),
(857,215,l),
(855,120,l),
(657,120,l),
(659,235,l),
(707,235,l),
(706,185,l),
(806,185,l),
(810,400,l),
(710,400,l),
(709,355,l),
(661,355,l),
(663,463,l),
(841,463,l),
(840,373,l),
(965,373,l),
(968,583,l),
(239,583,l),
(220,463,l),
(275,463,l),
(37,120,l),
(-13,120,l),
(-32,0,l)
);
},
{
closed = 1;
nodes = (
(466,463,l),
(471,463,l),
(468,287,l),
(516,315,l),
(322,315,l),
(337,267,l)
);
}
);
width = 1020;
},
{
anchors = (
{
name = bottom;
pos = (432,0);
},
{
name = top;
pos = (594,583);
}
);
background = {
anchors = (
{
name = bottom;
pos = (432,0);
},
{
name = top;
pos = (594,583);
}
);
shapes = (
{
closed = 1;
nodes = (
(212,0,l),
(223,83,l),
(156,83,l),
(274,245,l),
(233,213,l),
(482,213,l),
(454,233,l),
(452,83,l),
(384,83,l),
(373,0,l),
(904,0,l),
(908,196,l),
(832,196,l),
(830,83,l),
(561,83,l),
(564,254,l),
(696,254,l),
(695,189,l),
(757,189,l),
(761,397,l),
(698,397,l),
(697,337,l),
(565,337,l),
(568,500,l),
(820,500,l),
(819,392,l),
(894,392,l),
(897,583,l),
(290,583,l),
(279,500,l),
(346,500,l),
(37,83,l),
(-25,83,l),
(-36,0,l)
);
},
{
closed = 1;
nodes = (
(455,499,l),
(459,499,l),
(455,275,l),
(481,296,l),
(276,296,l),
(285,263,l)
);
}
);
};
guides = (
{
angle = 89.0383;
pos = (765,397);
}
);
layerId = "14AB8F11-4722-4116-93B5-2CBF67C8CE3C";
shapes = (
{
closed = 1;
nodes = (
(210,0,l),
(223,83,l),
(156,83,l),
(274,245,l),
(233,213,l),
(482,213,l),
(455,233,l),
(452,83,l),
(384,83,l),
(371,0,l),
(904,0,l),
(908,196,l),
(832,196,l),
(830,83,l),
(561,83,l),
(564,254,l),
(693,254,l),
(692,189,l),
(762,189,l),
(765,397,l),
(695,397,l),
(694,337,l),
(566,337,l),
(568,500,l),
(821,500,l),
(819,392,l),
(895,392,l),
(897,583,l),
(292,583,l),
(279,500,l),
(346,500,l),
(37,83,l),
(-25,83,l),
(-38,0,l)
);
},
{
closed = 1;
nodes = (
(455,499,l),
(459,499,l),
(455,275,l),
(481,296,l),
(276,296,l),
(285,263,l)
);
}
);
width = 960.5;
}
);
unicode = 198;
userData = {
com.typemytype.robofont.layerData = {
b = {
anchors = (
);
components = (
);
contours = (
);
lib = {
};
name = AE;
unicodes = (
);
width = 2243;
};
};
org.robofab.postScriptHintData = {
};
};
},
{
color = 3;
glyphname = B;
kernLeft = H;
kernRight = B;
layers = (
{
anchors = (
{
name = top;
pos = (350,583);
}
);
background = {
anchors = (
{
name = top;
pos = (289,583);
}
);
shapes = (
{
closed = 1;
nodes = (
(401,0,ls),
(510,0,o),
(570,58,o),
(570,159,cs),
(570,234,o),
(522,309,o),
(417,311,c),
(423,306,l),
(479,309,o),
(537,359,o),
(537,441,cs),
(537,542,o),
(475,583,o),
(368,583,cs),
(40,583,l),
(40,561,l),
(125,561,l),
(125,22,l),
(40,22,l),
(40,0,l)
);
},
{
closed = 1;
nodes = (
(155,296,l),
(393,296,ls),
(497,296,o),
(538,235,o),
(538,159,cs),
(538,76,o),
(497,22,o),
(393,22,cs),
(155,22,l)
);
},
{
closed = 1;
nodes = (
(155,561,l),
(363,561,ls),
(463,561,o),
(505,524,o),
(505,440,cs),
(505,369,o),
(463,318,o),
(384,318,cs),
(155,318,l)
);
}
);
};
layerId = "98C086B7-81AA-4491-8494-0C6A76849168";
shapes = (
{
closed = 1;
nodes = (
(375,0,ls),
(484,0,o),
(548,55,o),
(563,149,cs),
(576,232,o),
(540,307,o),
(435,311,c),
(440,306,l),
(497,309,o),
(563,356,o),
(574,431,cs),
(591,533,o),
(536,583,o),
(419,583,cs),
(101,583,l),
(98,561,l),
(183,561,l),
(97,22,l),
(12,22,l),
(9,0,l)
);
},
{
closed = 1;
nodes = (
(171,296,l),
(399,296,ls),
(518,296,o),
(544,235,o),
(531,149,cs),
(519,73,o),
(474,22,o),
(370,22,cs),
(127,22,l)
);
},
{
closed = 1;
nodes = (
(213,561,l),
(411,561,ls),
(524,561,o),
(557,524,o),
(542,430,cs),
(532,366,o),
(482,318,o),
(403,318,cs),
(174,318,l)
);
}
);
width = 630;
},
{
anchors = (
{
name = top;
pos = (388,583);
}
);
background = {
shapes = (
{
closed = 1;
nodes = (
(397,0,ls),
(545,0,o),
(625,52,o),
(641,151,cs),
(657,252,o),
(609,307,o),
(510,313,c),
(513,305,l),
(590,317,o),
(646,360,o),
(657,427,cs),
(673,531,o),
(613,583,o),
(482,583,cs),
(90,583,l),
(71,463,l),
(121,463,l),
(67,120,l),
(17,120,l),
(-2,0,l)
);
},
{
closed = 1;
nodes = (
(287,245,l),
(374,245,ls),
(424,245,o),
(446,224,o),
(439,179,cs),
(433,140,o),
(408,120,o),
(362,120,cs),
(267,120,l)
);
},
{
closed = 1;
nodes = (
(321,463,l),
(398,463,ls),
(436,463,o),
(454,447,o),
(448,414,cs),
(443,381,o),
(424,363,o),
(392,363,cs),
(305,363,l)
);
}
);
};
layerId = "EFCDB4D9-E20B-4A8D-9DB5-150AD166B0AE";
shapes = (
{
closed = 1;
nodes = (
(397,0,ls),
(545,0,o),
(625,52,o),
(641,151,cs),
(657,252,o),
(609,307,o),
(510,313,c),
(513,305,l),
(595,318,o),
(646,360,o),
(657,427,cs),
(673,531,o),
(603,583,o),
(482,583,cs),
(90,583,l),
(71,463,l),
(121,463,l),
(67,120,l),
(17,120,l),
(-2,0,l)
);
},
{
closed = 1;
nodes = (
(287,245,l),
(374,245,ls),
(424,245,o),
(446,223,o),
(439,179,cs),
(433,140,o),
(408,120,o),
(362,120,cs),
(267,120,l)
);
},
{
closed = 1;
nodes = (
(321,463,l),
(398,463,ls),
(433,463,o),
(454,447,o),
(448,410,cs),
(443,381,o),
(426,363,o),
(392,363,cs),
(305,363,l)
);
}
);
width = 671;
},
{
anchors = (
{
name = top;
pos = (368,583);
}
);
background = {
anchors = (
{
name = top;
pos = (368,583);
}
);
shapes = (
{
closed = 1;
nodes = (
(385,0,ls),
(514,0,o),
(586,53,o),
(601,150,cs),
(616,245,o),
(574,307,o),
(472,312,c),
(476,305,l),
(545,315,o),
(604,359,o),
(615,429,cs),
(631,532,o),
(569,583,o),
(450,583,cs),
(95,583,l),
(84,500,l),
(151,500,l),
(81,83,l),
(14,83,l),
(3,0,l)
);
},
{
closed = 1;
nodes = (
(228,264,l),
(386,264,ls),
(470,264,o),
(494,228,o),
(484,168,cs),
(475,115,o),
(440,83,o),
(365,83,cs),
(196,83,l)
);
},
{
closed = 1;
nodes = (
(266,500,l),
(404,500,ls),
(478,500,o),
(505,476,o),
(494,418,cs),
(487,375,o),
(453,346,o),
(397,346,cs),
(239,346,l)
);
}
);
};
layerId = "14AB8F11-4722-4116-93B5-2CBF67C8CE3C";
shapes = (
{
closed = 1;
nodes = (
(385,0,ls),
(514,0,o),
(586,53,o),
(601,150,cs),
(616,245,o),
(574,307,o),
(472,312,c),
(476,305,l),
(545,315,o),
(604,359,o),
(615,429,cs),
(631,532,o),
(569,583,o),
(450,583,cs),
(96,583,l),
(83,500,l),
(150,500,l),
(84,83,l),
(17,83,l),
(4,0,l)
);
},
{
closed = 1;
nodes = (
(228,264,l),
(386,264,ls),
(470,264,o),
(494,228,o),
(484,168,cs),
(475,115,o),
(440,83,o),
(365,83,cs),
(199,83,l)
);
},
{
closed = 1;
nodes = (
(266,500,l),
(404,500,ls),
(478,500,o),
(505,476,o),
(494,418,cs),
(487,375,o),
(453,346,o),
(397,346,cs),
(241,346,l)
);
}
);
width = 650;
}
);
metricLeft = H;
unicode = 66;
userData = {
com.typemytype.robofont.layerData = {
b = {
anchors = (
);
components = (
);
contours = (
{
points = (
{
segmentType = line;
smooth = 0;
x = 353;
y = 1095;
},
{
segmentType = line;
smooth = 1;
x = 740;
y = 1095;
},
{
smooth = 0;
x = 917;
y = 1095;
},
{
smooth = 0;
x = 1004;
y = 983;
},
{
segmentType = curve;
smooth = 1;
x = 1004;
y = 868;
},
{
smooth = 0;
x = 1004;
y = 751;
},
{
smooth = 0;
x = 928;
y = 634;
},
{
segmentType = curve;
smooth = 1;
x = 784;
y = 634;
},
{
segmentType = line;
smooth = 0;
x = 353;
y = 634;
}
);
},
{
points = (
{
segmentType = line;
smooth = 0;
x = 353;
y = 573;
},
{
segmentType = line;
smooth = 1;
x = 793;
y = 573;
},
{
smooth = 0;
x = 979;
y = 573;
},
{
smooth = 0;
x = 1072;
y = 439;
},
{
segmentType = curve;
smooth = 1;
x = 1072;
y = 320;
},
{
smooth = 0;
x = 1072;
y = 187;
},
{
smooth = 0;
x = 985;
y = 58;
},
{
segmentType = curve;
smooth = 1;
x = 807;
y = 58;
},
{
segmentType = line;
smooth = 0;
x = 353;
y = 58;
}
);
},
{
points = (
{
segmentType = line;
smooth = 1;
x = 807;
y = 0;
},
{
smooth = 0;
x = 1031;
y = 0;
},
{
smooth = 0;
x = 1146;
y = 158;
},
{
segmentType = curve;
smooth = 1;
x = 1146;
y = 316;
},
{
smooth = 0;
x = 1146;
y = 439;
},
{
smooth = 0;
x = 1074;
y = 568;
},
{
segmentType = curve;
smooth = 0;
x = 919;
y = 611;
},
{
smooth = 0;
x = 1029;
y = 669;
},
{
smooth = 0;
x = 1079;
y = 769;
},
{
segmentType = curve;
smooth = 1;
x = 1079;
y = 870;
},
{
smooth = 0;
x = 1079;
y = 1012;
},
{
smooth = 0;
x = 964;
y = 1154;
},
{
segmentType = curve;
smooth = 1;
x = 740;
y = 1154;
},
{
segmentType = line;
smooth = 0;
x = 122;
y = 1154;
},
{
segmentType = line;
smooth = 0;
x = 122;
y = 1095;
},
{
segmentType = line;
smooth = 0;
x = 278;
y = 1095;
},
{
segmentType = line;
smooth = 0;
x = 278;
y = 58;
},
{
segmentType = line;
smooth = 0;
x = 135;
y = 58;
},
{
segmentType = line;
smooth = 0;
x = 135;
y = 0;
}
);
}
);
lib = {
};
name = B;
unicodes = (
);
width = 1354;
};
};
org.robofab.postScriptHintData = {
};
};
},
{
color = 3;
glyphname = C;
kernLeft = O;
kernRight = C;
layers = (
{
anchors = (
{
name = bottom;
pos = (328,0);
},
{
name = top;
pos = (413,583);
}
);
background = {
shapes = (
{
closed = 1;
nodes = (
(458,-10,o),
(535,29,o),
(605,123,c),
(583,139,l),
(519,49,o),
(452,15,o),
(341,15,cs),
(187,15,o),
(94,102,o),
(94,245,cs),
(94,440,o),
(215,569,o),
(398,569,cs),
(513,569,o),
(593,516,o),
(619,423,c),
(642,423,l),
(667,583,l),
(641,583,l),
(619,445,l),
(630,445,l),
(608,537,o),
(520,594,o),
(400,594,cs),
(197,594,o),
(62,455,o),
(62,245,cs),
(62,89,o),
(169,-10,o),
(339,-10,cs)
);
}
);
};
layerId = "98C086B7-81AA-4491-8494-0C6A76849168";
shapes = (
{
closed = 1;
nodes = (
(458,-10,o),
(535,29,o),
(605,123,c),
(583,139,l),
(519,49,o),
(452,15,o),
(341,15,cs),
(187,15,o),
(94,102,o),
(94,245,cs),
(94,440,o),
(215,569,o),
(396,569,cs),
(514,569,o),
(591,516,o),
(617,423,c),
(640,423,l),
(665,583,l),
(639,583,l),
(617,445,l),
(628,445,l),
(604,537,o),
(516,594,o),
(398,594,cs),
(196,594,o),
(62,455,o),
(62,245,cs),
(62,89,o),
(168,-10,o),
(339,-10,cs)
);
}
);
width = 669;
},
{
anchors = (
{
name = bottom;
pos = (332,0);
},
{
name = top;
pos = (399,583);
}
);
background = {
anchors = (
{
name = bottom;
pos = (1132,0);
},
{
name = top;
pos = (1199,583);
}
);
shapes = (
{
closed = 1;
nodes = (
(1281,-10,o),
(1400,66,o),
(1455,196,c),
(1318,256,l),
(1279,169,o),
(1227,130,o),
(1156,130,cs),
(1069,130,o),
(1032,189,o),
(1048,292,cs),
(1064,392,o),
(1130,454,o),
(1218,454,cs),
(1282,454,o),
(1323,424,o),
(1340,363,c),
(1465,363,l),
(1500,583,l),
(1370,583,l),
(1353,478,l),
(1395,448,l),
(1375,546,o),
(1307,594,o),
(1193,594,cs),
(1020,594,o),
(871,474,o),
(842,290,cs),
(813,110,o),
(918,-10,o),
(1126,-10,cs)
);
},
{
closed = 1;
nodes = (
(593,-10,o),
(720,152,o),
(720,334,cs),
(720,490,o),
(602,594,o),
(409,594,cs),
(166,594,o),
(40,432,o),
(40,250,cs),
(40,95,o),
(157,-10,o),
(349,-10,cs)
);
},
{
closed = 1;
nodes = (
(284,130,o),
(246,179,o),
(246,250,cs),
(246,349,o),
(292,454,o),
(400,454,cs),
(475,454,o),
(514,405,o),
(514,334,cs),
(514,235,o),
(468,130,o),
(358,130,cs)
);
}
);
};
layerId = "EFCDB4D9-E20B-4A8D-9DB5-150AD166B0AE";
shapes = (
{
closed = 1;
nodes = (
(507,-10,o),
(608,60,o),
(655,196,c),
(518,256,l),
(490,172,o),
(439,130,o),
(368,130,cs),
(294,130,o),
(246,178,o),
(246,254,cs),
(246,364,o),
(305,454,o),
(412,454,cs),
(476,454,o),
(523,421,o),
(540,363,c),
(665,363,l),
(700,583,l),
(570,583,l),
(553,478,l),
(595,448,l),
(576,542,o),
(490,594,o),
(371,594,cs),
(171,594,o),
(40,454,o),
(40,255,cs),
(40,100,o),
(151,-10,o),
(341,-10,cs)
);
}
);
width = 675;
},
{
anchors = (
{
name = bottom;
pos = (330,0);
},
{
name = top;
pos = (406,583);
}
);
background = {
shapes = (
{
closed = 1;
nodes = (
(492,-10,o),
(578,39,o),
(637,164,c),
(551,212,l),
(512,126,o),
(451,89,o),
(360,89,cs),
(242,89,o),
(170,154,o),
(170,269,cs),
(170,407,o),
(253,495,o),
(391,495,cs),
(476,495,o),
(553,457,o),
(579,386,c),
(653,386,l),
(684,583,l),
(606,583,l),
(587,463,l),
(612,447,l),
(588,540,o),
(508,594,o),
(385,594,cs),
(165,594,o),
(51,438,o),
(51,264,cs),
(51,94,o),
(173,-10,o),
(354,-10,cs)
);
}
);
};
layerId = "14AB8F11-4722-4116-93B5-2CBF67C8CE3C";
shapes = (
{
closed = 1;
nodes = (
(492,-10,o),
(578,39,o),
(637,164,c),
(551,212,l),
(512,126,o),
(451,87,o),
(360,87,cs),
(242,87,o),
(170,154,o),
(170,269,cs),
(170,407,o),
(253,497,o),
(391,497,cs),
(476,497,o),
(553,457,o),
(579,386,c),
(653,386,l),
(684,583,l),
(606,583,l),
(587,463,l),
(612,447,l),
(588,540,o),
(508,594,o),
(385,594,cs),
(165,594,o),
(51,438,o),
(51,264,cs),
(51,94,o),
(173,-10,o),
(354,-10,cs)
);
}
);
width = 672;
}
);
metricLeft = O;
unicode = 67;
userData = {
com.typemytype.robofont.layerData = {
b = {
anchors = (
);
components = (
);
contours = (
);
lib = {
};
name = C;
unicodes = (
);
width = 1411;
};
};
org.robofab.postScriptHintData = {
};
};
},
{
color = 3;
glyphname = D;
kernLeft = H;
kernRight = O;
layers = (
{
anchors = (
{
name = bottom;
pos = (315,0);
},
{
name = top;
pos = (407,583);
}
);
background = {
shapes = (
{
closed = 1;
nodes = (
(307,0,ls),
(543,0,o),
(626,126,o),
(650,280,cs),
(678,456,o),
(608,583,o),
(376,583,cs),
(101,583,l),
(98,561,l),
(183,561,l),
(97,22,l),
(12,22,l),
(9,0,l)
);
},
{
closed = 1;
nodes = (
(213,561,l),
(371,561,ls),
(591,561,o),
(644,443,o),
(618,279,cs),
(595,136,o),
(524,22,o),
(305,22,cs),
(127,22,l)
);
}
);
};
layerId = "98C086B7-81AA-4491-8494-0C6A76849168";
shapes = (
{
closed = 1;
nodes = (
(307,0,ls),
(592,0,o),
(656,196,o),
(656,349,cs),
(656,488,o),
(576,583,o),
(376,583,cs),
(101,583,l),
(98,561,l),
(183,561,l),
(97,22,l),
(12,22,l),
(9,0,l)
);
},
{
closed = 1;
nodes = (
(213,561,l),
(371,561,ls),
(558,561,o),
(624,476,o),
(624,350,cs),
(624,201,o),
(568,22,o),
(305,22,cs),
(127,22,l)
);
}
);
width = 687;
},
{
anchors = (
{
name = bottom;
pos = (323,0);
},
{
name = top;
pos = (423,583);
}
);
background = {
shapes = (
{
closed = 1;
nodes = (
(351,0,ls),
(568,0,o),
(689,107,o),
(716,275,cs),
(747,473,o),
(646,583,o),
(423,583,cs),
(90,583,l),
(71,463,l),
(121,463,l),
(67,120,l),
(17,120,l),
(-2,0,l)
);
},
{
closed = 1;
nodes = (
(321,463,l),
(386,463,ls),
(493,463,o),
(531,409,o),
(511,281,cs),
(494,176,o),
(444,120,o),
(347,120,cs),
(267,120,l)
);
}
);
};
layerId = "EFCDB4D9-E20B-4A8D-9DB5-150AD166B0AE";
shapes = (
{
closed = 1;
nodes = (
(351,0,ls),
(582,0,o),
(721,127,o),
(721,341,cs),
(721,497,o),
(620,583,o),
(423,583,cs),
(90,583,l),
(71,463,l),
(121,463,l),
(67,120,l),
(17,120,l),
(-2,0,l)
);
},
{
closed = 1;
nodes = (
(321,463,l),
(386,463,ls),
(475,463,o),
(516,426,o),
(516,340,cs),
(516,252,o),
(488,120,o),
(347,120,cs),
(267,120,l)
);
}
);
width = 731;
},
{
anchors = (
{
name = bottom;
pos = (319,0);
},
{
name = top;
pos = (415,583);
}
);
background = {
anchors = (
{
name = bottom;
pos = (319,0);
},
{
name = top;
pos = (415,583);
}
);
shapes = (
{
closed = 1;
nodes = (
(329,0,ls),
(587,0,o),
(689,153,o),
(689,344,cs),
(689,494,o),
(598,583,o),
(400,583,cs),
(96,583,l),
(85,500,l),
(152,500,l),
(82,83,l),
(15,83,l),
(4,0,l)
);
},
{
closed = 1;
nodes = (
(267,500,l),
(379,500,ls),
(517,500,o),
(570,445,o),
(570,344,cs),
(570,233,o),
(528,83,o),
(326,83,cs),
(197,83,l)
);
}
);
};
layerId = "14AB8F11-4722-4116-93B5-2CBF67C8CE3C";
shapes = (
{
closed = 1;
nodes = (
(331,0,ls),
(589,0,o),
(691,153,o),
(691,344,cs),
(691,494,o),
(600,583,o),
(402,583,cs),
(96,583,l),
(83,500,l),
(150,500,l),
(84,83,l),
(17,83,l),
(4,0,l)
);
},
{
closed = 1;
nodes = (
(265,500,l),
(381,500,ls),
(519,500,o),
(572,445,o),
(572,344,cs),
(572,233,o),
(530,83,o),
(328,83,cs),
(199,83,l)
);
}
);
width = 710;
}
);
metricLeft = H;
metricRight = O;
unicode = 68;
userData = {
com.typemytype.robofont.layerData = {
b = {
anchors = (
);
components = (
);
contours = (
);
lib = {
};
name = D;
unicodes = (
);
width = 1434;
};
};
org.robofab.postScriptHintData = {
};
};
},
{
color = 3;
glyphname = E;
kernLeft = H;
kernRight = E;
layers = (
{
anchors = (
{
name = bottom;
pos = (280,0);
},
{
name = ogonek;
pos = (440,0);
},
{
name = top;
pos = (364,583);
}
);
background = {
anchors = (
{
name = bottom;
pos = (311,0);
},
{
name = ogonek;
pos = (471,0);
},
{
name = top;
pos = (303,583);
}
);
shapes = (
{
closed = 1;
nodes = (
(521,0,l),
(521,165,l),
(495,165,l),
(495,22,l),
(155,22,l),
(155,286,l),
(371,286,l),
(371,196,l),
(396,196,l),
(396,393,l),
(370,393,l),
(370,308,l),
(155,308,l),
(155,561,l),
(480,561,l),
(480,423,l),
(506,423,l),
(506,583,l),
(40,583,l),
(40,561,l),
(125,561,l),
(125,22,l),
(40,22,l),
(40,0,l)
);
}
);
};
layerId = "98C086B7-81AA-4491-8494-0C6A76849168";
shapes = (
{
closed = 1;
nodes = (
(490,0,l),
(516,165,l),
(490,165,l),
(467,22,l),
(127,22,l),
(169,286,l),
(385,286,l),
(371,196,l),
(396,196,l),
(427,393,l),
(401,393,l),
(388,308,l),
(173,308,l),
(213,561,l),
(538,561,l),
(516,423,l),
(542,423,l),
(567,583,l),
(101,583,l),
(98,561,l),
(183,561,l),
(97,22,l),
(12,22,l),
(9,0,l)
);
}
);
width = 578;
},
{
anchors = (
{
name = bottom;
pos = (285,0);
},
{
name = ogonek;
pos = (502,0);
},
{
name = top;
pos = (397,583);
}
);
background = {
anchors = (
{
name = bottom;
pos = (317,0);
},
{
name = ogonek;
pos = (534,0);
},
{
name = top;
pos = (337,583);
}
);
shapes = (
{
closed = 1;
nodes = (
(603,0,l),
(603,215,l),
(478,215,l),
(478,120,l),
(280,120,l),
(280,235,l),
(328,235,l),
(328,185,l),
(428,185,l),
(428,400,l),
(328,400,l),
(328,355,l),
(280,355,l),
(280,463,l),
(458,463,l),
(458,373,l),
(583,373,l),
(583,583,l),
(30,583,l),
(30,463,l),
(80,463,l),
(80,120,l),
(30,120,l),
(30,0,l)
);
}
);
};
layerId = "EFCDB4D9-E20B-4A8D-9DB5-150AD166B0AE";
shapes = (
{
closed = 1;
nodes = (
(571,0,l),
(605,215,l),
(480,215,l),
(465,120,l),
(267,120,l),
(285,235,l),
(333,235,l),
(325,185,l),
(425,185,l),
(459,400,l),
(359,400,l),
(352,355,l),
(304,355,l),
(321,463,l),
(499,463,l),
(485,373,l),
(610,373,l),
(643,583,l),
(90,583,l),
(71,463,l),
(121,463,l),
(67,120,l),
(17,120,l),
(-2,0,l)
);
}
);
width = 619;
},
{
anchors = (
{
name = bottom;
pos = (283,0);
},
{
name = ogonek;
pos = (471,0);
},
{
name = top;
pos = (381,583);
}
);
background = {
anchors = (
{
name = bottom;
pos = (283,0);
},
{
name = ogonek;
pos = (471,0);
},
{
name = top;
pos = (381,583);
}
);
shapes = (
{
closed = 1;
nodes = (
(531,0,l),
(561,196,l),
(485,196,l),
(466,83,l),
(197,83,l),
(227,254,l),
(359,254,l),
(348,189,l),
(411,189,l),
(443,397,l),
(380,397,l),
(370,337,l),
(239,337,l),
(267,500,l),
(519,500,l),
(501,392,l),
(576,392,l),
(605,583,l),
(96,583,l),
(85,500,l),
(152,500,l),
(82,83,l),
(15,83,l),
(4,0,l)
);
}
);
};
layerId = "14AB8F11-4722-4116-93B5-2CBF67C8CE3C";
shapes = (
{
closed = 1;
nodes = (
(530,0,l),
(561,196,l),
(485,196,l),
(467,83,l),
(199,83,l),
(226,254,l),
(353,254,l),
(343,189,l),
(413,189,l),
(446,397,l),
(376,397,l),
(366,337,l),
(239,337,l),
(265,500,l),
(516,500,l),
(499,392,l),
(575,392,l),
(604,583,l),
(96,583,l),
(83,500,l),
(150,500,l),
(84,83,l),
(17,83,l),
(4,0,l)
);
}
);
width = 601;
}
);
metricLeft = H;
unicode = 69;
userData = {
com.typemytype.robofont.layerData = {
b = {
anchors = (
);
components = (
);
contours = (
);
lib = {
};
name = E;
unicodes = (
);
width = 1227;
};
};
org.robofab.postScriptHintData = {
};
};
},
{
color = 3;
glyphname = Eth;
kernLeft = H;
kernRight = O;
layers = (
{
background = {
shapes = (
{
closed = 1;
nodes = (
(310,286,l),
(313,308,l),
(58,308,l),
(55,286,l)
);
},
{
closed = 1;
nodes = (
(307,0,ls),
(592,0,o),
(656,196,o),
(656,349,cs),
(656,488,o),
(576,583,o),
(376,583,cs),
(101,583,l),
(98,561,l),
(183,561,l),
(97,22,l),
(12,22,l),
(9,0,l)
);
},
{
closed = 1;
nodes = (
(213,561,l),
(371,561,ls),
(558,561,o),
(624,476,o),
(624,350,cs),
(624,201,o),
(568,22,o),
(305,22,cs),
(127,22,l)
);
}
);
};
layerId = "98C086B7-81AA-4491-8494-0C6A76849168";
shapes = (
{
closed = 1;
nodes = (
(139,286,l),
(97,22,l),
(12,22,l),
(9,0,l),
(307,0,ls),
(592,0,o),
(656,196,o),
(656,349,cs),
(656,488,o),
(576,583,o),
(376,583,cs),
(101,583,l),
(98,561,l),
(183,561,l),
(143,308,l),
(58,308,l),
(55,286,l)
);
},
{
closed = 1;
nodes = (
(169,286,l),
(310,286,l),
(313,308,l),
(173,308,l),
(213,561,l),
(371,561,ls),
(558,561,o),
(624,476,o),
(624,350,cs),
(624,201,o),
(568,22,o),
(305,22,cs),
(127,22,l)
);
}
);
width = 687;
},
{
background = {
shapes = (
{
closed = 1;
nodes = (
(416,240,l),
(435,350,l),
(55,350,l),
(36,240,l)
);
},
{
closed = 1;
nodes = (
(351,0,ls),
(582,0,o),
(721,127,o),
(721,341,cs),
(721,497,o),
(620,583,o),
(423,583,cs),
(90,583,l),
(71,463,l),
(121,463,l),
(67,120,l),
(17,120,l),
(-2,0,l)
);
},
{
closed = 1;
nodes = (
(321,463,l),
(386,463,ls),
(475,463,o),
(516,426,o),
(516,340,cs),
(516,252,o),
(488,120,o),
(347,120,cs),
(267,120,l)
);
}
);
};
layerId = "EFCDB4D9-E20B-4A8D-9DB5-150AD166B0AE";
shapes = (
{
closed = 1;
nodes = (
(86,240,l),
(67,120,l),
(17,120,l),
(-2,0,l),
(351,0,ls),
(582,0,o),
(721,127,o),
(721,341,cs),
(721,497,o),
(620,583,o),
(423,583,cs),
(90,583,l),
(71,463,l),
(121,463,l),
(103,350,l),
(55,350,l),
(38,240,l)
);
},
{
closed = 1;
nodes = (
(286,240,l),
(418,240,l),
(435,350,l),
(303,350,l),
(321,463,l),
(386,463,ls),
(475,463,o),
(516,426,o),
(516,340,cs),
(516,252,o),
(488,120,o),
(347,120,cs),
(267,120,l)
);
}
);
width = 731;
},
{
background = {
shapes = (
{
closed = 1;
nodes = (
(113,257,l),
(82,83,l),
(15,83,l),
(4,0,l),
(329,0,ls),
(587,0,o),
(689,153,o),
(689,344,cs),
(689,494,o),
(598,583,o),
(400,583,cs),
(96,583,l),
(85,500,l),
(152,500,l),
(123,334,l),
(57,334,l),
(47,257,l)
);
},
{
closed = 1;
nodes = (
(228,257,l),
(364,257,l),
(374,334,l),
(238,334,l),
(267,500,l),
(379,500,ls),
(517,500,o),
(570,445,o),
(570,344,cs),
(570,233,o),
(528,83,o),
(326,83,cs),
(197,83,l)
);
}
);
};
layerId = "14AB8F11-4722-4116-93B5-2CBF67C8CE3C";
shapes = (
{
closed = 1;
nodes = (
(112,257,l),
(84,83,l),
(17,83,l),
(4,0,l),
(331,0,ls),
(589,0,o),
(691,153,o),
(691,344,cs),
(691,494,o),
(600,583,o),
(402,583,cs),
(96,583,l),
(83,500,l),
(150,500,l),
(124,334,l),
(57,334,l),
(45,257,l)
);
},
{
closed = 1;
nodes = (
(227,257,l),
(362,257,l),
(374,334,l),
(239,334,l),
(265,500,l),
(381,500,ls),
(519,500,o),
(572,445,o),
(572,344,cs),
(572,233,o),
(530,83,o),
(328,83,cs),
(199,83,l)
);
}
);
width = 710;
}
);
metricLeft = H;
metricRight = O;
unicode = 208;
userData = {
com.typemytype.robofont.layerData = {
b = {
anchors = (
);
components = (
);
contours = (
);
lib = {
};
name = Eth;
unicodes = (
);
width = 1434;
};
};
org.robofab.postScriptHintData = {
};
};
},
{
color = 3;
glyphname = F;
kernLeft = H;
kernRight = F;
layers = (
{
anchors = (
{
name = top;
pos = (360,583);
}
);
background = {
anchors = (
{
name = top;
pos = (299,583);
}
);
shapes = (
{
closed = 1;
nodes = (
(260,0,l),
(260,22,l),
(155,22,l),
(155,291,l),
(370,291,l),
(370,201,l),
(396,201,l),
(396,399,l),
(370,399,l),
(370,314,l),
(155,314,l),
(155,561,l),
(480,561,l),
(480,423,l),
(506,423,l),
(506,583,l),
(40,583,l),
(40,561,l),
(125,561,l),
(125,22,l),
(40,22,l),
(40,0,l)
);
}
);
};
layerId = "98C086B7-81AA-4491-8494-0C6A76849168";
shapes = (
{
closed = 1;
nodes = (
(229,0,l),
(232,22,l),
(127,22,l),
(170,291,l),
(385,291,l),
(371,201,l),
(397,201,l),
(428,399,l),
(402,399,l),
(389,314,l),
(174,314,l),
(213,561,l),
(538,561,l),
(516,423,l),
(542,423,l),
(567,583,l),
(101,583,l),
(98,561,l),
(183,561,l),
(97,22,l),
(12,22,l),
(9,0,l)
);
}
);
width = 551;
},
{
anchors = (
{
name = top;
pos = (383,583);
}
);
background = {
anchors = (
{
name = top;
pos = (323,583);
}
);
shapes = (
{
closed = 1;
nodes = (
(360,0,l),
(360,120,l),
(280,120,l),
(280,245,l),
(328,245,l),
(328,195,l),
(428,195,l),
(428,410,l),
(328,410,l),
(328,365,l),
(280,365,l),
(280,463,l),
(458,463,l),
(458,373,l),
(583,373,l),
(583,583,l),
(30,583,l),
(30,463,l),
(80,463,l),
(80,120,l),
(30,120,l),
(30,0,l)
);
}
);
};
layerId = "EFCDB4D9-E20B-4A8D-9DB5-150AD166B0AE";
shapes = (
{
closed = 1;
nodes = (
(328,0,l),
(347,120,l),
(267,120,l),
(287,245,l),
(335,245,l),
(327,195,l),
(427,195,l),
(461,410,l),
(361,410,l),
(354,365,l),
(306,365,l),
(321,463,l),
(499,463,l),
(485,373,l),
(610,373,l),
(643,583,l),
(90,583,l),
(71,463,l),
(121,463,l),
(67,120,l),
(17,120,l),
(-2,0,l)
);
}
);
width = 593;
},
{
anchors = (
{
name = top;
pos = (374,583);
}
);
background = {
anchors = (
{
name = top;
pos = (374,583);
}
);
shapes = (
{
closed = 1;
nodes = (
(281,0,l),
(292,83,l),
(199,83,l),
(231,262,l),
(362,262,l),
(351,197,l),
(414,197,l),
(447,406,l),
(384,406,l),
(374,346,l),
(242,346,l),
(269,500,l),
(521,500,l),
(503,392,l),
(578,392,l),
(607,583,l),
(98,583,l),
(87,500,l),
(154,500,l),
(84,83,l),
(17,83,l),
(6,0,l)
);
}
);
};
layerId = "14AB8F11-4722-4116-93B5-2CBF67C8CE3C";
shapes = (
{
closed = 1;
nodes = (
(279,0,l),
(292,83,l),
(199,83,l),
(227,262,l),
(354,262,l),
(344,197,l),
(414,197,l),
(447,406,l),
(377,406,l),
(367,346,l),
(241,346,l),
(265,500,l),
(517,500,l),
(500,392,l),
(575,392,l),
(605,583,l),
(96,583,l),
(83,500,l),
(150,500,l),
(84,83,l),
(17,83,l),
(4,0,l)
);
}
);
width = 571;
}
);
metricLeft = H;
unicode = 70;
userData = {
com.typemytype.robofont.layerData = {
b = {
anchors = (
);
components = (
);
contours = (
{
points = (
{
segmentType = line;
smooth = 0;
x = 990;
y = 1086;
},
{
segmentType = line;
smooth = 0;
x = 990;
y = 802;
},
{
segmentType = line;
smooth = 0;
x = 1062;
y = 802;
},
{
segmentType = line;
smooth = 0;
x = 1062;
y = 1152;
},
{
segmentType = line;
smooth = 0;
x = 122;
y = 1152;
},
{
segmentType = line;
smooth = 0;
x = 122;
y = 1086;
},
{
segmentType = line;
smooth = 0;
x = 286;
y = 1086;
},
{
segmentType = line;
smooth = 0;
x = 286;
y = 1039;
},
{
segmentType = line;
smooth = 0;
x = 363;
y = 1039;
},
{
segmentType = line;
smooth = 0;
x = 363;
y = 1086;
}
);
},
{
points = (
{
segmentType = line;
smooth = 0;
x = 286;
y = 1039;
},
{
segmentType = line;
smooth = 0;
x = 286;
y = 677;
},
{
segmentType = line;
smooth = 0;
x = 363;
y = 677;
},
{
segmentType = line;
smooth = 0;
x = 363;
y = 1039;
}
);
},
{
points = (
{
segmentType = line;
smooth = 0;
x = 286;
y = 677;
},
{
segmentType = line;
smooth = 0;
x = 286;
y = 65;
},
{
segmentType = line;
smooth = 0;
x = 122;
y = 65;
},
{
segmentType = line;
smooth = 0;
x = 122;
y = 0;
},
{
segmentType = line;
smooth = 0;
x = 552;
y = 0;
},
{
segmentType = line;
smooth = 0;
x = 552;
y = 65;
},
{
segmentType = line;
smooth = 0;
x = 363;
y = 65;
},
{
segmentType = line;
smooth = 0;
x = 363;
y = 539;
},
{
segmentType = line;
smooth = 0;
x = 824;
y = 539;
},
{
segmentType = line;
smooth = 0;
x = 824;
y = 378;
},
{
segmentType = line;
smooth = 0;
x = 886;
y = 378;
},
{
segmentType = line;
smooth = 0;
x = 886;
y = 764;
},
{
segmentType = line;
smooth = 0;
x = 824;
y = 764;
},
{
segmentType = line;
smooth = 0;
x = 824;
y = 601;
},
{
segmentType = line;
smooth = 0;
x = 363;
y = 601;
},
{
segmentType = line;
smooth = 0;
x = 363;
y = 677;
}
);
}
);
lib = {
};
name = F;
unicodes = (
);
width = 1177;
};
};
org.robofab.postScriptHintData = {
};
};
},
{
color = 3;
glyphname = G;
kernLeft = O;
kernRight = G;
layers = (
{
anchors = (
{
name = bottom;
pos = (323,0);
},
{
name = top;
pos = (413,583);
}
);
background = {
shapes = (
{
closed = 1;
nodes = (
(1411,-10,o),
(1512,82,o),
(1539,244,cs),
(1543,268,l),
(1368,268,l),
(1365,246,l),
(1519,246,l),
(1511,256,l),
(1489,95,o),
(1402,15,o),
(1240,15,cs),
(1087,15,o),
(994,102,o),
(994,245,cs),
(994,440,o),
(1115,569,o),
(1302,569,cs),
(1412,569,o),
(1501,525,o),
(1529,423,c),
(1552,423,l),
(1577,583,l),
(1551,583,l),
(1529,445,l),
(1540,445,l),
(1518,537,o),
(1430,594,o),
(1303,594,cs),
(1097,594,o),
(962,455,o),
(962,245,cs),
(962,89,o),
(1070,-10,o),
(1241,-10,cs)
);
},
{
closed = 1;
nodes = (
(467,-10,o),
(544,29,o),
(614,123,c),
(592,139,l),
(528,49,o),
(461,15,o),
(350,15,cs),
(196,15,o),
(103,102,o),
(103,245,cs),
(103,440,o),
(224,569,o),
(405,569,cs),
(523,569,o),
(600,516,o),
(626,423,c),
(649,423,l),
(674,583,l),
(648,583,l),
(626,445,l),
(637,445,l),
(613,537,o),
(525,594,o),
(407,594,cs),
(205,594,o),
(71,455,o),
(71,245,cs),
(71,89,o),
(178,-10,o),
(348,-10,cs)
);
}
);
};
layerId = "98C086B7-81AA-4491-8494-0C6A76849168";
shapes = (
{
closed = 1;
nodes = (
(512,-10,o),
(612,82,o),
(639,244,cs),
(643,268,l),
(468,268,l),
(465,246,l),
(619,246,l),
(611,256,l),
(589,95,o),
(502,15,o),
(340,15,cs),
(187,15,o),
(94,102,o),
(94,245,cs),
(94,440,o),
(215,569,o),
(401,569,cs),
(523,569,o),
(600,516,o),
(626,423,c),
(649,423,l),
(674,583,l),
(648,583,l),
(626,445,l),
(637,445,l),
(613,537,o),
(525,594,o),
(402,594,cs),
(197,594,o),
(62,455,o),
(62,245,cs),
(62,89,o),
(168,-10,o),
(339,-10,cs)
);
}
);
width = 693;
},
{
anchors = (
{
name = bottom;
pos = (322,0);
},
{
name = top;
pos = (397,583);
}
);
background = {
shapes = (
{
closed = 1;
nodes = (
(1534,-10,o),
(1646,97,o),
(1675,281,cs),
(1682,326,l),
(1420,326,l),
(1401,206,l),
(1555,206,l),
(1513,296,l),
(1492,178,o),
(1474,130,o),
(1368,130,cs),
(1292,130,o),
(1246,178,o),
(1246,254,cs),
(1246,373,o),
(1311,454,o),
(1413,454,cs),
(1486,454,o),
(1533,421,o),
(1550,363,c),
(1675,363,l),
(1710,583,l),
(1580,583,l),
(1563,478,l),
(1605,448,l),
(1586,542,o),
(1500,594,o),
(1381,594,cs),
(1172,594,o),
(1040,454,o),
(1040,255,cs),
(1040,100,o),
(1143,-10,o),
(1341,-10,cs)
);
},
{
closed = 1;
nodes = (
(517,-10,o),
(618,60,o),
(665,196,c),
(528,256,l),
(500,172,o),
(449,130,o),
(378,130,cs),
(304,130,o),
(256,178,o),
(256,254,cs),
(256,364,o),
(315,454,o),
(422,454,cs),
(486,454,o),
(533,421,o),
(550,363,c),
(675,363,l),
(710,583,l),
(580,583,l),
(563,478,l),
(605,448,l),
(586,542,o),
(500,594,o),
(381,594,cs),
(181,594,o),
(50,454,o),
(50,255,cs),
(50,100,o),
(161,-10,o),
(351,-10,cs)
);
}
);
};
layerId = "EFCDB4D9-E20B-4A8D-9DB5-150AD166B0AE";
shapes = (
{
closed = 1;
nodes = (
(534,-10,o),
(646,97,o),
(675,281,cs),
(682,326,l),
(420,326,l),
(401,206,l),
(555,206,l),
(506,246,l),
(485,163,o),
(439,130,o),
(368,130,cs),
(294,130,o),
(246,178,o),
(246,254,cs),
(246,364,o),
(305,454,o),
(413,454,cs),
(486,454,o),
(533,421,o),
(550,363,c),
(675,363,l),
(710,583,l),
(580,583,l),
(563,478,l),
(605,448,l),
(586,542,o),
(500,594,o),
(381,594,cs),
(172,594,o),
(40,454,o),
(40,255,cs),
(40,100,o),
(151,-10,o),
(341,-10,cs)
);
}
);
width = 699;
},
{
anchors = (
{
name = bottom;
pos = (323,0);
},
{
name = top;
pos = (405,583);
}
);
background = {
anchors = (
{
name = bottom;
pos = (323,0);
},
{
name = top;
pos = (405,583);
}
);
shapes = (
{
closed = 1;
nodes = (
(1323,-10,o),
(1429,91,o),
(1457,267,cs),
(1463,304,l),
(1244,304,l),
(1233,221,l),
(1387,221,l),
(1359,250,l),
(1337,138,o),
(1271,87,o),
(1154,87,cs),
(1041,87,o),
(970,150,o),
(970,251,cs),
(970,393,o),
(1060,497,o),
(1207,497,cs),
(1305,497,o),
(1367,457,o),
(1388,386,c),
(1462,386,l),
(1492,583,l),
(1414,583,l),
(1395,466,l),
(1421,447,l),
(1400,540,o),
(1313,594,o),
(1192,594,cs),
(985,594,o),
(851,454,o),
(851,251,cs),
(851,96,o),
(960,-10,o),
(1140,-10,cs)
);
},
{
closed = 1;
nodes = (
(583,-10,o),
(697,146,o),
(697,320,cs),
(697,490,o),
(575,594,o),
(395,594,cs),
(165,594,o),
(51,438,o),
(51,264,cs),
(51,94,o),
(174,-10,o),
(353,-10,cs)
);
},
{
closed = 1;
nodes = (
(242,89,o),
(170,154,o),
(170,269,cs),
(170,403,o),
(249,495,o),
(389,495,cs),
(507,495,o),
(578,431,o),
(578,315,cs),
(578,181,o),
(499,89,o),
(360,89,cs)
);
}
);
};
layerId = "14AB8F11-4722-4116-93B5-2CBF67C8CE3C";
shapes = (
{
closed = 1;
nodes = (
(536,-10,o),
(627,91,o),
(655,257,cs),
(663,304,l),
(444,304,l),
(431,221,l),
(587,221,l),
(547,250,l),
(531,143,o),
(477,87,o),
(360,87,cs),
(242,87,o),
(170,154,o),
(170,269,cs),
(170,403,o),
(249,497,o),
(396,497,cs),
(487,497,o),
(567,457,o),
(588,386,c),
(662,386,l),
(693,583,l),
(615,583,l),
(596,463,l),
(621,447,l),
(600,540,o),
(512,594,o),
(394,594,cs),
(162,594,o),
(51,438,o),
(51,264,cs),
(51,94,o),
(172,-10,o),
(351,-10,cs)
);
}
);
width = 696;
}
);
metricLeft = O;
unicode = 71;
userData = {
com.typemytype.robofont.layerData = {
b = {
anchors = (
);
components = (
);
contours = (
);
lib = {
};
name = G;
unicodes = (
);
width = 1394;
};
};
org.robofab.postScriptHintData = {
};
};
},
{
color = 3;
glyphname = H;
kernLeft = H;
kernRight = H;
layers = (
{
anchors = (
{
name = bottom;
pos = (314,0);
},
{
name = top;
pos = (406,583);
}
);
background = {
anchors = (
{
name = bottom;
pos = (345,0);
},
{
name = top;
pos = (345,583);
}
);
shapes = (
{
closed = 1;
nodes = (
(240,0,l),
(240,22,l),
(155,22,l),
(155,286,l),
(535,286,l),
(535,22,l),
(450,22,l),
(450,0,l),
(650,0,l),
(650,22,l),
(565,22,l),
(565,561,l),
(650,561,l),
(650,583,l),
(450,583,l),
(450,561,l),
(535,561,l),
(535,308,l),
(155,308,l),
(155,561,l),
(240,561,l),
(240,583,l),
(40,583,l),
(40,561,l),
(125,561,l),
(125,22,l),
(40,22,l),
(40,0,l)
);
}
);
};
layerId = "98C086B7-81AA-4491-8494-0C6A76849168";
shapes = (
{
closed = 1;
nodes = (
(209,0,l),
(212,22,l),
(127,22,l),
(169,286,l),
(549,286,l),
(507,22,l),
(422,22,l),
(419,0,l),
(619,0,l),
(622,22,l),
(537,22,l),
(623,561,l),
(708,561,l),
(711,583,l),
(511,583,l),
(508,561,l),
(593,561,l),
(553,308,l),
(173,308,l),
(213,561,l),
(298,561,l),
(301,583,l),
(101,583,l),
(98,561,l),
(183,561,l),
(97,22,l),
(12,22,l),
(9,0,l)
);
}
);
width = 690;
},
{
anchors = (
{
name = bottom;
pos = (331,0);
},
{
name = top;
pos = (423,583);
}
);
background = {
anchors = (
{
name = bottom;
pos = (363,0);
},
{
name = top;
pos = (363,583);
}
);
shapes = (
{
closed = 1;
nodes = (
(298,0,l),
(317,120,l),
(267,120,l),
(285,233,l),
(451,233,l),
(433,120,l),
(383,120,l),
(364,0,l),
(664,0,l),
(683,120,l),
(633,120,l),
(687,463,l),
(737,463,l),
(756,583,l),
(456,583,l),
(437,463,l),
(487,463,l),
(470,357,l),
(304,357,l),
(321,463,l),
(371,463,l),
(390,583,l),
(90,583,l),
(71,463,l),
(121,463,l),
(67,120,l),
(17,120,l),
(-2,0,l)
);
}
);
};
layerId = "EFCDB4D9-E20B-4A8D-9DB5-150AD166B0AE";
shapes = (
{
closed = 1;
nodes = (
(298,0,l),
(317,120,l),
(267,120,l),
(285,233,l),
(451,233,l),
(433,120,l),
(383,120,l),
(364,0,l),
(664,0,l),
(683,120,l),
(633,120,l),
(687,463,l),
(737,463,l),
(756,583,l),
(456,583,l),
(437,463,l),
(487,463,l),
(470,357,l),
(304,357,l),
(321,463,l),
(371,463,l),
(390,583,l),
(90,583,l),
(71,463,l),
(121,463,l),
(67,120,l),
(17,120,l),
(-2,0,l)
);
}
);
width = 726;
},
{
anchors = (
{
name = bottom;
pos = (322,0);
},
{
name = top;
pos = (414,583);
}
);
background = {
anchors = (
{
name = bottom;
pos = (323,0);
},
{
name = top;
pos = (415,583);
}
);
shapes = (
{
closed = 1;
nodes = (
(254,0,l),
(265,83,l),
(197,83,l),
(227,253,l),
(500,253,l),
(470,83,l),
(403,83,l),
(392,0,l),
(642,0,l),
(653,83,l),
(585,83,l),
(655,500,l),
(723,500,l),
(734,583,l),
(484,583,l),
(473,500,l),
(540,500,l),
(512,339,l),
(239,339,l),
(267,500,l),
(335,500,l),
(346,583,l),
(96,583,l),
(85,500,l),
(152,500,l),
(82,83,l),
(15,83,l),
(4,0,l)
);
}
);
};
guides = (
{
angle = 81;
pos = (538,500);
}
);
layerId = "14AB8F11-4722-4116-93B5-2CBF67C8CE3C";
shapes = (
{
closed = 1;
nodes = (
(253,0,l),
(266,83,l),
(199,83,l),
(226,256,l),
(499,256,l),
(471,83,l),
(404,83,l),
(391,0,l),
(640,0,l),
(653,83,l),
(586,83,l),
(652,500,l),
(719,500,l),
(732,583,l),
(483,583,l),
(470,500,l),
(537,500,l),
(511,336,l),
(239,336,l),
(265,500,l),
(332,500,l),
(345,583,l),
(96,583,l),
(83,500,l),
(150,500,l),
(84,83,l),
(17,83,l),
(4,0,l)
);
}
);
width = 707;
}
);
metricRight = "=|";
unicode = 72;
userData = {
com.typemytype.robofont.layerData = {
b = {
anchors = (
);
components = (
);
contours = (
);
lib = {
};
name = H;
unicodes = (
);
width = 1506;
};
};
org.robofab.postScriptHintData = {
};
};
},
{
color = 3;
glyphname = I;
kernLeft = H;
kernRight = H;
layers = (
{
anchors = (
{
name = bottom;
pos = (110,0);
},
{
name = ogonek;
pos = (139,0);
},
{
name = top;
pos = (203,583);
}
);
background = {
anchors = (
{
name = bottom;
pos = (141,0);
},
{
name = ogonek;
pos = (170,0);
},
{
name = top;
pos = (142,583);
}
);
shapes = (
{
closed = 1;
nodes = (
(240,0,l),
(240,22,l),
(155,22,l),
(155,561,l),
(240,561,l),
(240,583,l),
(40,583,l),
(40,561,l),
(125,561,l),
(125,22,l),
(40,22,l),
(40,0,l)
);
}
);
};
layerId = "98C086B7-81AA-4491-8494-0C6A76849168";
shapes = (
{
closed = 1;
nodes = (
(209,0,l),
(212,22,l),
(127,22,l),
(213,561,l),
(298,561,l),
(301,583,l),
(101,583,l),
(98,561,l),
(183,561,l),
(97,22,l),
(12,22,l),
(9,0,l)
);
}
);
width = 280;
},
{
anchors = (
{
name = bottom;
pos = (148,0);
},
{
name = ogonek;
pos = (198,0);
},
{
name = top;
pos = (240,583);
}
);
background = {
anchors = (
{
name = bottom;
pos = (184,0);
},
{
name = ogonek;
pos = (234,0);
},
{
name = top;
pos = (184,583);
}
);
shapes = (
{
closed = 1;
nodes = (
(334,0,l),
(334,120,l),
(284,120,l),
(284,463,l),
(334,463,l),
(334,583,l),
(34,583,l),
(34,463,l),
(84,463,l),
(84,120,l),
(34,120,l),
(34,0,l)
);
}
);
};
layerId = "EFCDB4D9-E20B-4A8D-9DB5-150AD166B0AE";
shapes = (
{
closed = 1;
nodes = (
(298,0,l),
(317,120,l),
(267,120,l),
(321,463,l),
(371,463,l),
(390,583,l),
(90,583,l),
(71,463,l),
(121,463,l),
(67,120,l),
(17,120,l),
(-2,0,l)
);
}
);
width = 360;
},
{
anchors = (
{
name = bottom;
pos = (128,0);
},
{
name = ogonek;
pos = (169,0);
},
{
name = top;
pos = (221,583);
}
);
background = {
anchors = (
{
name = bottom;
pos = (129,0);
},
{
name = ogonek;
pos = (169,0);
},
{
name = top;
pos = (222,583);
}
);
shapes = (
{
closed = 1;
nodes = (
(254,0,l),
(265,83,l),
(197,83,l),
(267,500,l),
(335,500,l),
(346,583,l),
(96,583,l),
(85,500,l),
(152,500,l),
(82,83,l),
(15,83,l),
(4,0,l)
);
}
);
};
layerId = "14AB8F11-4722-4116-93B5-2CBF67C8CE3C";
shapes = (
{
closed = 1;
nodes = (
(253,0,l),
(266,83,l),
(199,83,l),
(265,500,l),
(332,500,l),
(345,583,l),
(96,583,l),
(83,500,l),
(150,500,l),
(84,83,l),
(17,83,l),
(4,0,l)
);
}
);
width = 320;
}
);
metricLeft = H;
metricRight = H;
unicode = 73;
userData = {
com.typemytype.robofont.layerData = {
b = {
anchors = (
);
components = (
);
contours = (
);
lib = {
};
name = I;
unicodes = (
);
width = 626;
};
};
org.robofab.postScriptHintData = {
};
};
},
{
color = 3;
glyphname = J;
kernLeft = J;
kernRight = J;
layers = (
{
anchors = (
{
name = top;
pos = (197,583);
}
);
background = {
anchors = (
{
name = top;
pos = (137,583);
}
);
shapes = (
{
closed = 1;
nodes = (
(119,-171,o),
(152,-139,o),
(152,-74,cs),
(152,561,l),
(237,561,l),
(237,583,l),
(27,583,l),
(27,561,l),
(122,561,l),
(122,-77,ls),
(122,-128,o),
(99,-149,o),
(49,-149,cs),
(4,-149,l),
(4,-171,l),
(51,-171,ls)
);
}
);
};
layerId = "98C086B7-81AA-4491-8494-0C6A76849168";
shapes = (
{
closed = 1;
nodes = (
(59,-171,o),
(97,-142,o),
(107,-77,cs),
(208,561,l),
(293,561,l),
(297,583,l),
(87,583,l),
(83,561,l),
(178,561,l),
(77,-77,ls),
(69,-128,o),
(43,-149,o),
(-7,-149,cs),
(-52,-149,l),
(-56,-171,l),
(-9,-171,ls)
);
}
);
width = 270;
},
{
anchors = (
{
name = top;
pos = (245,583);
}
);
background = {
anchors = (
{
name = top;
pos = (185,583);
}
);
shapes = (
{
closed = 1;
nodes = (
(205,-171,o),
(285,-94,o),
(285,45,cs),
(285,463,l),
(335,463,l),
(335,583,l),
(25,583,l),
(25,463,l),
(85,463,l),
(85,42,ls),
(85,-4,o),
(60,-31,o),
(9,-31,cs),
(-35,-31,l),
(-35,-171,l),
(50,-171,ls)
);
}
);
};
layerId = "EFCDB4D9-E20B-4A8D-9DB5-150AD166B0AE";
shapes = (
{
closed = 1;
nodes = (
(145,-171,o),
(237,-94,o),
(260,45,cs),
(326,463,l),
(376,463,l),
(395,583,l),
(85,583,l),
(66,463,l),
(126,463,l),
(59,42,ls),
(52,-4,o),
(22,-31,o),
(-29,-31,cs),
(-73,-31,l),
(-95,-171,l),
(-10,-171,ls)
);
}
);
width = 360;
},
{
anchors = (
{
name = top;
pos = (222,583);
}
);
background = {
anchors = (
{
name = top;
pos = (220,583);
}
);
shapes = (
{
closed = 1;
nodes = (
(101,-171,o),
(166,-112,o),
(183,-1,cs),
(266,500,l),
(334,500,l),
(345,583,l),
(85,583,l),
(74,500,l),
(151,500,l),
(67,-3,ls),
(60,-50,o),
(32,-75,o),
(-19,-75,cs),
(-63,-75,l),
(-76,-171,l),
(-10,-171,ls)
);
}
);
};
layerId = "14AB8F11-4722-4116-93B5-2CBF67C8CE3C";
shapes = (
{
closed = 1;
nodes = (
(105,-171,o),
(169,-112,o),
(187,-1,cs),
(266,500,l),
(333,500,l),
(346,583,l),
(87,583,l),
(74,500,l),
(151,500,l),
(71,-3,ls),
(64,-50,o),
(36,-75,o),
(-15,-75,cs),
(-59,-75,l),
(-72,-171,l),
(-6,-171,ls)
);
}
);
width = 315;
}
);
unicode = 74;
userData = {
com.typemytype.robofont.layerData = {
b = {
anchors = (
);
components = (
);
contours = (
);
lib = {
};
name = J;
unicodes = (
);
width = 551;
};
};
org.robofab.postScriptHintData = {
};
};
},
{
color = 3;
glyphname = I_J.loclNLD;
kernLeft = IJ;
kernRight = U;
layers = (
{
anchors = (
{
name = top;
pos = (349,583);
}
);
background = {
shapes = (
{
closed = 1;
nodes = (
(391,-11,o),
(469,57,o),
(489,182,cs),
(549,561,l),
(634,561,l),
(637,583,l),
(437,583,l),
(434,561,l),
(519,561,l),
(490,378,ls),
(468,243,o),
(402,180,o),
(284,180,cs),
(165,180,o),
(122,241,o),
(144,378,cs),
(173,561,l),
(258,561,l),
(261,583,l),
(61,583,l),
(58,561,l),
(143,561,l),
(113,375,ls),
(90,230,o),
(142,156,o),
(280,156,cs),
(379,156,o),
(450,203,o),
(490,296,c),
(477,297,l),
(459,182,ls),
(440,65,o),
(378,13,o),
(261,13,cs),
(195,13,o),
(142,27,o),
(112,58,c),
(94,33,l),
(133,3,o),
(183,-11,o),
(257,-11,cs)
);
}
);
};
layerId = "98C086B7-81AA-4491-8494-0C6A76849168";
shapes = (
{
closed = 1;
nodes = (
(400,-11,o),
(469,57,o),
(489,182,cs),
(549,561,l),
(634,561,l),
(637,583,l),
(437,583,l),
(434,561,l),
(519,561,l),
(490,378,ls),
(469,243,o),
(402,180,o),
(288,180,cs),
(165,180,o),
(124,252,o),
(145,383,cs),
(173,561,l),
(258,561,l),
(261,583,l),
(61,583,l),
(58,561,l),
(143,561,l),
(115,385,ls),
(91,236,o),
(150,156,o),
(285,156,cs),
(383,156,o),
(448,194,o),
(490,296,c),
(477,297,l),
(459,182,ls),
(441,65,o),
(378,13,o),
(261,13,cs),
(198,13,o),
(145,29,o),
(112,62,c),
(96,39,l),
(135,5,o),
(189,-11,o),
(263,-11,cs)
);
}
);
width = 611;
},
{
anchors = (
{
name = top;
pos = (409,583);
}
);
background = {
anchors = (
{
name = top;
pos = (409,583);
}
);
shapes = (
{
closed = 1;
nodes = (
(471,-10,o),
(607,85,o),
(634,253,cs),
(667,463,l),
(717,463,l),
(736,583,l),
(436,583,l),
(417,463,l),
(467,463,l),
(458,406,ls),
(449,347,o),
(419,315,o),
(367,315,cs),
(315,315,o),
(295,347,o),
(304,406,cs),
(313,463,l),
(363,463,l),
(382,583,l),
(82,583,l),
(63,463,l),
(113,463,l),
(104,404,ls),
(80,256,o),
(162,180,o),
(288,180,cs),
(363,180,o),
(407,195,o),
(458,248,c),
(442,307,l),
(431,239,ls),
(420,169,o),
(379,130,o),
(306,130,cs),
(239,130,o),
(186,152,o),
(144,175,c),
(65,48,l),
(106,18,o),
(188,-10,o),
(293,-10,cs)
);
}
);
};
layerId = "EFCDB4D9-E20B-4A8D-9DB5-150AD166B0AE";
shapes = (
{
closed = 1;
nodes = (
(491,-10,o),
(609,85,o),
(633,243,cs),
(667,463,l),
(717,463,l),
(736,583,l),
(436,583,l),
(417,463,l),
(467,463,l),
(458,406,ls),
(449,347,o),
(419,315,o),
(367,315,cs),
(315,315,o),
(295,347,o),
(304,406,cs),
(313,463,l),
(363,463,l),
(382,583,l),
(82,583,l),
(63,463,l),
(113,463,l),
(104,404,ls),
(83,266,o),
(167,180,o),
(303,180,cs),
(368,180,o),
(412,195,o),
(463,248,c),
(442,307,l),
(430,229,ls),
(419,159,o),
(379,130,o),
(314,130,cs),
(234,130,o),
(181,152,o),
(139,175,c),
(70,48,l),
(111,18,o),
(203,-10,o),
(308,-10,cs)
);
}
);
width = 698;
},
{
anchors = (
{
name = top;
pos = (380,583);
}
);
background = {
anchors = (
{
name = top;
pos = (378,583);
}
);
shapes = (
{
closed = 1;
nodes = (
(445,-10,o),
(538,75,o),
(560,220,cs),
(607,500,l),
(675,500,l),
(686,583,l),
(436,583,l),
(425,500,l),
(492,500,l),
(473,396,ls),
(458,308,o),
(410,264,o),
(327,264,cs),
(239,264,o),
(209,311,o),
(224,397,cs),
(242,500,l),
(310,500,l),
(321,583,l),
(71,583,l),
(60,500,l),
(127,500,l),
(109,397,ls),
(86,255,o),
(158,171,o),
(293,171,cs),
(375,171,o),
(429,195,o),
(476,266,c),
(459,303,l),
(444,211,ls),
(429,124,o),
(378,86,o),
(287,86,cs),
(215,86,o),
(162,106,o),
(125,133,c),
(82,45,l),
(122,13,o),
(195,-10,o),
(285,-10,cs)
);
}
);
};
layerId = "14AB8F11-4722-4116-93B5-2CBF67C8CE3C";
shapes = (
{
closed = 1;
nodes = (
(455,-10,o),
(540,75,o),
(563,220,cs),
(607,500,l),
(674,500,l),
(687,583,l),
(438,583,l),
(425,500,l),
(492,500,l),
(476,396,ls),
(462,308,o),
(410,266,o),
(327,266,cs),
(239,266,o),
(213,311,o),
(226,397,cs),
(242,500,l),
(309,500,l),
(322,583,l),
(73,583,l),
(60,500,l),
(127,500,l),
(111,397,ls),
(89,255,o),
(161,171,o),
(301,171,cs),
(378,171,o),
(432,195,o),
(479,266,c),
(461,303,l),
(446,211,ls),
(432,124,o),
(384,89,o),
(287,89,cs),
(215,89,o),
(162,109,o),
(128,136,c),
(82,45,l),
(122,13,o),
(195,-10,o),
(287,-10,cs)
);
}
);
width = 655;
}
);
metricRight = U;
userData = {
com.typemytype.robofont.layerData = {
b = {
anchors = (
);
components = (
);
contours = (
);
lib = {
};
name = IJ;
unicodes = (
);
width = 1177;
};
};
org.robofab.postScriptHintData = {
};
};
},
{
color = 3;
glyphname = K;
kernLeft = H;
kernRight = K;
layers = (
{
anchors = (
{
name = bottom;
pos = (281,0);
},
{
name = top;
pos = (363,583);
}
);
background = {
shapes = (
{
closed = 1;
nodes = (
(209,0,l),
(212,22,l),
(127,22,l),
(167,276,l),
(186,276,ls),
(235,276,o),
(258,265,o),
(281,231,cs),
(410,45,ls),
(431,14,o),
(459,0,o),
(497,0,cs),
(548,0,l),
(551,22,l),
(499,22,ls),
(471,22,o),
(451,33,o),
(436,54,cs),
(306,240,ls),
(276,283,o),
(247,298,o),
(210,298,cs),
(181,298,l),
(198,288,l),
(536,561,l),
(616,561,l),
(619,583,l),
(425,583,l),
(422,561,l),
(497,561,l),
(171,298,l),
(213,561,l),
(298,561,l),
(301,583,l),
(101,583,l),
(98,561,l),
(183,561,l),
(97,22,l),
(12,22,l),
(9,0,l)
);
}
);
};
guides = (
{
pos = (223,290);
},
{
angle = 124.9507;
pos = (410,45);
}
);
layerId = "98C086B7-81AA-4491-8494-0C6A76849168";
shapes = (
{
closed = 1;
nodes = (
(229,0,l),
(232,22,l),
(127,22,l),
(168,281,l),
(187,281,ls),
(236,281,o),
(258,265,o),
(281,231,cs),
(410,45,ls),
(431,14,o),
(459,0,o),
(497,0,cs),
(548,0,l),
(551,22,l),
(499,22,ls),
(471,22,o),
(451,33,o),
(436,54,cs),
(306,240,ls),
(276,283,o),
(247,301,o),
(210,301,cs),
(201,301,l),
(202,287,l),
(536,561,l),
(616,561,l),
(619,583,l),
(425,583,l),
(422,561,l),
(497,561,l),
(170,293,l),
(213,561,l),
(298,561,l),
(301,583,l),
(101,583,l),
(98,561,l),
(183,561,l),
(97,22,l),
(12,22,l),
(9,0,l)
);
}
);
width = 579;
},
{
anchors = (
{
name = bottom;
pos = (325,0);
},
{
name = top;
pos = (413,583);
}
);
background = {
shapes = (
{
closed = 1;
nodes = (
(318,0,l),
(337,120,l),
(267,120,l),
(284,226,l),
(311,226,ls),
(336,226,o),
(346,218,o),
(354,200,cs),
(409,72,ls),
(430,24,o),
(469,0,o),
(537,0,cs),
(662,0,l),
(681,120,l),
(640,120,ls),
(607,120,o),
(591,133,o),
(578,163,cs),
(540,252,ls),
(525,286,o),
(500,311,o),
(457,311,cs),
(409,311,l),
(446,259,l),
(671,463,l),
(716,463,l),
(735,583,l),
(436,583,l),
(417,463,l),
(452,463,l),
(298,318,l),
(321,463,l),
(371,463,l),
(390,583,l),
(90,583,l),
(71,463,l),
(121,463,l),
(67,120,l),
(17,120,l),
(-2,0,l)
);
}
);
};
guides = (
{
angle = 113.1209;
pos = (409,72);
}
);
layerId = "EFCDB4D9-E20B-4A8D-9DB5-150AD166B0AE";
shapes = (
{
closed = 1;
nodes = (
(318,0,l),
(337,120,l),
(267,120,l),
(287,246,l),
(303,246,ls),
(328,246,o),
(338,238,o),
(346,220,cs),
(409,72,ls),
(429,24,o),
(469,0,o),
(537,0,cs),
(662,0,l),
(681,120,l),
(640,120,ls),
(607,120,o),
(591,133,o),
(578,163,cs),
(540,252,ls),
(525,286,o),
(500,311,o),
(457,311,cs),
(409,311,l),
(445,251,l),
(671,463,l),
(716,463,l),
(735,583,l),
(436,583,l),
(417,463,l),
(452,463,l),
(297,310,l),
(321,463,l),
(371,463,l),
(390,583,l),
(90,583,l),
(71,463,l),
(121,463,l),
(67,120,l),
(17,120,l),
(-2,0,l)
);
}
);
width = 694;
},
{
anchors = (
{
name = bottom;
pos = (303,0);
},
{
name = top;
pos = (389,583);
}
);
background = {
anchors = (
{
name = bottom;
pos = (303,0);
},
{
name = top;
pos = (372,583);
}
);
shapes = (
{
closed = 1;
nodes = (
(274,0,l),
(285,83,l),
(197,83,l),
(228,259,l),
(245,259,ls),
(282,259,o),
(298,248,o),
(314,224,cs),
(410,62,ls),
(430,20,o),
(464,0,o),
(517,0,cs),
(605,0,l),
(616,83,l),
(570,83,ls),
(539,83,o),
(521,96,o),
(507,122,cs),
(423,248,ls),
(401,285,o),
(374,307,o),
(334,307,cs),
(305,307,l),
(324,265,l),
(604,500,l),
(666,500,l),
(677,583,l),
(431,583,l),
(420,500,l),
(475,500,l),
(234,304,l),
(267,500,l),
(335,500,l),
(346,583,l),
(96,583,l),
(85,500,l),
(152,500,l),
(82,83,l),
(15,83,l),
(4,0,l)
);
}
);
};
guides = (
{
angle = 219.1207;
pos = (604,500);
}
);
layerId = "14AB8F11-4722-4116-93B5-2CBF67C8CE3C";
shapes = (
{
closed = 1;
nodes = (
(273,0,l),
(286,83,l),
(199,83,l),
(227,259,l),
(245,259,ls),
(282,259,o),
(299,249,o),
(314,224,cs),
(410,62,ls),
(434,22,o),
(464,0,o),
(517,0,cs),
(602,0,l),
(615,83,l),
(566,83,ls),
(535,83,o),
(519,96,o),
(503,122,cs),
(427,248,ls),
(405,285,o),
(378,307,o),
(338,307,cs),
(305,307,l),
(324,272,l),
(604,500,l),
(666,500,l),
(679,583,l),
(433,583,l),
(420,500,l),
(475,500,l),
(234,304,l),
(265,500,l),
(332,500,l),
(345,583,l),
(96,583,l),
(83,500,l),
(150,500,l),
(84,83,l),
(17,83,l),
(4,0,l)
);
}
);
width = 636;
}
);
metricLeft = K;
unicode = 75;
userData = {
com.typemytype.robofont.guides = (
{
angle = 0;
isGlobal = 0;
magnetic = 5;
x = 467;
y = 593;
}
);
com.typemytype.robofont.layerData = {
b = {
anchors = (
);
components = (
);
contours = (
);
lib = {
};
name = K;
unicodes = (
);
width = 1304;
};
};
org.robofab.postScriptHintData = {
};
};
},
{
color = 3;
glyphname = L;
kernLeft = H;
kernRight = L;
layers = (
{
anchors = (
{
name = bottom;
pos = (262,0);
},
{
name = dot;
pos = (489,393);
},
{
name = top;
pos = (201,583);
},
{
name = topright;
pos = (364,583);
}
);
background = {
anchors = (
{
name = bottom;
pos = (308,0);
},
{
name = dot;
pos = (473,393);
},
{
name = top;
pos = (155,583);
},
{
name = topright;
pos = (318,583);
}
);
shapes = (
{
closed = 1;
nodes = (
(486,0,l),
(486,180,l),
(460,180,l),
(460,22,l),
(170,22,l),
(170,561,l),
(255,561,l),
(255,583,l),
(55,583,l),
(55,561,l),
(140,561,l),
(140,22,l),
(55,22,l),
(55,0,l)
);
}
);
};
guides = (
{
angle = 90;
pos = (1003,182);
}
);
layerId = "98C086B7-81AA-4491-8494-0C6A76849168";
shapes = (
{
closed = 1;
nodes = (
(440,0,l),
(468,180,l),
(442,180,l),
(417,22,l),
(127,22,l),
(213,561,l),
(298,561,l),
(301,583,l),
(101,583,l),
(98,561,l),
(183,561,l),
(97,22,l),
(12,22,l),
(9,0,l)
);
}
);
width = 501;
},
{
anchors = (
{
name = bottom;
pos = (254,0);
},
{
name = dot;
pos = (525,402);
},
{
name = top;
pos = (240,583);
},
{
name = topright;
pos = (426,583);
}
);
background = {
anchors = (
{
name = bottom;
pos = (286,0);
},
{
name = dot;
pos = (493,402);
},
{
name = top;
pos = (180,583);
},
{
name = topright;
pos = (366,583);
}
);
shapes = (
{
closed = 1;
nodes = (
(555,0,l),
(555,265,l),
(430,265,l),
(430,120,l),
(280,120,l),
(280,473,l),
(330,473,l),
(330,583,l),
(30,583,l),
(30,473,l),
(80,473,l),
(80,120,l),
(30,120,l),
(30,0,l)
);
}
);
};
layerId = "EFCDB4D9-E20B-4A8D-9DB5-150AD166B0AE";
shapes = (
{
closed = 1;
nodes = (
(523,0,l),
(565,265,l),
(440,265,l),
(417,120,l),
(267,120,l),
(321,463,l),
(371,463,l),
(390,583,l),
(90,583,l),
(71,463,l),
(121,463,l),
(67,120,l),
(17,120,l),
(-2,0,l)
);
}
);
width = 575;
},
{
anchors = (
{
name = bottom;
pos = (256,0);
},
{
name = dot;
pos = (507,399);
},
{
name = top;
pos = (221,583);
},
{
name = topright;
pos = (395,583);
}
);
background = {
anchors = (
{
name = bottom;
pos = (258,0);
},
{
name = dot;
pos = (507,399);
},
{
name = top;
pos = (221,583);
},
{
name = topright;
pos = (395,583);
}
);
shapes = (
{
closed = 1;
nodes = (
(482,0,l),
(517,233,l),
(441,233,l),
(417,83,l),
(197,83,l),
(267,500,l),
(335,500,l),
(346,583,l),
(96,583,l),
(85,500,l),
(152,500,l),
(82,83,l),
(15,83,l),
(4,0,l)
);
}
);
};
layerId = "14AB8F11-4722-4116-93B5-2CBF67C8CE3C";
shapes = (
{
closed = 1;
nodes = (
(481,0,l),
(518,233,l),
(433,233,l),
(409,83,l),
(199,83,l),
(265,500,l),
(332,500,l),
(345,583,l),
(96,583,l),
(83,500,l),
(150,500,l),
(84,83,l),
(17,83,l),
(4,0,l)
);
}
);
width = 537;
}
);
metricLeft = H;
unicode = 76;
userData = {
com.typemytype.robofont.layerData = {
b = {
anchors = (
);
components = (
);
contours = (
);
lib = {
};
name = L;
unicodes = (
);
width = 1055;
};
};
org.robofab.postScriptHintData = {
};
};
},
{
color = 3;
glyphname = Lslash;
kernLeft = H;
kernRight = L;
layers = (
{
background = {
shapes = (
{
closed = 1;
nodes = (
(283,351,l),
(272,370,l),
(52,243,l),
(63,224,l)
);
},
{
closed = 1;
nodes = (
(440,0,l),
(468,180,l),
(442,180,l),
(417,22,l),
(127,22,l),
(213,561,l),
(298,561,l),
(301,583,l),
(101,583,l),
(98,561,l),
(183,561,l),
(97,22,l),
(12,22,l),
(9,0,l)
);
}
);
};
layerId = "98C086B7-81AA-4491-8494-0C6A76849168";
shapes = (
{
closed = 1;
nodes = (
(136,266,l),
(97,22,l),
(12,22,l),
(9,0,l),
(440,0,l),
(468,180,l),
(442,180,l),
(417,22,l),
(127,22,l),
(169,285,l),
(283,351,l),
(272,370,l),
(174,313,l),
(213,561,l),
(298,561,l),
(301,583,l),
(101,583,l),
(98,561,l),
(183,561,l),
(141,294,l),
(52,243,l),
(63,224,l)
);
}
);
width = 501;
},
{
background = {
shapes = (
{
closed = 1;
nodes = (
(417,315,l),
(380,419,l),
(3,282,l),
(40,178,l)
);
},
{
closed = 1;
nodes = (
(523,0,l),
(565,265,l),
(440,265,l),
(417,120,l),
(267,120,l),
(321,463,l),
(371,463,l),
(390,583,l),
(90,583,l),
(71,463,l),
(121,463,l),
(67,120,l),
(17,120,l),
(-2,0,l)
);
}
);
};
layerId = "EFCDB4D9-E20B-4A8D-9DB5-150AD166B0AE";
shapes = (
{
closed = 1;
nodes = (
(78,192,l),
(67,120,l),
(17,120,l),
(-2,0,l),
(523,0,l),
(565,265,l),
(440,265,l),
(417,120,l),
(267,120,l),
(291,269,l),
(417,315,l),
(380,419,l),
(310,394,l),
(321,463,l),
(371,463,l),
(390,583,l),
(90,583,l),
(71,463,l),
(121,463,l),
(98,316,l),
(3,282,l),
(40,178,l)
);
}
);
width = 575;
},
{
background = {
shapes = (
{
closed = 1;
nodes = (
(480,0,l),
(517,233,l),
(432,233,l),
(408,83,l),
(198,83,l),
(264,500,l),
(331,500,l),
(344,583,l),
(95,583,l),
(82,500,l),
(149,500,l),
(83,83,l),
(16,83,l),
(3,0,l)
);
}
);
};
layerId = "14AB8F11-4722-4116-93B5-2CBF67C8CE3C";
shapes = (
{
closed = 1;
nodes = (
(105,220,l),
(83,83,l),
(17,83,l),
(4,0,l),
(481,0,l),
(518,233,l),
(433,233,l),
(409,83,l),
(198,83,l),
(229,274,l),
(350,329,l),
(326,401,l),
(243,364,l),
(264,500,l),
(331,500,l),
(344,583,l),
(95,583,l),
(82,500,l),
(149,500,l),
(119,308,l),
(28,267,l),
(52,195,l)
);
}
);
width = 537;
}
);
metricRight = L;
metricWidth = L;
unicode = 321;
userData = {
com.typemytype.robofont.layerData = {
b = {
anchors = (
);
components = (
);
contours = (
);
lib = {
};
name = Lslash;
unicodes = (
);
width = 1243;
};
};
org.robofab.postScriptHintData = {
};
};
},
{
color = 3;
glyphname = M;
kernLeft = H;
kernRight = H;
layers = (
{
anchors = (
{
name = bottom;
pos = (360,0);
},
{
name = top;
pos = (452,583);
}
);
background = {
shapes = (
{
closed = 1;
nodes = (
(197,0,l),
(200,22,l),
(125,22,l),
(206,534,l),
(369,68,l),
(375,68,l),
(682,534,l),
(601,22,l),
(526,22,l),
(523,0,l),
(711,0,l),
(714,22,l),
(629,22,l),
(715,561,l),
(800,561,l),
(803,583,l),
(686,583,l),
(372,107,l),
(384,107,l),
(217,583,l),
(101,583,l),
(98,561,l),
(183,561,l),
(97,22,l),
(12,22,l),
(9,0,l)
);
}
);
};
layerId = "98C086B7-81AA-4491-8494-0C6A76849168";
shapes = (
{
closed = 1;
nodes = (
(197,0,l),
(200,22,l),
(125,22,l),
(210,558,l),
(194,576,l),
(369,68,l),
(375,68,l),
(707,572,l),
(686,561,l),
(601,22,l),
(526,22,l),
(523,0,l),
(711,0,l),
(714,22,l),
(629,22,l),
(715,561,l),
(800,561,l),
(803,583,l),
(687,583,l),
(373,107,l),
(381,107,l),
(217,583,l),
(101,583,l),
(98,561,l),
(183,561,l),
(97,22,l),
(12,22,l),
(9,0,l)
);
}
);
width = 782;
},
{
anchors = (
{
name = bottom;
pos = (384,0);
},
{
name = top;
pos = (478,583);
}
);
background = {
anchors = (
{
name = bottom;
pos = (384,0);
},
{
name = top;
pos = (478,583);
}
);
shapes = (
{
closed = 1;
nodes = (
(258,0,l),
(277,120,l),
(232,120,l),
(274,386,l),
(328,90,l),
(471,90,l),
(615,386,l),
(573,120,l),
(528,120,l),
(509,0,l),
(784,0,l),
(803,120,l),
(753,120,l),
(807,463,l),
(857,463,l),
(876,583,l),
(559,583,l),
(423,306,l),
(444,306,l),
(398,583,l),
(90,583,l),
(71,463,l),
(121,463,l),
(67,120,l),
(17,120,l),
(-2,0,l)
);
}
);
};
guides = (
{
angle = 250.475;
pos = (589,373);
}
);
layerId = "EFCDB4D9-E20B-4A8D-9DB5-150AD166B0AE";
shapes = (
{
closed = 1;
nodes = (
(258,0,l),
(277,120,l),
(232,120,l),
(281,430,l),
(270,430,l),
(328,90,l),
(471,90,l),
(635,426,l),
(622,430,l),
(573,120,l),
(528,120,l),
(509,0,l),
(784,0,l),
(803,120,l),
(753,120,l),
(807,463,l),
(857,463,l),
(876,583,l),
(563,583,l),
(427,306,l),
(442,306,l),
(400,583,l),
(90,583,l),
(71,463,l),
(121,463,l),
(67,120,l),
(17,120,l),
(-2,0,l)
);
}
);
width = 846;
},
{
anchors = (
{
name = bottom;
pos = (372,0);
},
{
name = top;
pos = (465,583);
}
);
background = {
anchors = (
{
name = bottom;
pos = (372,0);
},
{
name = top;
pos = (465,583);
}
);
shapes = (
{
closed = 1;
nodes = (
(228,0,l),
(239,83,l),
(179,83,l),
(246,478,l),
(232,485,l),
(349,82,l),
(423,82,l),
(671,481,l),
(654,479,l),
(587,83,l),
(527,83,l),
(516,0,l),
(748,0,l),
(759,83,l),
(691,83,l),
(761,500,l),
(829,500,l),
(840,583,l),
(625,583,l),
(400,231,l),
(412,231,l),
(309,583,l),
(96,583,l),
(85,500,l),
(152,500,l),
(82,83,l),
(15,83,l),
(4,0,l)
);
}
);
};
layerId = "14AB8F11-4722-4116-93B5-2CBF67C8CE3C";
shapes = (
{
closed = 1;
nodes = (
(228,0,l),
(241,83,l),
(181,83,l),
(244,478,l),
(223,485,l),
(349,82,l),
(423,82,l),
(671,481,l),
(651,479,l),
(588,83,l),
(528,83,l),
(515,0,l),
(747,0,l),
(760,83,l),
(692,83,l),
(758,500,l),
(825,500,l),
(836,583,l),
(621,583,l),
(401,227,l),
(416,231,l),
(309,583,l),
(96,583,l),
(83,500,l),
(150,500,l),
(84,83,l),
(17,83,l),
(4,0,l)
);
}
);
width = 814;
}
);
metricLeft = H;
metricRight = H;
unicode = 77;
userData = {
com.typemytype.robofont.layerData = {
b = {
anchors = (
);
components = (
);
contours = (
);
lib = {
};
name = M;
unicodes = (
);
width = 1606;
};
};
org.robofab.postScriptHintData = {
};
};
},
{
color = 3;
glyphname = N;
kernLeft = H;
kernRight = N;
layers = (
{
anchors = (
{
name = bottom;
pos = (321,0);
},
{
name = top;
pos = (413,583);
}
);
background = {
shapes = (
{
closed = 1;
nodes = (
(207,0,l),
(210,22,l),
(125,22,l),
(207,535,l),
(520,0,l),
(547,0,l),
(636,561,l),
(721,561,l),
(724,583,l),
(526,583,l),
(523,561,l),
(608,561,l),
(526,44,l),
(210,583,l),
(101,583,l),
(98,561,l),
(183,561,l),
(97,22,l),
(12,22,l),
(9,0,l)
);
}
);
};
layerId = "98C086B7-81AA-4491-8494-0C6A76849168";
shapes = (
{
closed = 1;
nodes = (
(207,0,l),
(210,22,l),
(125,22,l),
(209,552,l),
(199,553,l),
(520,0,l),
(547,0,l),
(636,561,l),
(721,561,l),
(724,583,l),
(526,583,l),
(523,561,l),
(608,561,l),
(519,0,l),
(536,23,l),
(210,583,l),
(101,583,l),
(98,561,l),
(183,561,l),
(97,22,l),
(12,22,l),
(9,0,l)
);
}
);
width = 698;
},
{
anchors = (
{
name = bottom;
pos = (328,0);
},
{
name = top;
pos = (420,583);
}
);
background = {
anchors = (
{
name = bottom;
pos = (328,0);
},
{
name = top;
pos = (420,583);
}
);
shapes = (
{
closed = 1;
nodes = (
(263,0,l),
(282,120,l),
(232,120,l),
(267,340,l),
(395,0,l),
(607,0,l),
(680,463,l),
(730,463,l),
(749,583,l),
(484,583,l),
(465,463,l),
(515,463,l),
(485,273,l),
(367,583,l),
(90,583,l),
(71,463,l),
(121,463,l),
(67,120,l),
(17,120,l),
(-2,0,l)
);
}
);
};
guides = (
{
angle = -61.631;
pos = (250,330);
}
);
layerId = "EFCDB4D9-E20B-4A8D-9DB5-150AD166B0AE";
shapes = (
{
closed = 1;
nodes = (
(263,0,l),
(282,120,l),
(232,120,l),
(274,384,l),
(258,382,l),
(395,0,l),
(607,0,l),
(680,463,l),
(730,463,l),
(749,583,l),
(484,583,l),
(465,463,l),
(515,463,l),
(478,229,l),
(494,231,l),
(367,583,l),
(90,583,l),
(71,463,l),
(121,463,l),
(67,120,l),
(17,120,l),
(-2,0,l)
);
}
);
width = 714;
},
{
anchors = (
{
name = bottom;
pos = (325,0);
},
{
name = top;
pos = (417,583);
}
);
background = {
anchors = (
{
name = bottom;
pos = (325,0);
},
{
name = top;
pos = (417,583);
}
);
shapes = (
{
closed = 1;
nodes = (
(235,0,l),
(246,83,l),
(179,83,l),
(242,447,l),
(229,446,l),
(458,0,l),
(577,0,l),
(658,500,l),
(726,500,l),
(737,583,l),
(505,583,l),
(494,500,l),
(562,500,l),
(499,143,l),
(515,153,l),
(289,583,l),
(96,583,l),
(85,500,l),
(152,500,l),
(82,83,l),
(15,83,l),
(4,0,l)
);
}
);
};
layerId = "14AB8F11-4722-4116-93B5-2CBF67C8CE3C";
shapes = (
{
closed = 1;
nodes = (
(235,0,l),
(248,83,l),
(181,83,l),
(239,448,l),
(225,446,l),
(458,0,l),
(578,0,l),
(657,500,l),
(724,500,l),
(737,583,l),
(506,583,l),
(493,500,l),
(560,500,l),
(503,142,l),
(516,153,l),
(289,583,l),
(96,583,l),
(83,500,l),
(150,500,l),
(84,83,l),
(17,83,l),
(4,0,l)
);
}
);
width = 706;
}
);
metricLeft = H;
unicode = 78;
userData = {
com.typemytype.robofont.layerData = {
b = {
anchors = (
);
components = (
);
contours = (
);
lib = {
};
name = N;
unicodes = (
);
width = 1444;
};
};
org.robofab.postScriptHintData = {
};
};
},
{
color = 3;
glyphname = Eng;
kernLeft = H;
kernRight = N;
layers = (
{
background = {
shapes = (
{
closed = 1;
nodes = (
(208,0,l),
(211,22,l),
(126,22,l),
(210,552,l),
(200,553,l),
(521,0,l),
(548,0,l),
(637,561,l),
(722,561,l),
(725,583,l),
(527,583,l),
(524,561,l),
(609,561,l),
(520,0,l),
(537,23,l),
(211,583,l),
(102,583,l),
(99,561,l),
(184,561,l),
(98,22,l),
(13,22,l),
(10,0,l)
);
}
);
};
layerId = "98C086B7-81AA-4491-8494-0C6A76849168";
shapes = (
{
closed = 1;
nodes = (
(492,-181,o),
(524,-147,o),
(536,-74,cs),
(637,561,l),
(722,561,l),
(726,583,l),
(528,583,l),
(524,561,l),
(609,561,l),
(525,29,l),
(537,23,l),
(212,583,l),
(103,583,l),
(99,561,l),
(184,561,l),
(98,22,l),
(13,22,l),
(9,0,l),
(207,0,l),
(211,22,l),
(126,22,l),
(210,552,l),
(200,553,l),
(530,-16,l),
(522,11,l),
(508,-77,ls),
(498,-139,o),
(476,-159,o),
(422,-159,cs),
(410,-159,o),
(399,-157,o),
(390,-154,c),
(382,-176,l),
(395,-179,o),
(405,-181,o),
(420,-181,cs)
);
}
);
width = 700;
},
{
background = {
shapes = (
{
closed = 1;
nodes = (
(502,-181,o),
(588,-119,o),
(608,8,cs),
(680,463,l),
(730,463,l),
(750,583,l),
(480,583,l),
(460,463,l),
(510,463,l),
(492,348,l),
(348,583,l),
(91,583,l),
(71,463,l),
(121,463,l),
(67,120,l),
(17,120,l),
(-2,0,l),
(268,0,l),
(287,120,l),
(237,120,l),
(270,330,l),
(459,12,l),
(451,86,l),
(438,4,ls),
(431,-37,o),
(392,-51,o),
(365,-51,cs),
(344,-51,o),
(330,-47,o),
(319,-42,c),
(270,-157,l),
(292,-169,o),
(329,-181,o),
(381,-181,cs)
);
}
);
};
guides = (
{
angle = -55.4456;
pos = (307,583);
}
);
layerId = "EFCDB4D9-E20B-4A8D-9DB5-150AD166B0AE";
shapes = (
{
closed = 1;
nodes = (
(502,-181,o),
(586,-129,o),
(608,8,cs),
(680,463,l),
(730,463,l),
(749,583,l),
(479,583,l),
(460,463,l),
(510,463,l),
(485,304,l),
(510,310,l),
(348,583,l),
(91,583,l),
(71,463,l),
(121,463,l),
(67,120,l),
(17,120,l),
(-2,0,l),
(268,0,l),
(287,120,l),
(237,120,l),
(277,374,l),
(253,369,l),
(459,12,l),
(451,86,l),
(439,12,ls),
(431,-39,o),
(402,-51,o),
(365,-51,cs),
(344,-51,o),
(330,-47,o),
(319,-42,c),
(270,-157,l),
(292,-169,o),
(329,-181,o),
(391,-181,cs)
);
}
);
width = 714;
},
{
background = {
shapes = (
{
closed = 1;
nodes = (
(1397,-181,o),
(1455,-136,o),
(1472,-23,cs),
(1559,500,l),
(1626,500,l),
(1638,583,l),
(1404,583,l),
(1392,500,l),
(1460,500,l),
(1405,201,l),
(1424,202,l),
(1180,583,l),
(997,583,l),
(985,500,l),
(1053,500,l),
(983,83,l),
(915,83,l),
(904,0,l),
(1138,0,l),
(1149,83,l),
(1082,83,l),
(1144,441,l),
(1127,438,l),
(1395,2,l),
(1387,58,l),
(1374,-21,ls),
(1365,-76,o),
(1339,-91,o),
(1294,-91,cs),
(1277,-91,o),
(1265,-88,o),
(1255,-84,c),
(1226,-164,l),
(1244,-173,o),
(1267,-181,o),
(1306,-181,cs)
);
},
{
closed = 1;
nodes = (
(235,0,l),
(248,83,l),
(181,83,l),
(239,448,l),
(225,446,l),
(458,0,l),
(578,0,l),
(657,500,l),
(724,500,l),
(737,583,l),
(506,583,l),
(493,500,l),
(560,500,l),
(503,142,l),
(516,153,l),
(289,583,l),
(96,583,l),
(83,500,l),
(150,500,l),
(84,83,l),
(17,83,l),
(4,0,l)
);
}
);
};
guides = (
{
angle = 260.8486;
pos = (534,336);
}
);
layerId = "14AB8F11-4722-4116-93B5-2CBF67C8CE3C";
shapes = (
{
closed = 1;
nodes = (
(497,-181,o),
(556,-136,o),
(574,-23,cs),
(657,500,l),
(724,500,l),
(737,583,l),
(504,583,l),
(493,500,l),
(560,500,l),
(507,171,l),
(524,198,l),
(289,583,l),
(96,583,l),
(83,500,l),
(150,500,l),
(84,83,l),
(17,83,l),
(4,0,l),
(235,0,l),
(248,83,l),
(181,83,l),
(239,448,l),
(225,446,l),
(495,2,l),
(489,59,l),
(476,-21,ls),
(467,-76,o),
(439,-93,o),
(399,-93,cs),
(377,-93,o),
(365,-88,o),
(355,-84,c),
(326,-164,l),
(344,-173,o),
(367,-181,o),
(406,-181,cs)
);
}
);
width = 706;
}
);
metricLeft = H;
metricRight = N;
unicode = 330;
userData = {
org.robofab.postScriptHintData = {
};
};
},
{
color = 3;
glyphname = O;
kernLeft = O;
kernRight = O;
layers = (
{
anchors = (
{
name = bottom;
pos = (321,0);
},
{
name = ogonek;
pos = (363,0);
},
{
name = top;
pos = (412,583);
},
{
name = topright;
pos = (498,583);
}
);
background = {
shapes = (
{
closed = 1;
nodes = (
(1439,-10,o),
(1574,128,o),
(1574,339,cs),
(1574,494,o),
(1468,594,o),
(1300,594,cs),
(1097,594,o),
(962,455,o),
(962,245,cs),
(962,90,o),
(1068,-10,o),
(1236,-10,cs)
);
},
{
closed = 1;
nodes = (
(1087,15,o),
(994,102,o),
(994,245,cs),
(994,440,o),
(1115,569,o),
(1298,569,cs),
(1450,569,o),
(1543,481,o),
(1543,339,cs),
(1543,144,o),
(1421,15,o),
(1238,15,cs)
);
},
{
closed = 1;
nodes = (
(197,594,o),
(62,456,o),
(62,245,cs),
(62,90,o),
(171,-10,o),
(339,-10,cs),
(539,-10,o),
(674,129,o),
(674,339,cs),
(674,494,o),
(565,594,o),
(397,594,cs)
);
},
{
closed = 1;
nodes = (
(545,569,o),
(642,482,o),
(642,339,cs),
(642,144,o),
(521,15,o),
(341,15,cs),
(190,15,o),
(93,103,o),
(93,245,cs),
(93,440,o),
(215,569,o),
(395,569,cs)
);
}
);
};
layerId = "98C086B7-81AA-4491-8494-0C6A76849168";
shapes = (
{
closed = 1;
nodes = (
(539,-10,o),
(674,129,o),
(674,339,cs),
(674,494,o),
(565,594,o),
(397,594,cs),
(197,594,o),
(62,455,o),
(62,245,cs),
(62,90,o),
(171,-10,o),
(339,-10,cs)
);
},
{
closed = 1;
nodes = (
(191,15,o),
(94,102,o),
(94,245,cs),
(94,440,o),
(215,569,o),
(395,569,cs),
(545,569,o),
(642,482,o),
(642,339,cs),
(642,144,o),
(521,15,o),
(341,15,cs)
);
}
);
width = 706;
},
{
anchors = (
{
name = bottom;
pos = (333,0);
},
{
name = ogonek;
pos = (397,0);
},
{
name = top;
pos = (425,583);
},
{
name = topright;
pos = (533,583);
}
);
background = {
shapes = (
{
closed = 1;
nodes = (
(167,594,o),
(40,435,o),
(40,260,cs),
(40,94,o),
(158,-10,o),
(351,-10,cs),
(594,-10,o),
(720,149,o),
(720,324,cs),
(720,489,o),
(603,594,o),
(411,594,cs)
);
},
{
closed = 1;
nodes = (
(476,454,o),
(514,405,o),
(514,334,cs),
(514,235,o),
(468,130,o),
(360,130,cs),
(285,130,o),
(246,179,o),
(246,250,cs),
(246,349,o),
(292,454,o),
(402,454,cs)
);
}
);
};
layerId = "EFCDB4D9-E20B-4A8D-9DB5-150AD166B0AE";
shapes = (
{
closed = 1;
nodes = (
(595,-10,o),
(720,149,o),
(720,324,cs),
(720,489,o),
(600,594,o),
(406,594,cs),
(163,594,o),
(40,435,o),
(40,260,cs),
(40,95,o),
(158,-10,o),
(350,-10,cs)
);
},
{
closed = 1;
nodes = (
(284,130,o),
(246,179,o),
(246,250,cs),
(246,337,o),
(283,454,o),
(397,454,cs),
(476,454,o),
(514,405,o),
(514,334,cs),
(514,247,o),
(476,130,o),
(362,130,cs)
);
}
);
width = 731;
},
{
anchors = (
{
name = bottom;
pos = (327,0);
},
{
name = ogonek;
pos = (380,0);
},
{
name = top;
pos = (419,583);
},
{
name = topright;
pos = (516,583);
}
);
background = {
anchors = (
{
name = bottom;
pos = (327,0);
},
{
name = ogonek;
pos = (380,0);
},
{
name = top;
pos = (419,583);
},
{
name = topright;
pos = (516,583);
}
);
shapes = (
{
closed = 1;
nodes = (
(1367,-10,o),
(1497,142,o),
(1497,330,cs),
(1497,491,o),
(1384,594,o),
(1203,594,cs),
(982,594,o),
(851,443,o),
(851,254,cs),
(851,93,o),
(964,-10,o),
(1144,-10,cs)
);
},
{
closed = 1;
nodes = (
(1038,87,o),
(970,150,o),
(970,248,cs),
(970,376,o),
(1051,497,o),
(1196,497,cs),
(1311,497,o),
(1378,434,o),
(1378,336,cs),
(1378,208,o),
(1297,87,o),
(1152,87,cs)
);
},
{
closed = 1;
nodes = (
(567,-10,o),
(697,126,o),
(697,330,cs),
(697,491,o),
(581,594,o),
(399,594,cs),
(182,594,o),
(51,457,o),
(51,254,cs),
(51,93,o),
(167,-10,o),
(349,-10,cs)
);
},
{
closed = 1;
nodes = (
(242,89,o),
(170,154,o),
(170,257,cs),
(170,398,o),
(250,495,o),
(392,495,cs),
(507,495,o),
(578,431,o),
(578,327,cs),
(578,185,o),
(498,89,o),
(357,89,cs)
);
}
);
};
layerId = "14AB8F11-4722-4116-93B5-2CBF67C8CE3C";
shapes = (
{
closed = 1;
nodes = (
(583,-10,o),
(697,146,o),
(697,320,cs),
(697,490,o),
(575,594,o),
(395,594,cs),
(165,594,o),
(51,438,o),
(51,264,cs),
(51,94,o),
(174,-10,o),
(353,-10,cs)
);
},
{
closed = 1;
nodes = (
(242,87,o),
(170,153,o),
(170,269,cs),
(170,404,o),
(249,497,o),
(389,497,cs),
(507,497,o),
(578,432,o),
(578,315,cs),
(578,180,o),
(499,87,o),
(360,87,cs)
);
}
);
width = 719;
}
);
metricRight = "=|";
unicode = 79;
userData = {
com.typemytype.robofont.layerData = {
b = {
anchors = (
);
components = (
);
contours = (
);
lib = {
};
name = O;
unicodes = (
);
width = 1456;
};
};
org.robofab.postScriptHintData = {
};
};
},
{
color = 3;
glyphname = Oslash;
kernLeft = O;
kernRight = O;
layers = (
{
background = {
shapes = (
{
closed = 1;
nodes = (
(605,590,l),
(585,606,l),
(105,-5,l),
(125,-21,l)
);
},
{
closed = 1;
nodes = (
(539,-10,o),
(674,129,o),
(674,339,cs),
(674,494,o),
(565,594,o),
(397,594,cs),
(197,594,o),
(62,455,o),
(62,245,cs),
(62,90,o),
(171,-10,o),
(339,-10,cs)
);
},
{
closed = 1;
nodes = (
(191,15,o),
(94,102,o),
(94,245,cs),
(94,440,o),
(215,569,o),
(395,569,cs),
(545,569,o),
(642,482,o),
(642,339,cs),
(642,144,o),
(521,15,o),
(341,15,cs)
);
}
);
};
layerId = "98C086B7-81AA-4491-8494-0C6A76849168";
shapes = (
{
closed = 1;
nodes = (
(169,35,l),
(214,6,o),
(272,-10,o),
(339,-10,cs),
(539,-10,o),
(674,129,o),
(674,339,cs),
(674,430,o),
(636,503,o),
(571,546,c),
(605,590,l),
(585,606,l),
(549,560,l),
(507,582,o),
(455,594,o),
(397,594,cs),
(197,594,o),
(62,455,o),
(62,245,cs),
(62,162,o),
(93,95,o),
(148,50,c),
(105,-5,l),
(125,-21,l)
);
},
{
closed = 1;
nodes = (
(94,440,o),
(215,569,o),
(395,569,cs),
(449,569,o),
(496,558,o),
(535,536,c),
(538,546,l),
(161,66,l),
(168,70,l),
(120,110,o),
(94,170,o),
(94,245,cs)
);
},
{
closed = 1;
nodes = (
(560,533,l),
(549,528,l),
(608,488,o),
(642,423,o),
(642,339,cs),
(642,144,o),
(521,15,o),
(341,15,cs),
(277,15,o),
(223,31,o),
(181,60,c),
(181,50,l)
);
}
);
width = 706;
},
{
background = {
shapes = (
{
closed = 1;
nodes = (
(656,554,l),
(563,629,l),
(74,30,l),
(167,-45,l)
);
},
{
closed = 1;
nodes = (
(594,-10,o),
(720,149,o),
(720,324,cs),
(720,489,o),
(603,594,o),
(409,594,cs),
(166,594,o),
(40,435,o),
(40,260,cs),
(40,95,o),
(157,-10,o),
(349,-10,cs)
);
},
{
closed = 1;
nodes = (
(284,130,o),
(246,179,o),
(246,250,cs),
(246,337,o),
(286,454,o),
(397,454,cs),
(476,454,o),
(514,405,o),
(514,334,cs),
(514,247,o),
(473,130,o),
(362,130,cs)
);
}
);
};
layerId = "EFCDB4D9-E20B-4A8D-9DB5-150AD166B0AE";
shapes = (
{
closed = 1;
nodes = (
(213,11,l),
(252,-3,o),
(298,-10,o),
(349,-10,cs),
(594,-10,o),
(720,149,o),
(720,324,cs),
(720,409,o),
(689,478,o),
(632,525,c),
(656,554,l),
(563,629,l),
(523,580,l),
(489,589,o),
(451,594,o),
(409,594,cs),
(166,594,o),
(40,435,o),
(40,260,cs),
(40,184,o),
(65,121,o),
(110,75,c),
(74,30,l),
(167,-45,l)
);
},
{
closed = 1;
nodes = (
(246,337,o),
(286,454,o),
(397,454,cs),
(418,454,o),
(435,450,o),
(446,446,c),
(452,487,l),
(219,200,l),
(252,205,l),
(247,220,o),
(246,235,o),
(246,250,cs)
);
},
{
closed = 1;
nodes = (
(536,415,l),
(497,404,l),
(509,387,o),
(514,360,o),
(514,334,cs),
(514,247,o),
(473,130,o),
(362,130,cs),
(332,130,o),
(307,137,o),
(287,152,c),
(283,104,l)
);
}
);
width = 731;
},
{
background = {
shapes = (
{
closed = 1;
nodes = (
(191,20,l),
(233,0,o),
(285,-10,o),
(344,-10,cs),
(567,-10,o),
(697,142,o),
(697,330,cs),
(697,417,o),
(663,487,o),
(602,533,c),
(631,568,l),
(574,620,l),
(536,573,l),
(498,586,o),
(453,594,o),
(403,594,cs),
(182,594,o),
(51,443,o),
(51,254,cs),
(51,176,o),
(79,111,o),
(129,66,c),
(90,17,l),
(146,-36,l)
);
},
{
closed = 1;
nodes = (
(170,376,o),
(251,497,o),
(396,497,cs),
(434,497,o),
(466,491,o),
(491,480,c),
(495,509,l),
(190,150,l),
(210,154,l),
(184,179,o),
(170,211,o),
(170,248,cs)
);
},
{
closed = 1;
nodes = (
(548,459,l),
(523,451,l),
(559,425,o),
(578,384,o),
(578,336,cs),
(578,208,o),
(497,87,o),
(352,87,cs),
(305,87,o),
(265,97,o),
(234,118,c),
(232,84,l)
);
},
{
closed = 1;
nodes = (
(-317,-10,o),
(-203,146,o),
(-203,320,cs),
(-203,490,o),
(-325,594,o),
(-505,594,cs),
(-735,594,o),
(-849,438,o),
(-849,264,cs),
(-849,94,o),
(-726,-10,o),
(-547,-10,cs)
);
},
{
closed = 1;
nodes = (
(-658,89,o),
(-730,154,o),
(-730,269,cs),
(-730,403,o),
(-651,495,o),
(-511,495,cs),
(-393,495,o),
(-322,431,o),
(-322,315,cs),
(-322,181,o),
(-401,89,o),
(-540,89,cs)
);
}
);
};
guides = (
{
angle = 231.2476;
pos = (332,319);
},
{
angle = 51.2362;
pos = (389,266);
}
);
layerId = "14AB8F11-4722-4116-93B5-2CBF67C8CE3C";
shapes = (
{
closed = 1;
nodes = (
(191,20,l),
(233,0,o),
(294,-10,o),
(353,-10,cs),
(583,-10,o),
(697,146,o),
(697,320,cs),
(697,407,o),
(663,487,o),
(602,533,c),
(634,571,l),
(574,620,l),
(536,573,l),
(498,586,o),
(445,594,o),
(395,594,cs),
(165,594,o),
(51,438,o),
(51,264,cs),
(51,186,o),
(79,111,o),
(129,66,c),
(87,14,l),
(147,-35,l)
);
},
{
closed = 1;
nodes = (
(170,397,o),
(244,497,o),
(389,497,cs),
(427,497,o),
(465,489,o),
(488,478,c),
(485,509,l),
(192,144,l),
(204,154,l),
(179,185,o),
(170,232,o),
(170,269,cs)
);
},
{
closed = 1;
nodes = (
(544,459,l),
(522,454,l),
(563,420,o),
(578,363,o),
(578,315,cs),
(578,181,o),
(499,87,o),
(360,87,cs),
(313,87,o),
(275,97,o),
(243,116,c),
(244,86,l)
);
}
);
width = 718.5;
}
);
metricLeft = O;
metricRight = O;
unicode = 216;
userData = {
com.typemytype.robofont.layerData = {
b = {
anchors = (
);
components = (
);
contours = (
);
lib = {
};
name = Oslash;
unicodes = (
);
width = 1598;
};
};
org.robofab.postScriptHintData = {
};
};
},
{
color = 3;
glyphname = OE;
kernLeft = O;
kernRight = E;
layers = (
{
background = {
shapes = (
{
closed = 1;
nodes = (
(2077,0,l),
(2103,165,l),
(2077,165,l),
(2054,22,l),
(1714,22,l),
(1756,286,l),
(1972,286,l),
(1958,196,l),
(1983,196,l),
(2014,393,l),
(1988,393,l),
(1975,308,l),
(1760,308,l),
(1800,561,l),
(2125,561,l),
(2103,423,l),
(2129,423,l),
(2154,583,l),
(1620,583,ls),
(1390,583,o),
(1291,457,o),
(1265,293,cs),
(1239,127,o),
(1299,0,o),
(1531,0,cs)
);
},
{
closed = 1;
nodes = (
(1321,22,o),
(1273,140,o),
(1297,294,cs),
(1322,447,o),
(1406,561,o),
(1625,561,cs),
(1770,561,l),
(1684,22,l),
(1536,22,ls)
);
},
{
closed = 1;
nodes = (
(410,583,ls),
(125,583,o),
(61,387,o),
(61,234,cs),
(61,95,o),
(141,0,o),
(341,0,cs),
(616,0,l),
(619,22,l),
(534,22,l),
(620,561,l),
(705,561,l),
(708,583,l)
);
},
{
closed = 1;
nodes = (
(504,22,l),
(346,22,ls),
(159,22,o),
(93,107,o),
(93,233,cs),
(93,382,o),
(149,561,o),
(412,561,cs),
(590,561,l)
);
}
);
};
layerId = "98C086B7-81AA-4491-8494-0C6A76849168";
shapes = (
{
closed = 1;
nodes = (
(877,0,l),
(903,165,l),
(877,165,l),
(854,22,l),
(514,22,l),
(556,286,l),
(772,286,l),
(758,196,l),
(783,196,l),
(814,393,l),
(788,393,l),
(775,308,l),
(560,308,l),
(600,561,l),
(925,561,l),
(903,423,l),
(929,423,l),
(954,583,l),
(410,583,ls),
(125,583,o),
(61,387,o),
(61,234,cs),
(61,95,o),
(141,0,o),
(341,0,cs)
);
},
{
closed = 1;
nodes = (
(159,22,o),
(93,107,o),
(93,233,cs),
(93,382,o),
(149,561,o),
(412,561,cs),
(570,561,l),
(484,22,l),
(346,22,ls)
);
}
);
width = 965;
},
{
background = {
shapes = (
{
closed = 1;
nodes = (
(408,583,ls),
(177,583,o),
(38,456,o),
(38,242,cs),
(38,86,o),
(139,0,o),
(336,0,cs),
(669,0,l),
(688,120,l),
(638,120,l),
(692,463,l),
(742,463,l),
(761,583,l)
);
},
{
closed = 1;
nodes = (
(438,120,l),
(373,120,ls),
(284,120,o),
(243,157,o),
(243,243,cs),
(243,331,o),
(271,463,o),
(412,463,cs),
(492,463,l)
);
}
);
};
layerId = "EFCDB4D9-E20B-4A8D-9DB5-150AD166B0AE";
shapes = (
{
closed = 1;
nodes = (
(932,0,l),
(966,215,l),
(841,215,l),
(826,120,l),
(628,120,l),
(646,235,l),
(694,235,l),
(686,185,l),
(786,185,l),
(820,400,l),
(720,400,l),
(713,355,l),
(665,355,l),
(682,463,l),
(860,463,l),
(846,373,l),
(971,373,l),
(1004,583,l),
(408,583,ls),
(177,583,o),
(38,456,o),
(38,242,cs),
(38,86,o),
(139,0,o),
(336,0,cs)
);
},
{
closed = 1;
nodes = (
(284,120,o),
(243,157,o),
(243,243,cs),
(243,331,o),
(271,463,o),
(412,463,cs),
(482,463,l),
(428,120,l),
(373,120,ls)
);
}
);
width = 980;
},
{
background = {
shapes = (
{
closed = 1;
nodes = (
(1903,0,l),
(1933,196,l),
(1857,196,l),
(1838,83,l),
(1569,83,l),
(1599,254,l),
(1731,254,l),
(1720,189,l),
(1783,189,l),
(1815,397,l),
(1752,397,l),
(1742,337,l),
(1611,337,l),
(1639,500,l),
(1891,500,l),
(1873,392,l),
(1948,392,l),
(1977,583,l),
(1407,583,ls),
(1149,583,o),
(1048,430,o),
(1048,239,cs),
(1048,89,o),
(1138,0,o),
(1337,0,cs)
);
},
{
closed = 1;
nodes = (
(1220,83,o),
(1166,138,o),
(1166,239,cs),
(1166,350,o),
(1208,500,o),
(1410,500,cs),
(1524,500,l),
(1454,83,l),
(1358,83,ls)
);
},
{
closed = 1;
nodes = (
(902,0,l),
(933,196,l),
(857,196,l),
(839,83,l),
(571,83,l),
(598,254,l),
(725,254,l),
(715,189,l),
(785,189,l),
(818,397,l),
(748,397,l),
(738,337,l),
(611,337,l),
(637,500,l),
(888,500,l),
(871,392,l),
(947,392,l),
(976,583,l),
(468,583,l),
(455,500,l),
(522,500,l),
(456,83,l),
(389,83,l),
(376,0,l)
);
}
);
};
layerId = "14AB8F11-4722-4116-93B5-2CBF67C8CE3C";
shapes = (
{
closed = 1;
nodes = (
(906,0,l),
(937,196,l),
(861,196,l),
(843,83,l),
(575,83,l),
(602,254,l),
(729,254,l),
(719,189,l),
(789,189,l),
(822,397,l),
(752,397,l),
(742,337,l),
(615,337,l),
(641,500,l),
(892,500,l),
(875,392,l),
(951,392,l),
(981,583,l),
(407,583,ls),
(149,583,o),
(48,430,o),
(48,239,cs),
(48,89,o),
(138,0,o),
(337,0,cs)
);
},
{
closed = 1;
nodes = (
(220,83,o),
(166,138,o),
(166,239,cs),
(166,350,o),
(208,500,o),
(410,500,cs),
(526,500,l),
(460,83,l),
(358,83,ls)
);
}
);
width = 977;
}
);
metricLeft = O;
metricRight = E;
unicode = 338;
userData = {
com.typemytype.robofont.layerData = {
b = {
anchors = (
);
components = (
);
contours = (
);
lib = {
};
name = OE;
unicodes = (
);
width = 1953;
};
};
org.robofab.postScriptHintData = {
};
};
},
{
color = 3;
glyphname = P;
kernLeft = H;
kernRight = P;
layers = (
{
anchors = (
{
name = top;
pos = (367,583);
}
);
background = {
anchors = (
{
name = top;
pos = (306,583);
}
);
shapes = (
{
closed = 1;
nodes = (
(260,0,l),
(260,22,l),
(155,22,l),
(155,561,l),
(328,561,ls),
(436,561,o),
(473,505,o),
(473,424,cs),
(473,341,o),
(436,287,o),
(328,287,cs),
(205,287,l),
(205,265,l),
(336,265,ls),
(449,265,o),
(505,323,o),
(505,424,cs),
(505,525,o),
(449,583,o),
(336,583,cs),
(40,583,l),
(40,561,l),
(125,561,l),
(125,22,l),
(40,22,l),
(40,0,l)
);
}
);
};
layerId = "98C086B7-81AA-4491-8494-0C6A76849168";
shapes = (
{
closed = 1;
nodes = (
(229,0,l),
(232,22,l),
(127,22,l),
(213,561,l),
(376,561,ls),
(471,561,o),
(512,527,o),
(512,455,cs),
(512,346,o),
(456,287,o),
(352,287,cs),
(219,287,l),
(216,265,l),
(357,265,ls),
(476,265,o),
(543,337,o),
(543,455,cs),
(543,538,o),
(488,583,o),
(385,583,cs),
(101,583,l),
(98,561,l),
(183,561,l),
(97,22,l),
(12,22,l),
(9,0,l)
);
}
);
width = 561;
},
{
anchors = (
{
name = top;
pos = (374,583);
}
);
background = {
shapes = (
{
closed = 1;
nodes = (
(328,0,l),
(347,120,l),
(267,120,l),
(321,463,l),
(382,463,ls),
(438,463,o),
(461,442,o),
(453,394,cs),
(448,357,o),
(422,338,o),
(382,338,cs),
(341,338,l),
(322,218,l),
(401,218,ls),
(559,218,o),
(640,274,o),
(657,385,cs),
(678,516,o),
(595,583,o),
(439,583,cs),
(90,583,l),
(71,463,l),
(121,463,l),
(67,120,l),
(17,120,l),
(-2,0,l)
);
}
);
};
layerId = "EFCDB4D9-E20B-4A8D-9DB5-150AD166B0AE";
shapes = (
{
closed = 1;
nodes = (
(328,0,l),
(347,120,l),
(267,120,l),
(321,463,l),
(382,463,ls),
(431,463,o),
(455,447,o),
(455,406,cs),
(455,369,o),
(433,338,o),
(382,338,cs),
(341,338,l),
(322,218,l),
(401,218,ls),
(559,218,o),
(660,279,o),
(660,419,cs),
(660,529,o),
(579,583,o),
(439,583,cs),
(90,583,l),
(71,463,l),
(121,463,l),
(67,120,l),
(17,120,l),
(-2,0,l)
);
}
);
width = 639;
},
{
anchors = (
{
name = top;
pos = (371,583);
}
);
background = {
anchors = (
{
name = top;
pos = (371,583);
}
);
shapes = (
{
closed = 1;
nodes = (
(279,0,l),
(290,83,l),
(197,83,l),
(267,500,l),
(379,500,ls),
(451,500,o),
(484,477,o),
(484,424,cs),
(484,360,o),
(445,319,o),
(367,319,cs),
(280,319,l),
(269,236,l),
(379,236,ls),
(518,236,o),
(602,301,o),
(602,433,cs),
(602,532,o),
(534,583,o),
(412,583,cs),
(96,583,l),
(85,500,l),
(152,500,l),
(82,83,l),
(15,83,l),
(4,0,l)
);
}
);
};
layerId = "14AB8F11-4722-4116-93B5-2CBF67C8CE3C";
shapes = (
{
closed = 1;
nodes = (
(279,0,l),
(292,83,l),
(199,83,l),
(265,500,l),
(376,500,ls),
(448,500,o),
(481,477,o),
(481,424,cs),
(481,360,o),
(442,319,o),
(364,319,cs),
(282,319,l),
(269,236,l),
(376,236,ls),
(515,236,o),
(599,301,o),
(599,433,cs),
(599,532,o),
(531,583,o),
(409,583,cs),
(96,583,l),
(83,500,l),
(150,500,l),
(84,83,l),
(17,83,l),
(4,0,l)
);
}
);
width = 599;
}
);
metricLeft = H;
unicode = 80;
userData = {
com.typemytype.robofont.layerData = {
b = {
anchors = (
);
components = (
);
contours = (
{
points = (
{
segmentType = line;
smooth = 0;
x = 353;
y = 1095;
},
{
segmentType = line;
smooth = 1;
x = 759;
y = 1095;
},
{
smooth = 0;
x = 936;
y = 1095;
},
{
smooth = 0;
x = 1024;
y = 960;
},
{
segmentType = curve;
smooth = 1;
x = 1024;
y = 823;
},
{
smooth = 0;
x = 1024;
y = 683;
},
{
smooth = 0;
x = 934;
y = 544;
},
{
segmentType = curve;
smooth = 1;
x = 759;
y = 544;
},
{
segmentType = line;
smooth = 0;
x = 353;
y = 544;
}
);
},
{
points = (
{
segmentType = line;
smooth = 0;
x = 135;
y = 0;
},
{
segmentType = line;
smooth = 0;
x = 512;
y = 0;
},
{
segmentType = line;
smooth = 0;
x = 512;
y = 58;
},
{
segmentType = line;
smooth = 0;
x = 353;
y = 58;
},
{
segmentType = line;
smooth = 0;
x = 353;
y = 483;
},
{
segmentType = line;
smooth = 1;
x = 759;
y = 483;
},
{
smooth = 0;
x = 984;
y = 483;
},
{
smooth = 0;
x = 1098;
y = 656;
},
{
segmentType = curve;
smooth = 1;
x = 1098;
y = 826;
},
{
smooth = 0;
x = 1098;
y = 989;
},
{
smooth = 0;
x = 984;
y = 1154;
},
{
segmentType = curve;
smooth = 1;
x = 759;
y = 1154;
},
{
segmentType = line;
smooth = 0;
x = 122;
y = 1154;
},
{
segmentType = line;
smooth = 0;
x = 122;
y = 1095;
},
{
segmentType = line;
smooth = 0;
x = 278;
y = 1095;
},
{
segmentType = line;
smooth = 0;
x = 278;
y = 58;
},
{
segmentType = line;
smooth = 0;
x = 135;
y = 58;
}
);
}
);
lib = {
};
name = P;
unicodes = (
);
width = 1226;
};
};
org.robofab.postScriptHintData = {
};
};
},
{
color = 3;
glyphname = Thorn;
kernLeft = H;
kernRight = Thorn;
layers = (
{
background = {
shapes = (
{
closed = 1;
nodes = (
(210,-120,l),
(213,-98,l),
(108,-98,l),
(194,441,l),
(357,441,ls),
(452,441,o),
(493,407,o),
(493,335,cs),
(493,226,o),
(437,167,o),
(333,167,cs),
(200,167,l),
(197,145,l),
(338,145,ls),
(457,145,o),
(524,217,o),
(524,335,cs),
(524,418,o),
(469,463,o),
(366,463,cs),
(82,463,l),
(79,441,l),
(164,441,l),
(78,-98,l),
(-7,-98,l),
(-10,-120,l)
);
}
);
};
layerId = "98C086B7-81AA-4491-8494-0C6A76849168";
shapes = (
{
closed = 1;
nodes = (
(229,0,l),
(232,22,l),
(127,22,l),
(194,441,l),
(357,441,ls),
(452,441,o),
(493,407,o),
(493,335,cs),
(493,226,o),
(437,167,o),
(333,167,cs),
(200,167,l),
(197,145,l),
(338,145,ls),
(457,145,o),
(524,217,o),
(524,335,cs),
(524,418,o),
(469,463,o),
(366,463,cs),
(197,463,l),
(213,561,l),
(298,561,l),
(301,583,l),
(101,583,l),
(98,561,l),
(183,561,l),
(97,22,l),
(12,22,l),
(9,0,l)
);
}
);
width = 561;
},
{
background = {
shapes = (
{
closed = 1;
nodes = (
(328,0,l),
(347,120,l),
(267,120,l),
(298,319,l),
(410,319,ls),
(430,319,o),
(440,310,o),
(437,291,cs),
(434,274,o),
(416,264,o),
(402,264,cs),
(330,264,l),
(311,149,l),
(440,149,ls),
(558,149,o),
(628,199,o),
(643,291,cs),
(657,383,o),
(604,434,o),
(486,434,cs),
(317,434,l),
(321,463,l),
(401,463,l),
(420,583,l),
(90,583,l),
(71,463,l),
(121,463,l),
(67,120,l),
(17,120,l),
(-2,0,l)
);
}
);
};
layerId = "EFCDB4D9-E20B-4A8D-9DB5-150AD166B0AE";
shapes = (
{
closed = 1;
nodes = (
(328,0,l),
(347,120,l),
(267,120,l),
(298,319,l),
(406,319,ls),
(424,319,o),
(437,312,o),
(437,294,cs),
(437,274,o),
(422,264,o),
(406,264,cs),
(330,264,l),
(311,149,l),
(450,149,ls),
(568,149,o),
(643,201,o),
(643,308,cs),
(643,393,o),
(582,434,o),
(476,434,cs),
(317,434,l),
(321,463,l),
(401,463,l),
(420,583,l),
(90,583,l),
(71,463,l),
(121,463,l),
(67,120,l),
(17,120,l),
(-2,0,l)
);
}
);
width = 639;
},
{
background = {
shapes = (
{
closed = 1;
nodes = (
(279,0,l),
(290,83,l),
(197,83,l),
(246,365,l),
(382,365,ls),
(438,365,o),
(465,348,o),
(465,309,cs),
(465,256,o),
(430,228,o),
(370,228,cs),
(265,228,l),
(254,148,l),
(394,148,ls),
(513,148,o),
(584,207,o),
(584,318,cs),
(584,402,o),
(526,445,o),
(421,445,cs),
(257,445,l),
(267,500,l),
(350,500,l),
(361,583,l),
(96,583,l),
(85,500,l),
(152,500,l),
(82,83,l),
(15,83,l),
(4,0,l)
);
}
);
};
layerId = "14AB8F11-4722-4116-93B5-2CBF67C8CE3C";
shapes = (
{
closed = 1;
nodes = (
(279,0,l),
(292,83,l),
(199,83,l),
(244,365,l),
(380,365,ls),
(436,365,o),
(463,348,o),
(463,309,cs),
(463,256,o),
(428,228,o),
(368,228,cs),
(265,228,l),
(252,148,l),
(392,148,ls),
(511,148,o),
(582,207,o),
(582,318,cs),
(582,402,o),
(524,445,o),
(419,445,cs),
(256,445,l),
(265,500,l),
(348,500,l),
(361,583,l),
(96,583,l),
(83,500,l),
(150,500,l),
(84,83,l),
(17,83,l),
(4,0,l)
);
}
);
width = 599;
}
);
metricLeft = H;
metricRight = P;
unicode = 222;
userData = {
com.typemytype.robofont.layerData = {
b = {
anchors = (
);
components = (
);
contours = (
);
lib = {
};
name = Thorn;
unicodes = (
);
width = 1226;
};
};
org.robofab.postScriptHintData = {
};
};
},
{
color = 3;
glyphname = Q;
kernLeft = O;
kernRight = O;
layers = (
{
background = {
shapes = (
{
closed = 1;
nodes = (
(539,-10,o),
(674,129,o),
(674,339,cs),
(674,494,o),
(565,594,o),
(397,594,cs),
(197,594,o),
(62,455,o),
(62,245,cs),
(62,90,o),
(171,-10,o),
(339,-10,cs)
);
},
{
closed = 1;
nodes = (
(191,15,o),
(94,102,o),
(94,245,cs),
(94,440,o),
(215,569,o),
(395,569,cs),
(545,569,o),
(642,482,o),
(642,339,cs),
(642,144,o),
(521,15,o),
(341,15,cs)
);
}
);
};
layerId = "98C086B7-81AA-4491-8494-0C6A76849168";
shapes = (
{
closed = 1;
nodes = (
(488,-103,o),
(508,-100,o),
(544,-87,c),
(538,-66,l),
(511,-78,o),
(491,-82,o),
(468,-82,cs),
(401,-82,o),
(366,-54,o),
(338,-10,c),
(539,-10,o),
(674,128,o),
(674,339,cs),
(674,494,o),
(565,594,o),
(397,594,cs),
(197,594,o),
(62,455,o),
(62,245,cs),
(62,100,o),
(157,4,o),
(303,-8,c),
(341,-64,o),
(384,-103,o),
(468,-103,cs)
);
},
{
closed = 1;
nodes = (
(191,15,o),
(94,102,o),
(94,245,cs),
(94,440,o),
(215,569,o),
(395,569,cs),
(545,569,o),
(642,482,o),
(642,339,cs),
(642,144,o),
(521,15,o),
(341,15,cs)
);
}
);
width = 706;
},
{
background = {
shapes = (
{
closed = 1;
nodes = (
(1544,-181,o),
(1580,-172,o),
(1615,-158,c),
(1604,-40,l),
(1578,-50,o),
(1545,-56,o),
(1514,-56,cs),
(1460,-56,o),
(1427,-32,o),
(1421,-1,c),
(1238,4,l),
(1263,-120,o),
(1362,-181,o),
(1487,-181,cs)
);
},
{
closed = 1;
nodes = (
(1591,-10,o),
(1718,152,o),
(1718,334,cs),
(1718,490,o),
(1600,594,o),
(1407,594,cs),
(1164,594,o),
(1038,432,o),
(1038,250,cs),
(1038,95,o),
(1155,-10,o),
(1347,-10,cs)
);
},
{
closed = 1;
nodes = (
(1282,130,o),
(1244,179,o),
(1244,250,cs),
(1244,349,o),
(1290,454,o),
(1398,454,cs),
(1473,454,o),
(1512,405,o),
(1512,334,cs),
(1512,235,o),
(1466,130,o),
(1356,130,cs)
);
},
{
closed = 1;
nodes = (
(594,-10,o),
(720,149,o),
(720,324,cs),
(720,489,o),
(603,594,o),
(409,594,cs),
(166,594,o),
(40,435,o),
(40,260,cs),
(40,95,o),
(157,-10,o),
(349,-10,cs)
);
},
{
closed = 1;
nodes = (
(284,130,o),
(246,179,o),
(246,250,cs),
(246,337,o),
(286,454,o),
(397,454,cs),
(476,454,o),
(514,405,o),
(514,334,cs),
(514,247,o),
(473,130,o),
(362,130,cs)
);
}
);
};
layerId = "EFCDB4D9-E20B-4A8D-9DB5-150AD166B0AE";
shapes = (
{
closed = 1;
nodes = (
(554,-181,o),
(590,-171,o),
(635,-152,c),
(612,-36,l),
(588,-48,o),
(549,-56,o),
(524,-56,cs),
(462,-56,o),
(430,-34,o),
(422,-5,c),
(617,25,o),
(720,162,o),
(720,324,cs),
(720,489,o),
(603,594,o),
(409,594,cs),
(166,594,o),
(40,435,o),
(40,260,cs),
(40,137,o),
(107,40,o),
(238,3,c),
(269,-102,o),
(362,-181,o),
(497,-181,cs)
);
},
{
closed = 1;
nodes = (
(284,130,o),
(246,179,o),
(246,250,cs),
(246,337,o),
(286,454,o),
(397,454,cs),
(476,454,o),
(514,405,o),
(514,334,cs),
(514,247,o),
(473,130,o),
(362,130,cs)
);
}
);
width = 731;
},
{
background = {
shapes = (
{
closed = 1;
nodes = (
(1521,-152,o),
(1549,-144,o),
(1590,-128,c),
(1575,-47,l),
(1550,-59,o),
(1520,-66,o),
(1496,-66,cs),
(1432,-66,o),
(1398,-41,o),
(1380,-7,c),
(1578,12,o),
(1697,149,o),
(1697,330,cs),
(1697,491,o),
(1584,594,o),
(1403,594,cs),
(1182,594,o),
(1051,443,o),
(1051,254,cs),
(1051,123,o),
(1132,27,o),
(1271,-1,c),
(1305,-88,o),
(1373,-152,o),
(1483,-152,cs)
);
},
{
closed = 1;
nodes = (
(1238,87,o),
(1170,150,o),
(1170,248,cs),
(1170,376,o),
(1251,497,o),
(1396,497,cs),
(1511,497,o),
(1578,434,o),
(1578,336,cs),
(1578,208,o),
(1497,87,o),
(1352,87,cs)
);
},
{
closed = 1;
nodes = (
(583,-10,o),
(697,146,o),
(697,320,cs),
(697,490,o),
(575,594,o),
(395,594,cs),
(165,594,o),
(51,438,o),
(51,264,cs),
(51,94,o),
(174,-10,o),
(353,-10,cs)
);
},
{
closed = 1;
nodes = (
(242,89,o),
(170,154,o),
(170,269,cs),
(170,403,o),
(249,495,o),
(389,495,cs),
(507,495,o),
(578,431,o),
(578,315,cs),
(578,181,o),
(499,89,o),
(360,89,cs)
);
}
);
};
layerId = "14AB8F11-4722-4116-93B5-2CBF67C8CE3C";
shapes = (
{
closed = 1;
nodes = (
(521,-152,o),
(559,-144,o),
(593,-126,c),
(571,-47,l),
(550,-59,o),
(520,-68,o),
(496,-68,cs),
(432,-68,o),
(399,-43,o),
(391,-9,c),
(579,6,o),
(697,139,o),
(697,320,cs),
(697,490,o),
(575,594,o),
(395,594,cs),
(165,594,o),
(51,438,o),
(51,264,cs),
(51,133,o),
(124,29,o),
(271,-2,c),
(302,-97,o),
(373,-152,o),
(483,-152,cs)
);
},
{
closed = 1;
nodes = (
(242,87,o),
(170,153,o),
(170,269,cs),
(170,404,o),
(249,497,o),
(389,497,cs),
(507,497,o),
(578,432,o),
(578,315,cs),
(578,180,o),
(499,87,o),
(360,87,cs)
);
}
);
width = 718.5;
}
);
metricLeft = O;
metricWidth = O;
unicode = 81;
userData = {
com.typemytype.robofont.layerData = {
b = {
anchors = (
);
components = (
);
contours = (
);
lib = {
};
name = Q;
unicodes = (
);
width = 1438;
};
};
org.robofab.postScriptHintData = {
};
};
},
{
color = 3;
glyphname = R;
kernLeft = H;
kernRight = R;
layers = (
{
anchors = (
{
name = bottom;
pos = (296,0);
},
{
name = top;
pos = (358,583);
}
);
background = {
anchors = (
{
name = bottom;
pos = (1096,0);
},
{
name = top;
pos = (367,583);
}
);
shapes = (
{
closed = 1;
nodes = (
(229,0,l),
(232,22,l),
(127,22,l),
(213,561,l),
(376,561,ls),
(471,561,o),
(512,527,o),
(512,455,cs),
(512,346,o),
(456,287,o),
(352,287,cs),
(219,287,l),
(216,265,l),
(357,265,ls),
(476,265,o),
(543,337,o),
(543,455,cs),
(543,538,o),
(488,583,o),
(385,583,cs),
(101,583,l),
(98,561,l),
(183,561,l),
(97,22,l),
(12,22,l),
(9,0,l)
);
}
);
};
guides = (
{
angle = 120.2145;
pos = (444,54);
}
);
layerId = "98C086B7-81AA-4491-8494-0C6A76849168";
shapes = (
{
closed = 1;
nodes = (
(229,0,l),
(232,22,l),
(127,22,l),
(213,561,l),
(376,561,ls),
(471,561,o),
(512,527,o),
(512,455,cs),
(512,346,o),
(456,287,o),
(352,287,cs),
(219,287,l),
(216,265,l),
(235,265,ls),
(274,265,o),
(294,252,o),
(316,215,cs),
(418,45,ls),
(438,12,o),
(465,0,o),
(502,0,cs),
(537,0,l),
(540,22,l),
(507,22,ls),
(479,22,o),
(457,32,o),
(444,54,cs),
(346,217,ls),
(318,264,o),
(289,274,o),
(260,274,c),
(282,265,l),
(357,265,ls),
(476,265,o),
(543,337,o),
(543,455,cs),
(543,538,o),
(488,583,o),
(385,583,cs),
(101,583,l),
(98,561,l),
(183,561,l),
(97,22,l),
(12,22,l),
(9,0,l)
);
}
);
width = 599;
},
{
anchors = (
{
name = bottom;
pos = (323,0);
},
{
name = top;
pos = (413,583);
}
);
background = {
anchors = (
{
name = bottom;
pos = (355,0);
},
{
name = top;
pos = (353,583);
}
);
shapes = (
{
closed = 1;
nodes = (
(1128,0,l),
(1147,120,l),
(1067,120,l),
(1121,463,l),
(1182,463,ls),
(1231,463,o),
(1255,447,o),
(1255,411,cs),
(1255,369,o),
(1233,338,o),
(1182,338,cs),
(1141,338,l),
(1122,218,l),
(1201,218,ls),
(1359,218,o),
(1460,279,o),
(1460,423,cs),
(1460,529,o),
(1379,583,o),
(1239,583,cs),
(890,583,l),
(871,463,l),
(921,463,l),
(867,120,l),
(817,120,l),
(798,0,l)
);
},
{
closed = 1;
nodes = (
(298,0,l),
(317,120,l),
(267,120,l),
(321,463,l),
(392,463,ls),
(438,463,o),
(461,442,o),
(454,400,cs),
(448,360,o),
(412,338,o),
(372,338,cs),
(341,338,l),
(322,218,l),
(343,218,l),
(436,0,l),
(651,0,l),
(670,120,l),
(610,120,l),
(541,278,l),
(370,218,l),
(391,218,ls),
(549,218,o),
(640,274,o),
(660,400,cs),
(680,526,o),
(607,583,o),
(449,583,cs),
(90,583,l),
(71,463,l),
(121,463,l),
(67,120,l),
(17,120,l),
(-2,0,l)
);
}
);
};
guides = (
{
angle = -73.1786;
pos = (556,201);
}
);
layerId = "EFCDB4D9-E20B-4A8D-9DB5-150AD166B0AE";
shapes = (
{
closed = 1;
nodes = (
(318,0,l),
(337,120,l),
(267,120,l),
(321,463,l),
(382,463,ls),
(431,463,o),
(455,447,o),
(455,408,cs),
(455,369,o),
(433,338,o),
(382,338,cs),
(341,338,l),
(322,218,l),
(334,218,ls),
(347,218,o),
(357,214,o),
(367,183,cs),
(404,72,ls),
(420,23,o),
(479,0,o),
(547,0,cs),
(656,0,l),
(675,120,l),
(650,120,ls),
(617,120,o),
(597,130,o),
(588,163,cs),
(579,198,ls),
(570,235,o),
(546,258,o),
(501,258,c),
(370,228,l),
(401,228,ls),
(559,228,o),
(660,289,o),
(660,423,cs),
(660,529,o),
(579,583,o),
(439,583,cs),
(90,583,l),
(71,463,l),
(121,463,l),
(67,120,l),
(17,120,l),
(-2,0,l)
);
}
);
width = 688;
},
{
anchors = (
{
name = bottom;
pos = (310,0);
},
{
name = top;
pos = (386,583);
}
);
background = {
anchors = (
{
name = bottom;
pos = (310,0);
},
{
name = top;
pos = (386,583);
}
);
shapes = (
{
closed = 1;
nodes = (
(274,0,l),
(285,83,l),
(197,83,l),
(267,500,l),
(379,500,ls),
(451,500,o),
(484,477,o),
(484,426,cs),
(484,360,o),
(445,319,o),
(367,319,cs),
(280,319,l),
(269,236,l),
(285,236,ls),
(311,236,o),
(326,228,o),
(342,195,cs),
(411,62,ls),
(429,19,o),
(472,0,o),
(525,0,cs),
(597,0,l),
(608,83,l),
(579,83,ls),
(548,83,o),
(527,93,o),
(516,122,cs),
(463,205,ls),
(444,246,o),
(418,264,o),
(381,264,c),
(326,242,l),
(379,242,ls),
(518,242,o),
(602,307,o),
(602,435,cs),
(602,532,o),
(534,583,o),
(412,583,cs),
(96,583,l),
(85,500,l),
(152,500,l),
(82,83,l),
(15,83,l),
(4,0,l)
);
}
);
};
layerId = "14AB8F11-4722-4116-93B5-2CBF67C8CE3C";
shapes = (
{
closed = 1;
nodes = (
(273,0,l),
(286,83,l),
(199,83,l),
(265,500,l),
(375,500,ls),
(447,500,o),
(480,477,o),
(480,426,cs),
(480,360,o),
(445,319,o),
(363,319,cs),
(282,319,l),
(269,236,l),
(281,236,ls),
(307,236,o),
(321,228,o),
(338,195,cs),
(407,62,ls),
(428,21,o),
(464,0,o),
(511,0,cs),
(591,0,l),
(604,83,l),
(575,83,ls),
(544,83,o),
(523,95,o),
(509,122,cs),
(466,205,ls),
(445,245,o),
(424,264,o),
(377,264,c),
(326,242,l),
(375,242,ls),
(514,242,o),
(598,307,o),
(598,435,cs),
(598,532,o),
(530,583,o),
(408,583,cs),
(96,583,l),
(83,500,l),
(150,500,l),
(84,83,l),
(17,83,l),
(4,0,l)
);
}
);
width = 640;
}
);
metricLeft = H;
unicode = 82;
userData = {
com.typemytype.robofont.layerData = {
b = {
anchors = (
);
components = (
);
contours = (
{
points = (
{
segmentType = line;
smooth = 0;
x = 135;
y = 0;
},
{
segmentType = line;
smooth = 0;
x = 512;
y = 0;
},
{
segmentType = line;
smooth = 0;
x = 512;
y = 58;
},
{
segmentType = line;
smooth = 0;
x = 353;
y = 58;
},
{
segmentType = line;
smooth = 0;
x = 353;
y = 539;
},
{
segmentType = line;
smooth = 0;
x = 641;
y = 539;
},
{
segmentType = line;
smooth = 0;
x = 961;
y = 0;
},
{
segmentType = line;
smooth = 0;
x = 1178;
y = 0;
},
{
segmentType = line;
smooth = 0;
x = 1178;
y = 58;
},
{
segmentType = line;
smooth = 0;
x = 1015;
y = 58;
},
{
segmentType = line;
smooth = 0;
x = 721;
y = 539;
},
{
smooth = 0;
x = 945;
y = 539;
},
{
smooth = 0;
x = 1059;
y = 696;
},
{
segmentType = curve;
smooth = 1;
x = 1059;
y = 848;
},
{
smooth = 0;
x = 1059;
y = 1000;
},
{
smooth = 0;
x = 945;
y = 1154;
},
{
segmentType = curve;
smooth = 1;
x = 721;
y = 1154;
},
{
segmentType = line;
smooth = 0;
x = 122;
y = 1154;
},
{
segmentType = line;
smooth = 0;
x = 122;
y = 1095;
},
{
segmentType = line;
smooth = 0;
x = 278;
y = 1095;
},
{
segmentType = line;
smooth = 0;
x = 278;
y = 58;
},
{
segmentType = line;
smooth = 0;
x = 135;
y = 58;
}
);
},
{
points = (
{
segmentType = line;
smooth = 0;
x = 353;
y = 1095;
},
{
segmentType = line;
smooth = 1;
x = 721;
y = 1095;
},
{
smooth = 0;
x = 898;
y = 1095;
},
{
smooth = 0;
x = 985;
y = 971;
},
{
segmentType = curve;
smooth = 1;
x = 985;
y = 845;
},
{
smooth = 0;
x = 985;
y = 723;
},
{
smooth = 0;
x = 896;
y = 600;
},
{
segmentType = curve;
smooth = 1;
x = 721;
y = 600;
},
{
segmentType = line;
smooth = 0;
x = 353;
y = 600;
}
);
}
);
lib = {
};
name = R;
unicodes = (
);
width = 1296;
};
};
org.robofab.postScriptHintData = {
};
};
},
{
color = 3;
glyphname = S;
kernLeft = S;
kernRight = S;
layers = (
{
anchors = (
{
name = bottom;
pos = (264,0);
},
{
name = top;
pos = (341,583);
}
);
background = {
shapes = (
{
closed = 1;
nodes = (
(407,-11,o),
(482,54,o),
(482,176,cs),
(482,251,o),
(436,289,o),
(350,302,cs),
(251,317,ls),
(183,327,o),
(149,360,o),
(149,421,cs),
(149,509,o),
(206,569,o),
(323,569,cs),
(437,569,o),
(487,512,o),
(474,424,c),
(500,424,l),
(525,584,l),
(499,584,l),
(483,485,l),
(489,485,l),
(477,549,o),
(426,594,o),
(321,594,cs),
(189,594,o),
(119,518,o),
(119,420,cs),
(119,343,o),
(169,301,o),
(252,288,cs),
(351,273,ls),
(419,263,o),
(452,235,o),
(452,175,cs),
(452,65,o),
(386,14,o),
(274,14,cs),
(133,14,o),
(91,82,o),
(108,190,c),
(82,190,l),
(52,0,l),
(78,0,l),
(94,102,l),
(91,102,l),
(105,34,o),
(158,-11,o),
(275,-11,cs)
);
}
);
};
layerId = "98C086B7-81AA-4491-8494-0C6A76849168";
shapes = (
{
closed = 1;
nodes = (
(407,-11,o),
(482,54,o),
(482,176,cs),
(482,250,o),
(439,288,o),
(353,301,cs),
(254,316,ls),
(186,326,o),
(149,360,o),
(149,421,cs),
(149,509,o),
(206,569,o),
(323,569,cs),
(437,569,o),
(487,512,o),
(474,424,c),
(500,424,l),
(525,584,l),
(499,584,l),
(483,485,l),
(489,485,l),
(477,549,o),
(426,594,o),
(321,594,cs),
(187,594,o),
(119,518,o),
(119,420,cs),
(119,343,o),
(166,302,o),
(249,289,cs),
(348,274,ls),
(416,264,o),
(452,234,o),
(452,175,cs),
(452,65,o),
(386,14,o),
(274,14,cs),
(133,14,o),
(91,82,o),
(108,190,c),
(82,190,l),
(52,0,l),
(78,0,l),
(94,102,l),
(91,102,l),
(105,34,o),
(158,-11,o),
(275,-11,cs)
);
}
);
width = 556;
},
{
anchors = (
{
name = bottom;
pos = (276,0);
},
{
name = top;
pos = (339,583);
}
);
background = {
shapes = (
{
closed = 1;
nodes = (
(443,-10,o),
(544,64,o),
(562,177,cs),
(579,285,o),
(513,347,o),
(426,366,cs),
(325,388,ls),
(277,398,o),
(270,419,o),
(273,441,cs),
(277,464,o),
(299,484,o),
(347,484,cs),
(409,484,o),
(439,456,o),
(439,403,c),
(564,403,l),
(592,583,l),
(462,583,l),
(452,518,l),
(491,518,l),
(457,565,o),
(404,593,o),
(310,593,cs),
(172,593,o),
(80,519,o),
(64,414,cs),
(47,308,o),
(111,240,o),
(189,223,cs),
(290,201,ls),
(338,191,o),
(356,176,o),
(351,143,cs),
(347,119,o),
(325,99,o),
(275,99,cs),
(192,99,o),
(157,134,o),
(159,200,c),
(34,200,l),
(2,0,l),
(132,0,l),
(142,61,l),
(106,81,l),
(141,24,o),
(195,-10,o),
(303,-10,cs)
);
}
);
};
layerId = "EFCDB4D9-E20B-4A8D-9DB5-150AD166B0AE";
shapes = (
{
closed = 1;
nodes = (
(450,-10,o),
(565,76,o),
(565,210,cs),
(565,298,o),
(504,349,o),
(426,366,cs),
(325,388,ls),
(283,397,o),
(272,414,o),
(272,433,cs),
(272,459,o),
(293,484,o),
(347,484,cs),
(409,484,o),
(439,456,o),
(439,403,c),
(564,403,l),
(592,583,l),
(462,583,l),
(452,518,l),
(491,518,l),
(457,565,o),
(404,593,o),
(310,593,cs),
(168,593,o),
(61,510,o),
(61,380,cs),
(61,294,o),
(120,238,o),
(189,223,cs),
(290,201,ls),
(333,192,o),
(352,179,o),
(352,153,cs),
(352,125,o),
(332,99,o),
(275,99,cs),
(192,99,o),
(157,134,o),
(159,200,c),
(34,200,l),
(2,0,l),
(132,0,l),
(142,61,l),
(106,81,l),
(141,24,o),
(195,-10,o),
(303,-10,cs)
);
}
);
width = 574;
},
{
anchors = (
{
name = bottom;
pos = (270,0);
},
{
name = top;
pos = (340,583);
}
);
background = {
anchors = (
{
name = bottom;
pos = (270,0);
},
{
name = top;
pos = (340,583);
}
);
shapes = (
{
closed = 1;
nodes = (
(429,-10,o),
(524,68,o),
(524,197,cs),
(524,280,o),
(472,326,o),
(390,342,cs),
(290,361,ls),
(235,370,o),
(211,394,o),
(211,429,cs),
(211,478,o),
(250,516,o),
(335,516,cs),
(423,516,o),
(463,477,o),
(457,411,c),
(532,411,l),
(559,583,l),
(481,583,l),
(468,506,l),
(490,506,l),
(467,559,o),
(415,593,o),
(316,593,cs),
(178,593,o),
(90,513,o),
(90,395,cs),
(90,312,o),
(143,262,o),
(219,248,cs),
(319,228,ls),
(375,219,o),
(402,200,o),
(402,161,cs),
(402,103,o),
(359,67,o),
(275,67,cs),
(163,67,o),
(124,115,o),
(134,196,c),
(58,196,l),
(27,0,l),
(105,0,l),
(118,76,l),
(99,89,l),
(123,28,o),
(177,-10,o),
(289,-10,cs)
);
}
);
};
layerId = "14AB8F11-4722-4116-93B5-2CBF67C8CE3C";
shapes = (
{
closed = 1;
nodes = (
(429,-10,o),
(524,62,o),
(524,193,cs),
(524,277,o),
(472,326,o),
(390,342,cs),
(280,363,ls),
(225,373,o),
(209,394,o),
(209,424,cs),
(209,475,o),
(256,507,o),
(335,507,cs),
(420,507,o),
(460,477,o),
(457,411,c),
(532,411,l),
(559,583,l),
(481,583,l),
(469,506,l),
(487,506,l),
(467,559,o),
(415,593,o),
(316,593,cs),
(178,593,o),
(90,521,o),
(90,397,cs),
(90,314,o),
(143,262,o),
(219,247,cs),
(329,226,ls),
(383,216,o),
(405,197,o),
(405,159,cs),
(405,106,o),
(359,76,o),
(275,76,cs),
(176,76,o),
(127,115,o),
(133,196,c),
(58,196,l),
(27,0,l),
(105,0,l),
(117,76,l),
(102,89,l),
(123,28,o),
(177,-10,o),
(292,-10,cs)
);
}
);
width = 565;
}
);
unicode = 83;
userData = {
com.typemytype.robofont.layerData = {
b = {
anchors = (
);
components = (
);
contours = (
{
points = (
{
segmentType = curve;
smooth = 1;
x = 636;
y = "-23";
},
{
smooth = 0;
x = 930;
y = "-23";
},
{
smooth = 0;
x = 1026;
y = 171;
},
{
segmentType = curve;
smooth = 1;
x = 1026;
y = 295;
},
{
smooth = 0;
x = 1026;
y = 543;
},
{
smooth = 0;
x = 829;
y = 599;
},
{
segmentType = curve;
smooth = 1;
x = 606;
y = 622;
},
{
smooth = 0;
x = 405;
y = 643;
},
{
smooth = 0;
x = 269;
y = 667;
},
{
segmentType = curve;
smooth = 1;
x = 269;
y = 851;
},
{
smooth = 0;
x = 269;
y = 998;
},
{
smooth = 0;
x = 360;
y = 1104;
},
{
segmentType = curve;
smooth = 1;
x = 573;
y = 1104;
},
{
smooth = 0;
x = 719;
y = 1104;
},
{
smooth = 0;
x = 885;
y = 1024;
},
{
segmentType = curve;
smooth = 1;
x = 885;
y = 941;
},
{
segmentType = line;
smooth = 0;
x = 885;
y = 839;
},
{
segmentType = line;
smooth = 0;
x = 959;
y = 839;
},
{
segmentType = line;
smooth = 0;
x = 959;
y = 1152;
},
{
segmentType = line;
smooth = 0;
x = 885;
y = 1152;
},
{
segmentType = line;
smooth = 0;
x = 885;
y = 1049;
},
{
smooth = 0;
x = 828;
y = 1131;
},
{
smooth = 0;
x = 673;
y = 1172;
},
{
segmentType = curve;
smooth = 1;
x = 561;
y = 1172;
},
{
smooth = 0;
x = 360;
y = 1172;
},
{
smooth = 0;
x = 184;
y = 1066;
},
{
segmentType = curve;
smooth = 1;
x = 184;
y = 863;
},
{
smooth = 0;
x = 184;
y = 635;
},
{
smooth = 0;
x = 332;
y = 579;
},
{
segmentType = curve;
smooth = 1;
x = 584;
y = 553;
},
{
smooth = 0;
x = 805;
y = 531;
},
{
smooth = 0;
x = 942;
y = 488;
},
{
segmentType = curve;
smooth = 1;
x = 942;
y = 300;
},
{
smooth = 0;
x = 942;
y = 169;
},
{
smooth = 0;
x = 831;
y = 47;
},
{
segmentType = curve;
smooth = 1;
x = 644;
y = 47;
},
{
smooth = 0;
x = 448;
y = 47;
},
{
smooth = 0;
x = 261;
y = 118;
},
{
segmentType = curve;
smooth = 1;
x = 261;
y = 247;
},
{
segmentType = line;
smooth = 0;
x = 261;
y = 387;
},
{
segmentType = line;
smooth = 0;
x = 187;
y = 387;
},
{
segmentType = line;
smooth = 0;
x = 187;
y = "-1";
},
{
segmentType = line;
smooth = 0;
x = 261;
y = "-1";
},
{
segmentType = line;
smooth = 0;
x = 261;
y = 122;
},
{
smooth = 0;
x = 335;
y = 22;
},
{
smooth = 0;
x = 496;
y = "-23";
}
);
}
);
lib = {
};
name = S;
unicodes = (
);
width = 1143;
};
};
org.robofab.postScriptHintData = {
};
};
},
{
color = 3;
glyphname = Germandbls;
layers = (
{
background = {
shapes = (
{
closed = 1;
nodes = (
(184,0,l),
(188,23,l),
(123,23,l),
(179,376,ls),
(200,511,o),
(283,570,o),
(400,570,cs),
(472,570,o),
(518,553,o),
(555,525,c),
(562,539,l),
(349,332,l),
(345,310,l),
(387,310,ls),
(497,310,o),
(543,262,o),
(528,166,cs),
(514,77,o),
(461,22,o),
(345,22,cs),
(286,22,l),
(283,0,l),
(343,0,ls),
(476,0,o),
(544,64,o),
(560,166,cs),
(578,281,o),
(510,335,o),
(375,332,c),
(376,327,l),
(574,519,l),
(577,538,l),
(537,571,o),
(483,594,o),
(403,594,cs),
(269,594,o),
(172,524,o),
(148,374,cs),
(93,23,l),
(8,23,l),
(4,0,l)
);
}
);
};
layerId = "98C086B7-81AA-4491-8494-0C6A76849168";
shapes = (
{
closed = 1;
nodes = (
(184,0,l),
(188,23,l),
(123,23,l),
(179,376,ls),
(200,511,o),
(273,570,o),
(395,570,cs),
(472,570,o),
(521,553,o),
(558,524,c),
(561,539,l),
(349,332,l),
(345,310,l),
(378,310,ls),
(497,310,o),
(543,262,o),
(526,156,cs),
(513,72,o),
(461,22,o),
(355,22,cs),
(286,22,l),
(283,0,l),
(353,0,ls),
(485,0,o),
(544,64,o),
(558,156,cs),
(578,281,o),
(500,335,o),
(375,332,c),
(377,327,l),
(574,519,l),
(577,538,l),
(537,571,o),
(483,594,o),
(398,594,cs),
(259,594,o),
(172,524,o),
(148,374,cs),
(93,23,l),
(8,23,l),
(4,0,l)
);
}
);
width = 625;
},
{
background = {
shapes = (
{
closed = 1;
nodes = (
(270,0,l),
(289,120,l),
(259,120,l),
(297,357,ls),
(307,420,o),
(343,453,o),
(400,453,cs),
(438,453,o),
(464,447,o),
(487,433,c),
(486,509,l),
(376,365,l),
(358,251,l),
(379,251,ls),
(426,251,o),
(439,230,o),
(434,193,cs),
(429,162,o),
(404,140,o),
(366,140,cs),
(340,140,l),
(318,0,l),
(404,0,ls),
(532,0,o),
(619,61,o),
(638,180,cs),
(657,300,o),
(586,369,o),
(434,359,c),
(477,279,l),
(599,429,l),
(618,546,l),
(559,576,o),
(481,593,o),
(397,593,cs),
(223,593,o),
(122,520,o),
(100,377,cs),
(59,120,l),
(9,120,l),
(-10,0,l)
);
}
);
};
layerId = "EFCDB4D9-E20B-4A8D-9DB5-150AD166B0AE";
shapes = (
{
closed = 1;
nodes = (
(270,0,l),
(289,120,l),
(259,120,l),
(297,357,ls),
(307,420,o),
(333,453,o),
(400,453,cs),
(438,453,o),
(464,447,o),
(487,433,c),
(486,509,l),
(376,365,l),
(358,251,l),
(379,251,ls),
(416,251,o),
(439,230,o),
(433,188,cs),
(429,162,o),
(408,140,o),
(370,140,cs),
(340,140,l),
(318,0,l),
(408,0,ls),
(542,0,o),
(619,61,o),
(636,170,cs),
(657,300,o),
(577,368,o),
(434,359,c),
(477,279,l),
(599,429,l),
(618,546,l),
(549,576,o),
(471,593,o),
(387,593,cs),
(213,593,o),
(123,520,o),
(100,377,cs),
(59,120,l),
(9,120,l),
(-10,0,l)
);
}
);
width = 661;
},
{
background = {
shapes = (
{
closed = 1;
nodes = (
(227,0,l),
(239,84,l),
(191,84,l),
(238,364,ls),
(254,454,o),
(303,497,o),
(398,497,cs),
(455,497,o),
(493,487,o),
(523,467,c),
(524,520,l),
(363,353,l),
(352,273,l),
(379,273,ls),
(457,273,o),
(491,242,o),
(480,176,cs),
(471,128,o),
(435,96,o),
(363,96,cs),
(313,96,l),
(301,0,l),
(381,0,ls),
(514,0,o),
(582,62,o),
(597,165,cs),
(618,293,o),
(539,356,o),
(405,349,c),
(427,297,l),
(587,463,l),
(598,543,l),
(543,574,o),
(477,593,o),
(393,593,cs),
(236,593,o),
(148,522,o),
(124,376,cs),
(76,84,l),
(9,84,l),
(-3,0,l)
);
}
);
};
layerId = "14AB8F11-4722-4116-93B5-2CBF67C8CE3C";
shapes = (
{
closed = 1;
nodes = (
(228,0,l),
(241,84,l),
(193,84,l),
(237,364,ls),
(251,454,o),
(303,494,o),
(398,494,cs),
(455,494,o),
(493,484,o),
(523,464,c),
(520,520,l),
(360,353,l),
(351,273,l),
(379,273,ls),
(457,273,o),
(491,242,o),
(480,176,cs),
(471,128,o),
(435,96,o),
(363,96,cs),
(313,96,l),
(298,0,l),
(381,0,ls),
(514,0,o),
(582,62,o),
(597,165,cs),
(618,293,o),
(539,356,o),
(405,349,c),
(428,297,l),
(587,463,l),
(600,543,l),
(545,574,o),
(477,593,o),
(393,593,cs),
(236,593,o),
(147,522,o),
(124,376,cs),
(78,84,l),
(11,84,l),
(-2,0,l)
);
}
);
width = 643;
}
);
metricLeft = "=|U";
unicode = 7838;
},
{
color = 3;
glyphname = Schwa;
kernLeft = O;
kernRight = O;
layers = (
{
background = {
shapes = (
{
closed = 1;
nodes = (
(249,594,o),
(172,555,o),
(102,461,c),
(124,445,l),
(188,535,o),
(255,569,o),
(366,569,cs),
(520,569,o),
(613,482,o),
(613,339,cs),
(613,144,o),
(492,15,o),
(311,15,cs),
(193,15,o),
(116,68,o),
(90,161,c),
(67,161,l),
(42,1,l),
(68,1,l),
(90,139,l),
(79,139,l),
(103,47,o),
(191,-10,o),
(309,-10,cs),
(511,-10,o),
(645,129,o),
(645,339,cs),
(645,495,o),
(539,594,o),
(368,594,cs)
);
}
);
};
layerId = "98C086B7-81AA-4491-8494-0C6A76849168";
shapes = (
{
closed = 1;
nodes = (
(511,-10,o),
(645,129,o),
(645,339,cs),
(645,495,o),
(540,594,o),
(372,594,cs),
(253,594,o),
(164,555,o),
(102,461,c),
(124,445,l),
(181,535,o),
(259,569,o),
(370,569,cs),
(521,569,o),
(615,482,o),
(615,339,cs),
(615,144,o),
(492,15,o),
(321,15,cs),
(130,15,o),
(74,131,o),
(92,267,c),
(613,267,l),
(617,289,l),
(64,289,l),
(61,268,o),
(59,248,o),
(59,229,cs),
(59,92,o),
(135,-10,o),
(317,-10,cs)
);
}
);
width = 677;
},
{
background = {
shapes = (
{
closed = 1;
nodes = (
(558,-10,o),
(684,149,o),
(684,324,cs),
(684,489,o),
(567,594,o),
(373,594,cs),
(130,594,o),
(4,435,o),
(4,260,cs),
(4,95,o),
(121,-10,o),
(313,-10,cs)
);
},
{
closed = 1;
nodes = (
(248,130,o),
(210,179,o),
(210,250,cs),
(210,337,o),
(250,454,o),
(361,454,cs),
(440,454,o),
(478,405,o),
(478,334,cs),
(478,247,o),
(437,130,o),
(326,130,cs)
);
}
);
};
layerId = "EFCDB4D9-E20B-4A8D-9DB5-150AD166B0AE";
shapes = (
{
closed = 1;
nodes = (
(542,-10,o),
(684,139,o),
(684,324,cs),
(684,490,o),
(567,594,o),
(383,594,cs),
(253,594,o),
(162,544,o),
(104,470,c),
(241,383,l),
(262,423,o),
(307,454,o),
(361,454,cs),
(445,454,o),
(483,405,o),
(483,334,cs),
(483,237,o),
(442,125,o),
(336,125,cs),
(254,125,o),
(231,177,o),
(238,221,c),
(537,221,l),
(556,341,l),
(49,341,l),
(42,310,o),
(38,279,o),
(38,250,cs),
(38,100,o),
(134,-10,o),
(337,-10,cs)
);
}
);
width = 695;
},
{
background = {
shapes = (
{
closed = 1;
nodes = (
(1425,-10,o),
(1563,135,o),
(1563,330,cs),
(1563,492,o),
(1452,594,o),
(1276,594,cs),
(1151,594,o),
(1061,548,o),
(1001,467,c),
(1081,406,l),
(1120,465,o),
(1181,497,o),
(1264,497,cs),
(1381,497,o),
(1447,434,o),
(1447,336,cs),
(1447,202,o),
(1365,84,o),
(1227,84,cs),
(1090,84,o),
(1051,160,o),
(1063,238,c),
(1473,238,l),
(1485,322,l),
(955,322,l),
(950,294,o),
(947,267,o),
(947,242,cs),
(947,97,o),
(1033,-10,o),
(1225,-10,cs)
);
},
{
closed = 1;
nodes = (
(549,-10,o),
(663,146,o),
(663,320,cs),
(663,490,o),
(541,594,o),
(361,594,cs),
(131,594,o),
(17,438,o),
(17,264,cs),
(17,94,o),
(140,-10,o),
(319,-10,cs)
);
},
{
closed = 1;
nodes = (
(208,89,o),
(136,154,o),
(136,269,cs),
(136,403,o),
(215,495,o),
(355,495,cs),
(473,495,o),
(544,431,o),
(544,315,cs),
(544,181,o),
(465,89,o),
(326,89,cs)
);
}
);
};
layerId = "14AB8F11-4722-4116-93B5-2CBF67C8CE3C";
shapes = (
{
closed = 1;
nodes = (
(525,-10,o),
(663,125,o),
(663,320,cs),
(663,490,o),
(544,594,o),
(373,594,cs),
(240,594,o),
(151,538,o),
(107,475,c),
(181,406,l),
(220,465,o),
(281,497,o),
(367,497,cs),
(472,497,o),
(547,430,o),
(547,310,cs),
(547,202,o),
(484,83,o),
(331,83,cs),
(219,83,o),
(158,130,o),
(165,240,c),
(573,240,l),
(585,320,l),
(55,320,l),
(50,294,o),
(47,267,o),
(47,242,cs),
(47,97,o),
(133,-10,o),
(325,-10,cs)
);
}
);
width = 685;
}
);
metricLeft = O;
metricRight = O;
unicode = 399;
userData = {
org.robofab.postScriptHintData = {
};
};
},
{
color = 3;
glyphname = T;
kernLeft = T;
kernRight = T;
layers = (
{
anchors = (
{
name = bottom;
pos = (252,0);
},
{
name = mid;
pos = (297,278);
},
{
name = top;
pos = (344,583);
}
);
background = {
anchors = (
{
name = bottom;
pos = (252,0);
},
{
name = mid;
pos = (297,278);
},
{
name = top;
pos = (344,583);
}
);
shapes = (
{
closed = 1;
nodes = (
(362,0,l),
(365,22,l),
(270,22,l),
(356,561,l),
(573,561,l),
(548,403,l),
(574,403,l),
(602,583,l),
(86,583,l),
(58,403,l),
(84,403,l),
(109,561,l),
(326,561,l),
(240,22,l),
(145,22,l),
(142,0,l)
);
}
);
};
layerId = "98C086B7-81AA-4491-8494-0C6A76849168";
shapes = (
{
closed = 1;
nodes = (
(362,0,l),
(365,22,l),
(270,22,l),
(356,561,l),
(573,561,l),
(548,403,l),
(574,403,l),
(602,583,l),
(86,583,l),
(58,403,l),
(84,403,l),
(109,561,l),
(326,561,l),
(240,22,l),
(145,22,l),
(142,0,l)
);
}
);
width = 566;
},
{
anchors = (
{
name = bottom;
pos = (293,0);
},
{
name = mid;
pos = (334,259);
},
{
name = top;
pos = (385,583);
}
);
background = {
anchors = (
{
name = bottom;
pos = (325,0);
},
{
name = mid;
pos = (325,259);
},
{
name = top;
pos = (325,583);
}
);
shapes = (
{
closed = 1;
nodes = (
(495,0,l),
(495,120,l),
(425,120,l),
(425,463,l),
(505,463,l),
(505,343,l),
(635,343,l),
(635,583,l),
(15,583,l),
(15,343,l),
(145,343,l),
(145,463,l),
(225,463,l),
(225,120,l),
(155,120,l),
(155,0,l)
);
}
);
};
layerId = "EFCDB4D9-E20B-4A8D-9DB5-150AD166B0AE";
shapes = (
{
closed = 1;
nodes = (
(463,0,l),
(482,120,l),
(412,120,l),
(466,463,l),
(546,463,l),
(527,343,l),
(657,343,l),
(695,583,l),
(75,583,l),
(37,343,l),
(167,343,l),
(186,463,l),
(266,463,l),
(212,120,l),
(142,120,l),
(123,0,l)
);
}
);
width = 650;
},
{
anchors = (
{
name = bottom;
pos = (272,0);
},
{
name = mid;
pos = (314,266);
},
{
name = top;
pos = (365,583);
}
);
background = {
anchors = (
{
name = bottom;
pos = (271,0);
},
{
name = mid;
pos = (314,266);
},
{
name = top;
pos = (363,583);
}
);
shapes = (
{
closed = 1;
nodes = (
(411,0,l),
(422,83,l),
(339,83,l),
(409,500,l),
(558,500,l),
(536,366,l),
(614,366,l),
(647,583,l),
(79,583,l),
(46,366,l),
(124,366,l),
(146,500,l),
(294,500,l),
(224,83,l),
(142,83,l),
(131,0,l)
);
}
);
};
layerId = "14AB8F11-4722-4116-93B5-2CBF67C8CE3C";
shapes = (
{
closed = 1;
nodes = (
(412,0,l),
(425,83,l),
(343,83,l),
(409,500,l),
(554,500,l),
(533,366,l),
(611,366,l),
(645,583,l),
(84,583,l),
(50,366,l),
(128,366,l),
(149,500,l),
(294,500,l),
(228,83,l),
(146,83,l),
(133,0,l)
);
}
);
width = 608;
}
);
metricRight = "=|";
unicode = 84;
userData = {
com.typemytype.robofont.layerData = {
b = {
anchors = (
);
components = (
);
contours = (
);
lib = {
};
name = T;
unicodes = (
);
width = 1147;
};
};
org.robofab.postScriptHintData = {
};
};
},
{
color = 3;
glyphname = U;
kernLeft = U;
kernRight = U;
layers = (
{
anchors = (
{
name = bottom;
pos = (316,0);
},
{
name = ogonek;
pos = (353,0);
},
{
name = top;
pos = (409,583);
},
{
name = topright;
pos = (710,583);
}
);
background = {
anchors = (
{
name = bottom;
pos = (316,0);
},
{
name = ogonek;
pos = (353,0);
},
{
name = top;
pos = (409,583);
},
{
name = topright;
pos = (710,583);
}
);
shapes = (
{
closed = 1;
nodes = (
(451,-11,o),
(551,54,o),
(577,218,cs),
(632,561,l),
(717,561,l),
(720,583,l),
(522,583,l),
(519,561,l),
(604,561,l),
(549,218,ls),
(526,69,o),
(436,13,o),
(318,13,cs),
(200,13,o),
(130,69,o),
(153,218,cs),
(208,561,l),
(293,561,l),
(296,583,l),
(96,583,l),
(93,561,l),
(178,561,l),
(123,218,ls),
(97,54,o),
(177,-11,o),
(314,-11,cs)
);
}
);
};
layerId = "98C086B7-81AA-4491-8494-0C6A76849168";
shapes = (
{
closed = 1;
nodes = (
(473,-11,o),
(553,63,o),
(576,208,cs),
(632,561,l),
(717,561,l),
(720,583,l),
(522,583,l),
(519,561,l),
(604,561,l),
(548,210,ls),
(527,77,o),
(456,13,o),
(331,13,cs),
(186,13,o),
(131,79,o),
(155,228,cs),
(208,561,l),
(293,561,l),
(296,583,l),
(96,583,l),
(93,561,l),
(178,561,l),
(125,228,ls),
(100,68,o),
(167,-11,o),
(331,-11,cs)
);
}
);
width = 694;
},
{
anchors = (
{
name = bottom;
pos = (337,0);
},
{
name = ogonek;
pos = (392,0);
},
{
name = top;
pos = (429,583);
},
{
name = topright;
pos = (708,583);
}
);
background = {
anchors = (
{
name = bottom;
pos = (337,0);
},
{
name = ogonek;
pos = (392,0);
},
{
name = top;
pos = (429,583);
},
{
name = topright;
pos = (708,583);
}
);
shapes = (
{
closed = 1;
nodes = (
(499,-10,o),
(616,77,o),
(643,246,cs),
(677,463,l),
(727,463,l),
(746,583,l),
(476,583,l),
(457,463,l),
(507,463,l),
(472,241,ls),
(460,169,o),
(422,130,o),
(357,130,cs),
(292,130,o),
(266,169,o),
(278,241,cs),
(313,463,l),
(363,463,l),
(382,583,l),
(82,583,l),
(63,463,l),
(113,463,l),
(79,246,ls),
(52,77,o),
(139,-10,o),
(318,-10,cs)
);
}
);
};
layerId = "EFCDB4D9-E20B-4A8D-9DB5-150AD166B0AE";
shapes = (
{
closed = 1;
nodes = (
(529,-10,o),
(617,79,o),
(640,228,cs),
(677,463,l),
(727,463,l),
(746,583,l),
(476,583,l),
(457,463,l),
(507,463,l),
(471,234,ls),
(460,162,o),
(426,130,o),
(369,130,cs),
(299,130,o),
(267,171,o),
(280,253,cs),
(313,463,l),
(363,463,l),
(382,583,l),
(82,583,l),
(63,463,l),
(113,463,l),
(80,256,ls),
(55,97,o),
(149,-10,o),
(348,-10,cs)
);
}
);
width = 708;
},
{
anchors = (
{
name = bottom;
pos = (327,0);
},
{
name = ogonek;
pos = (374,0);
},
{
name = top;
pos = (420,583);
},
{
name = topright;
pos = (710,583);
}
);
background = {
anchors = (
{
name = bottom;
pos = (327,0);
},
{
name = ogonek;
pos = (373,0);
},
{
name = top;
pos = (419,583);
},
{
name = topright;
pos = (709,583);
}
);
shapes = (
{
closed = 1;
nodes = (
(501,-10,o),
(585,73,o),
(608,221,cs),
(655,500,l),
(722,500,l),
(733,583,l),
(499,583,l),
(488,500,l),
(556,500,l),
(510,225,ls),
(494,130,o),
(441,86,o),
(350,86,cs),
(243,86,o),
(199,137,o),
(218,244,cs),
(261,500,l),
(328,500,l),
(339,583,l),
(89,583,l),
(78,500,l),
(146,500,l),
(103,246,ls),
(78,86,o),
(158,-10,o),
(340,-10,cs)
);
}
);
};
layerId = "14AB8F11-4722-4116-93B5-2CBF67C8CE3C";
shapes = (
{
closed = 1;
nodes = (
(505,-10,o),
(586,73,o),
(609,221,cs),
(653,500,l),
(720,500,l),
(733,583,l),
(500,583,l),
(487,500,l),
(554,500,l),
(510,225,ls),
(495,130,o),
(442,86,o),
(351,86,cs),
(244,86,o),
(201,137,o),
(218,242,cs),
(259,500,l),
(326,500,l),
(339,583,l),
(90,583,l),
(77,500,l),
(144,500,l),
(104,246,ls),
(79,86,o),
(164,-10,o),
(340,-10,cs)
);
}
);
width = 701;
}
);
metricRight = "=|";
unicode = 85;
userData = {
com.typemytype.robofont.layerData = {
b = {
anchors = (
);
components = (
);
contours = (
);
lib = {
};
name = U;
unicodes = (
);
width = 1514;
};
};
org.robofab.postScriptHintData = {
};
};
},
{
color = 3;
glyphname = Uhorn;
kernLeft = U;
kernRight = Uhorn;
layers = (
{
anchors = (
{
name = bottom;
pos = (317,0);
},
{
name = top;
pos = (410,583);
}
);
background = {
anchors = (
{
name = bottom;
pos = (369,0);
},
{
name = top;
pos = (370,583);
}
);
shapes = (
{
closed = 1;
nodes = (
(473,-11,o),
(553,63,o),
(576,208,cs),
(632,561,l),
(717,561,l),
(720,583,l),
(522,583,l),
(519,561,l),
(604,561,l),
(548,210,ls),
(527,77,o),
(456,13,o),
(331,13,cs),
(186,13,o),
(131,79,o),
(155,228,cs),
(208,561,l),
(293,561,l),
(296,583,l),
(96,583,l),
(93,561,l),
(178,561,l),
(125,228,ls),
(100,68,o),
(167,-11,o),
(331,-11,cs)
);
}
);
};
layerId = "98C086B7-81AA-4491-8494-0C6A76849168";
shapes = (
{
closed = 1;
nodes = (
(473,-11,o),
(553,63,o),
(576,208,cs),
(632,561,l),
(707,563,o),
(742,610,o),
(752,673,c),
(727,673,l),
(718,616,o),
(691,583,o),
(634,583,cs),
(523,583,l),
(519,561,l),
(604,561,l),
(548,210,ls),
(527,77,o),
(456,13,o),
(331,13,cs),
(186,13,o),
(131,79,o),
(155,228,cs),
(208,561,l),
(293,561,l),
(297,583,l),
(97,583,l),
(93,561,l),
(178,561,l),
(125,228,ls),
(100,68,o),
(167,-11,o),
(331,-11,cs)
);
}
);
width = 694;
},
{
anchors = (
{
name = bottom;
pos = (337,0);
},
{
name = top;
pos = (429,583);
}
);
background = {
anchors = (
{
name = bottom;
pos = (390,0);
},
{
name = top;
pos = (390,583);
}
);
shapes = (
{
closed = 1;
nodes = (
(529,-10,o),
(617,79,o),
(640,228,cs),
(677,463,l),
(727,463,l),
(746,583,l),
(476,583,l),
(457,463,l),
(507,463,l),
(471,234,ls),
(460,162,o),
(426,130,o),
(369,130,cs),
(299,130,o),
(267,171,o),
(280,253,cs),
(313,463,l),
(363,463,l),
(382,583,l),
(82,583,l),
(63,463,l),
(113,463,l),
(80,256,ls),
(55,97,o),
(149,-10,o),
(348,-10,cs)
);
}
);
};
layerId = "EFCDB4D9-E20B-4A8D-9DB5-150AD166B0AE";
metricWidth = "=U+40";
shapes = (
{
closed = 1;
nodes = (
(529,-10,o),
(617,79,o),
(640,228,cs),
(677,463,l),
(769,477,o),
(840,530,o),
(865,683,c),
(731,683,l),
(719,607,o),
(686,583,o),
(633,583,cs),
(476,583,l),
(457,463,l),
(507,463,l),
(471,234,ls),
(460,162,o),
(426,130,o),
(369,130,cs),
(299,130,o),
(267,171,o),
(280,253,cs),
(313,463,l),
(363,463,l),
(382,583,l),
(82,583,l),
(63,463,l),
(113,463,l),
(80,256,ls),
(55,97,o),
(149,-10,o),
(348,-10,cs)
);
}
);
width = 748;
},
{
anchors = (
{
name = bottom;
pos = (327,0);
},
{
name = top;
pos = (420,583);
}
);
background = {
anchors = (
{
name = bottom;
pos = (327,0);
},
{
name = top;
pos = (420,583);
}
);
shapes = (
{
closed = 1;
nodes = (
(1401,-10,o),
(1485,73,o),
(1508,221,cs),
(1555,500,l),
(1638,509,o),
(1691,560,o),
(1709,679,c),
(1629,679,l),
(1619,610,o),
(1589,583,o),
(1534,583,cs),
(1400,583,l),
(1388,500,l),
(1456,500,l),
(1410,225,ls),
(1394,130,o),
(1341,86,o),
(1250,86,cs),
(1143,86,o),
(1099,137,o),
(1118,244,cs),
(1161,500,l),
(1228,500,l),
(1240,583,l),
(990,583,l),
(978,500,l),
(1046,500,l),
(1003,246,ls),
(978,86,o),
(1058,-10,o),
(1240,-10,cs)
);
},
{
closed = 1;
nodes = (
(505,-10,o),
(586,73,o),
(609,221,cs),
(653,500,l),
(720,500,l),
(733,583,l),
(500,583,l),
(487,500,l),
(554,500,l),
(510,225,ls),
(495,130,o),
(442,86,o),
(351,86,cs),
(244,86,o),
(201,137,o),
(218,242,cs),
(259,500,l),
(326,500,l),
(339,583,l),
(90,583,l),
(77,500,l),
(144,500,l),
(104,246,ls),
(79,86,o),
(164,-10,o),
(340,-10,cs)
);
}
);
};
layerId = "14AB8F11-4722-4116-93B5-2CBF67C8CE3C";
shapes = (
{
closed = 1;
nodes = (
(505,-10,o),
(586,73,o),
(609,221,cs),
(653,500,l),
(736,509,o),
(791,560,o),
(809,679,c),
(729,679,l),
(719,610,o),
(689,583,o),
(634,583,cs),
(500,583,l),
(487,500,l),
(554,500,l),
(510,225,ls),
(495,130,o),
(442,86,o),
(351,86,cs),
(244,86,o),
(201,137,o),
(218,242,cs),
(259,500,l),
(326,500,l),
(339,583,l),
(90,583,l),
(77,500,l),
(144,500,l),
(104,246,ls),
(79,86,o),
(164,-10,o),
(340,-10,cs)
);
}
);
width = 701;
}
);
metricLeft = U;
metricWidth = U;
unicode = 431;
},
{
color = 3;
glyphname = V;
kernLeft = V;
kernRight = V;
layers = (
{
background = {
shapes = (
{
closed = 1;
nodes = (
(314,0,l),
(520,561,l),
(595,561,l),
(595,583,l),
(411,583,l),
(411,561,l),
(491,561,l),
(294,18,l),
(309,18,l),
(112,561,l),
(192,561,l),
(192,583,l),
(6,583,l),
(6,561,l),
(81,561,l),
(287,0,l)
);
}
);
};
layerId = "98C086B7-81AA-4491-8494-0C6A76849168";
shapes = (
{
closed = 1;
nodes = (
(283,0,l),
(578,561,l),
(653,561,l),
(656,583,l),
(470,583,l),
(467,561,l),
(547,561,l),
(264,18,l),
(280,18,l),
(169,561,l),
(249,561,l),
(252,583,l),
(67,583,l),
(64,561,l),
(139,561,l),
(256,0,l)
);
}
);
width = 601;
},
{
background = {
shapes = (
{
closed = 1;
nodes = (
(456,0,l),
(627,463,l),
(677,463,l),
(677,583,l),
(375,583,l),
(375,463,l),
(430,463,l),
(332,149,l),
(358,149,l),
(260,463,l),
(315,463,l),
(315,583,l),
(0,583,l),
(0,463,l),
(50,463,l),
(221,0,l)
);
}
);
};
layerId = "EFCDB4D9-E20B-4A8D-9DB5-150AD166B0AE";
shapes = (
{
closed = 1;
nodes = (
(424,0,l),
(668,463,l),
(718,463,l),
(737,583,l),
(430,583,l),
(411,463,l),
(466,463,l),
(318,149,l),
(344,149,l),
(296,463,l),
(351,463,l),
(370,583,l),
(60,583,l),
(41,463,l),
(91,463,l),
(189,0,l)
);
}
);
width = 677;
},
{
background = {
shapes = (
{
closed = 1;
nodes = (
(354,0,l),
(623,500,l),
(686,500,l),
(697,583,l),
(450,583,l),
(439,500,l),
(507,500,l),
(291,100,l),
(312,100,l),
(233,500,l),
(300,500,l),
(311,583,l),
(64,583,l),
(53,500,l),
(115,500,l),
(223,0,l)
);
}
);
};
layerId = "14AB8F11-4722-4116-93B5-2CBF67C8CE3C";
shapes = (
{
closed = 1;
nodes = (
(354,0,l),
(620,500,l),
(683,500,l),
(696,583,l),
(449,583,l),
(436,500,l),
(504,500,l),
(293,100,l),
(317,100,l),
(234,500,l),
(302,500,l),
(315,583,l),
(66,583,l),
(53,500,l),
(116,500,l),
(223,0,l)
);
}
);
width = 640;
}
);
metricRight = "=|";
unicode = 86;
userData = {
com.typemytype.robofont.layerData = {
b = {
anchors = (
);
components = (
);
contours = (
);
lib = {
};
name = V;
unicodes = (
);
width = 1228;
};
};
org.robofab.postScriptHintData = {
};
};
},
{
color = 3;
glyphname = W;
kernLeft = V;
kernRight = V;
layers = (
{
anchors = (
{
name = top;
pos = (543,583);
}
);
background = {
shapes = (
{
closed = 1;
nodes = (
(265,0,l),
(538,501,l),
(525,501,l),
(640,0,l),
(666,0,l),
(931,561,l),
(1006,561,l),
(1009,583,l),
(825,583,l),
(822,561,l),
(902,561,l),
(650,18,l),
(664,18,l),
(548,534,l),
(526,534,l),
(248,18,l),
(263,18,l),
(182,561,l),
(262,561,l),
(265,583,l),
(79,583,l),
(76,561,l),
(151,561,l),
(238,0,l)
);
}
);
};
layerId = "98C086B7-81AA-4491-8494-0C6A76849168";
shapes = (
{
closed = 1;
nodes = (
(265,0,l),
(538,501,l),
(525,501,l),
(640,0,l),
(666,0,l),
(931,561,l),
(1006,561,l),
(1009,583,l),
(823,583,l),
(820,561,l),
(900,561,l),
(647,18,l),
(662,18,l),
(546,534,l),
(527,534,l),
(247,18,l),
(261,18,l),
(180,561,l),
(260,561,l),
(263,583,l),
(79,583,l),
(76,561,l),
(151,561,l),
(238,0,l)
);
}
);
width = 966;
},
{
anchors = (
{
name = top;
pos = (536,583);
}
);
background = {
anchors = (
{
name = top;
pos = (482,583);
}
);
shapes = (
{
closed = 1;
nodes = (
(405,0,l),
(497,311,l),
(462,311,l),
(564,0,l),
(775,0,l),
(899,463,l),
(950,463,l),
(950,583,l),
(653,583,l),
(653,463,l),
(708,463,l),
(651,149,l),
(677,149,l),
(566,533,l),
(397,533,l),
(285,149,l),
(311,149,l),
(255,463,l),
(310,463,l),
(310,583,l),
(0,583,l),
(0,463,l),
(50,463,l),
(174,0,l)
);
}
);
};
layerId = "EFCDB4D9-E20B-4A8D-9DB5-150AD166B0AE";
shapes = (
{
closed = 1;
nodes = (
(373,0,l),
(510,311,l),
(475,311,l),
(532,0,l),
(743,0,l),
(940,463,l),
(991,463,l),
(1010,583,l),
(709,583,l),
(690,463,l),
(745,463,l),
(638,149,l),
(667,149,l),
(610,533,l),
(441,533,l),
(272,149,l),
(301,149,l),
(292,463,l),
(347,463,l),
(366,583,l),
(60,583,l),
(41,463,l),
(91,463,l),
(142,0,l)
);
}
);
width = 950;
},
{
anchors = (
{
name = top;
pos = (542,583);
}
);
background = {
anchors = (
{
name = top;
pos = (540,583);
}
);
shapes = (
{
closed = 1;
nodes = (
(319,0,l),
(524,382,l),
(500,382,l),
(586,0,l),
(705,0,l),
(936,500,l),
(999,500,l),
(1010,583,l),
(766,583,l),
(755,500,l),
(823,500,l),
(643,100,l),
(665,100,l),
(578,533,l),
(484,533,l),
(260,100,l),
(281,100,l),
(236,500,l),
(304,500,l),
(315,583,l),
(70,583,l),
(59,500,l),
(121,500,l),
(190,0,l)
);
}
);
};
layerId = "14AB8F11-4722-4116-93B5-2CBF67C8CE3C";
shapes = (
{
closed = 1;
nodes = (
(319,0,l),
(517,382,l),
(502,382,l),
(586,0,l),
(705,0,l),
(934,500,l),
(997,500,l),
(1010,583,l),
(766,583,l),
(753,500,l),
(821,500,l),
(643,100,l),
(667,100,l),
(579,533,l),
(483,533,l),
(260,100,l),
(286,100,l),
(237,500,l),
(305,500,l),
(318,583,l),
(72,583,l),
(59,500,l),
(122,500,l),
(190,0,l)
);
}
);
width = 960;
}
);
metricRight = "=|";
unicode = 87;
userData = {
com.typemytype.robofont.layerData = {
b = {
anchors = (
);
components = (
);
contours = (
);
lib = {
};
name = W;
unicodes = (
);
width = 1962;
};
};
org.robofab.postScriptHintData = {
};
};
},
{
color = 3;
glyphname = X;
kernLeft = X;
kernRight = X;
layers = (
{
background = {
shapes = (
{
closed = 1;
nodes = (
(170,0,l),
(173,22,l),
(93,22,l),
(526,561,l),
(601,561,l),
(604,583,l),
(417,583,l),
(414,561,l),
(494,561,l),
(61,22,l),
(-14,22,l),
(-17,0,l)
);
},
{
closed = 1;
nodes = (
(422,22,l),
(342,22,l),
(339,0,l),
(523,0,l),
(526,22,l),
(451,22,l),
(188,561,l),
(268,561,l),
(271,583,l),
(87,583,l),
(84,561,l),
(159,561,l)
);
}
);
};
guides = (
{
angle = 122.8479;
pos = (290,292);
},
{
angle = 122.8479;
pos = (318,292);
},
{
angle = 57.1521;
pos = (279,292);
},
{
angle = 237.1521;
pos = (309,292);
}
);
layerId = "98C086B7-81AA-4491-8494-0C6A76849168";
shapes = (
{
closed = 1;
nodes = (
(170,0,l),
(173,22,l),
(93,22,l),
(306,288,l),
(294,284,l),
(422,22,l),
(342,22,l),
(339,0,l),
(523,0,l),
(526,22,l),
(451,22,l),
(312,307,l),
(309,289,l),
(526,561,l),
(601,561,l),
(604,583,l),
(417,583,l),
(414,561,l),
(494,561,l),
(294,310,l),
(308,315,l),
(188,561,l),
(268,561,l),
(271,583,l),
(87,583,l),
(84,561,l),
(159,561,l),
(289,296,l),
(291,309,l),
(61,22,l),
(-14,22,l),
(-17,0,l)
);
}
);
width = 596;
},
{
background = {
shapes = (
{
closed = 1;
nodes = (
(322,227,l),
(407,120,l),
(362,120,l),
(343,0,l),
(676,0,l),
(695,120,l),
(655,120,l),
(500,304,l),
(449,341,l),
(348,463,l),
(393,463,l),
(412,583,l),
(79,583,l),
(60,463,l),
(100,463,l),
(258,279,l)
);
},
{
closed = 1;
nodes = (
(269,0,l),
(288,120,l),
(243,120,l),
(385,271,l),
(468,228,l),
(699,463,l),
(739,463,l),
(758,583,l),
(465,583,l),
(446,463,l),
(491,463,l),
(349,312,l),
(266,355,l),
(34,120,l),
(-6,120,l),
(-25,0,l)
);
}
);
};
guides = (
{
angle = 135.1617;
pos = (467,292);
},
{
angle = 135.1666;
pos = (249,292);
}
);
layerId = "EFCDB4D9-E20B-4A8D-9DB5-150AD166B0AE";
shapes = (
{
closed = 1;
nodes = (
(273,0,l),
(292,120,l),
(247,120,l),
(387,271,l),
(324,227,l),
(411,120,l),
(366,120,l),
(347,0,l),
(676,0,l),
(695,120,l),
(655,120,l),
(502,304,l),
(470,228,l),
(699,463,l),
(739,463,l),
(758,583,l),
(461,583,l),
(442,463,l),
(487,463,l),
(347,312,l),
(447,341,l),
(344,463,l),
(389,463,l),
(408,583,l),
(79,583,l),
(60,463,l),
(100,463,l),
(260,279,l),
(264,355,l),
(34,120,l),
(-6,120,l),
(-25,0,l)
);
}
);
width = 715;
},
{
background = {
shapes = (
{
closed = 1;
nodes = (
(226,0,l),
(239,83,l),
(176,83,l),
(325,254,l),
(307,253,l),
(423,83,l),
(360,83,l),
(347,0,l),
(604,0,l),
(617,83,l),
(559,83,l),
(417,291,l),
(396,246,l),
(619,500,l),
(677,500,l),
(690,583,l),
(447,583,l),
(434,500,l),
(497,500,l),
(331,306,l),
(382,341,l),
(272,500,l),
(335,500,l),
(348,583,l),
(91,583,l),
(78,500,l),
(136,500,l),
(273,302,l),
(284,343,l),
(54,83,l),
(-4,83,l),
(-17,0,l)
);
}
);
};
guides = (
{
angle = 124.5377;
pos = (280,292);
},
{
angle = 124.5377;
pos = (416,292);
},
{
angle = 43.2683;
pos = (276,292);
},
{
angle = 43.2683;
pos = (398,292);
}
);
layerId = "14AB8F11-4722-4116-93B5-2CBF67C8CE3C";
shapes = (
{
closed = 1;
nodes = (
(226,0,l),
(239,83,l),
(176,83,l),
(334,243,l),
(307,253,l),
(423,83,l),
(360,83,l),
(347,0,l),
(604,0,l),
(617,83,l),
(559,83,l),
(399,318,l),
(388,273,l),
(619,500,l),
(677,500,l),
(690,583,l),
(447,583,l),
(434,500,l),
(497,500,l),
(345,348,l),
(382,341,l),
(272,500,l),
(335,500,l),
(348,583,l),
(91,583,l),
(78,500,l),
(136,500,l),
(287,281,l),
(297,322,l),
(54,83,l),
(-4,83,l),
(-17,0,l)
);
}
);
width = 656;
}
);
unicode = 88;
userData = {
com.typemytype.robofont.layerData = {
b = {
anchors = (
);
components = (
);
contours = (
);
lib = {
};
name = X;
unicodes = (
);
width = 1293;
};
};
org.robofab.postScriptHintData = {
};
};
},
{
color = 3;
glyphname = Y;
kernLeft = Y;
kernRight = Y;
layers = (
{
anchors = (
{
name = bottom;
pos = (268,0);
},
{
name = top;
pos = (358,583);
}
);
background = {
shapes = (
{
closed = 1;
nodes = (
(378,0,l),
(381,22,l),
(286,22,l),
(322,247,l),
(581,561,l),
(656,561,l),
(659,583,l),
(471,583,l),
(468,561,l),
(548,561,l),
(301,260,l),
(316,260,l),
(163,561,l),
(243,561,l),
(246,583,l),
(61,583,l),
(58,561,l),
(133,561,l),
(292,247,l),
(256,22,l),
(161,22,l),
(158,0,l)
);
}
);
};
layerId = "98C086B7-81AA-4491-8494-0C6A76849168";
shapes = (
{
closed = 1;
nodes = (
(378,0,l),
(381,22,l),
(286,22,l),
(322,247,l),
(581,561,l),
(656,561,l),
(659,583,l),
(471,583,l),
(468,561,l),
(548,561,l),
(301,260,l),
(316,261,l),
(163,561,l),
(243,561,l),
(246,583,l),
(61,583,l),
(58,561,l),
(133,561,l),
(292,249,l),
(256,22,l),
(161,22,l),
(158,0,l)
);
}
);
width = 598;
},
{
anchors = (
{
name = bottom;
pos = (302,0);
},
{
name = top;
pos = (389,583);
}
);
background = {
shapes = (
{
closed = 1;
nodes = (
(462,0,l),
(481,120,l),
(421,120,l),
(436,217,l),
(659,463,l),
(709,463,l),
(728,583,l),
(420,583,l),
(401,463,l),
(460,463,l),
(322,307,l),
(377,307,l),
(288,463,l),
(347,463,l),
(366,583,l),
(60,583,l),
(41,463,l),
(91,463,l),
(236,217,l),
(221,120,l),
(161,120,l),
(142,0,l)
);
}
);
};
layerId = "EFCDB4D9-E20B-4A8D-9DB5-150AD166B0AE";
shapes = (
{
closed = 1;
nodes = (
(462,0,l),
(481,120,l),
(421,120,l),
(436,217,l),
(659,463,l),
(709,463,l),
(728,583,l),
(420,583,l),
(401,463,l),
(460,463,l),
(322,307,l),
(378,310,l),
(288,463,l),
(347,463,l),
(366,583,l),
(60,583,l),
(41,463,l),
(91,463,l),
(237,220,l),
(221,120,l),
(161,120,l),
(142,0,l)
);
}
);
width = 668;
},
{
anchors = (
{
name = bottom;
pos = (283,0);
},
{
name = top;
pos = (372,583);
}
);
background = {
anchors = (
{
name = bottom;
pos = (283,0);
},
{
name = top;
pos = (372,583);
}
);
shapes = (
{
closed = 1;
nodes = (
(418,0,l),
(429,83,l),
(352,83,l),
(377,228,l),
(618,500,l),
(681,500,l),
(692,583,l),
(444,583,l),
(433,500,l),
(502,500,l),
(310,289,l),
(345,292,l),
(224,500,l),
(293,500,l),
(304,583,l),
(59,583,l),
(48,500,l),
(110,500,l),
(263,231,l),
(237,83,l),
(159,83,l),
(148,0,l)
);
}
);
};
layerId = "14AB8F11-4722-4116-93B5-2CBF67C8CE3C";
shapes = (
{
closed = 1;
nodes = (
(418,0,l),
(431,83,l),
(354,83,l),
(377,228,l),
(617,500,l),
(680,500,l),
(693,583,l),
(444,583,l),
(431,500,l),
(501,500,l),
(314,289,l),
(341,292,l),
(225,500,l),
(295,500,l),
(308,583,l),
(61,583,l),
(48,500,l),
(111,500,l),
(262,231,l),
(239,83,l),
(161,83,l),
(148,0,l)
);
}
);
width = 632;
}
);
metricRight = "=|";
unicode = 89;
userData = {
com.typemytype.robofont.layerData = {
b = {
anchors = (
);
components = (
);
contours = (
);
lib = {
};
name = Y;
unicodes = (
);
width = 1254;
};
};
org.robofab.postScriptHintData = {
};
};
},
{
color = 3;
glyphname = Z;
kernLeft = Z;
kernRight = Z;
layers = (
{
anchors = (
{
name = bottom;
pos = (276,0);
},
{
name = top;
pos = (369,583);
}
);
background = {
anchors = (
{
name = bottom;
pos = (276,0);
},
{
name = top;
pos = (369,583);
}
);
shapes = (
{
closed = 1;
nodes = (
(507,0,l),
(539,200,l),
(513,200,l),
(484,22,l),
(85,22,l),
(583,563,l),
(586,583,l),
(151,583,l),
(123,403,l),
(149,403,l),
(174,561,l),
(546,561,l),
(48,20,l),
(45,0,l)
);
}
);
};
layerId = "98C086B7-81AA-4491-8494-0C6A76849168";
shapes = (
{
closed = 1;
nodes = (
(507,0,l),
(539,200,l),
(513,200,l),
(484,22,l),
(87,22,l),
(583,563,l),
(586,583,l),
(151,583,l),
(123,403,l),
(149,403,l),
(174,561,l),
(544,561,l),
(48,20,l),
(45,0,l)
);
}
);
width = 591;
},
{
anchors = (
{
name = bottom;
pos = (268,0);
},
{
name = top;
pos = (354,583);
}
);
background = {
shapes = (
{
closed = 1;
nodes = (
(537,0,l),
(578,260,l),
(448,260,l),
(426,120,l),
(267,120,l),
(595,493,l),
(609,583,l),
(98,583,l),
(60,343,l),
(190,343,l),
(209,463,l),
(340,463,l),
(12,90,l),
(-2,0,l)
);
}
);
};
layerId = "EFCDB4D9-E20B-4A8D-9DB5-150AD166B0AE";
shapes = (
{
closed = 1;
nodes = (
(537,0,l),
(578,260,l),
(448,260,l),
(426,120,l),
(271,120,l),
(595,493,l),
(609,583,l),
(98,583,l),
(60,343,l),
(190,343,l),
(209,463,l),
(336,463,l),
(12,90,l),
(-2,0,l)
);
}
);
width = 593;
},
{
anchors = (
{
name = bottom;
pos = (272,0);
},
{
name = top;
pos = (362,583);
}
);
background = {
anchors = (
{
name = bottom;
pos = (272,0);
},
{
name = top;
pos = (362,583);
}
);
shapes = (
{
closed = 1;
nodes = (
(522,0,l),
(559,238,l),
(481,238,l),
(455,83,l),
(179,83,l),
(589,519,l),
(598,583,l),
(125,583,l),
(92,366,l),
(170,366,l),
(192,500,l),
(440,500,l),
(30,64,l),
(22,0,l)
);
}
);
};
layerId = "14AB8F11-4722-4116-93B5-2CBF67C8CE3C";
shapes = (
{
closed = 1;
nodes = (
(521,0,l),
(559,238,l),
(478,238,l),
(453,83,l),
(194,83,l),
(589,519,l),
(598,583,l),
(125,583,l),
(91,366,l),
(172,366,l),
(193,500,l),
(425,500,l),
(30,64,l),
(20,0,l)
);
}
);
width = 592;
}
);
unicode = 90;
userData = {
com.typemytype.robofont.layerData = {
b = {
anchors = (
);
components = (
);
contours = (
);
lib = {
};
name = Z;
unicodes = (
);
width = 1241;
};
};
org.robofab.postScriptHintData = {
};
};
},
{
color = 3;
glyphname = a;
kernLeft = o;
kernRight = u;
layers = (
{
anchors = (
{
name = bottom;
pos = (226,0);
},
{
name = ogonek;
pos = (423,0);
},
{
name = top;
pos = (289,393);
}
);
background = {
shapes = (
{
closed = 1;
nodes = (
(273,-10,o),
(339,32,o),
(376,99,c),
(374,105,l),
(369,75,ls),
(361,25,o),
(375,0,o),
(427,0,cs),
(461,0,l),
(465,22,l),
(432,22,ls),
(397,22,o),
(391,32,o),
(398,75,cs),
(450,403,l),
(421,403,l),
(411,343,l),
(416,345,l),
(389,375,o),
(333,403,o),
(263,403,cs),
(111,403,o),
(45,283,o),
(45,154,cs),
(45,54,o),
(103,-10,o),
(199,-10,cs)
);
},
{
closed = 1;
nodes = (
(120,13,o),
(74,65,o),
(74,156,cs),
(74,270,o),
(130,380,o),
(264,380,cs),
(331,380,o),
(383,356,o),
(411,324,c),
(410,336,l),
(377,125,l),
(382,141,l),
(341,58,o),
(271,13,o),
(203,13,cs)
);
}
);
};
guides = (
{
angle = 81;
pos = (405,303);
},
{
angle = 81;
pos = (435,303);
}
);
layerId = "98C086B7-81AA-4491-8494-0C6A76849168";
shapes = (
{
closed = 1;
nodes = (
(273,-10,o),
(339,32,o),
(376,99,c),
(374,105,l),
(369,75,ls),
(361,25,o),
(375,0,o),
(427,0,cs),
(461,0,l),
(465,22,l),
(432,22,ls),
(397,22,o),
(391,32,o),
(398,75,cs),
(448,393,l),
(419,393,l),
(411,343,l),
(416,345,l),
(389,375,o),
(333,403,o),
(263,403,cs),
(111,403,o),
(45,283,o),
(45,154,cs),
(45,54,o),
(103,-10,o),
(199,-10,cs)
);
},
{
closed = 1;
nodes = (
(120,13,o),
(74,65,o),
(74,156,cs),
(74,270,o),
(130,380,o),
(264,380,cs),
(331,380,o),
(383,356,o),
(411,324,c),
(410,336,l),
(377,125,l),
(382,141,l),
(341,58,o),
(271,13,o),
(203,13,cs)
);
}
);
width = 512;
},
{
anchors = (
{
name = bottom;
pos = (246,0);
},
{
name = ogonek;
pos = (437,0);
},
{
name = top;
pos = (308,403);
}
);
background = {
shapes = (
{
closed = 1;
nodes = (
(229,-10,o),
(289,15,o),
(326,99,c),
(304,134,l),
(302,120,ls),
(292,53,o),
(331,0,o),
(426,0,cs),
(504,0,l),
(521,110,l),
(505,110,ls),
(487,110,o),
(477,119,o),
(481,145,cs),
(524,413,l),
(348,413,l),
(335,332,l),
(355,357,l),
(331,393,o),
(283,413,o),
(231,413,cs),
(85,413,o),
(19,299,o),
(19,166,cs),
(19,73,o),
(70,-10,o),
(178,-10,cs)
);
},
{
closed = 1;
nodes = (
(207,120,o),
(189,141,o),
(189,179,cs),
(189,244,o),
(222,283,o),
(275,283,cs),
(289,283,o),
(313,280,o),
(328,270,c),
(330,297,l),
(308,157,l),
(322,195,l),
(303,145,o),
(271,120,o),
(240,120,cs)
);
}
);
};
guides = (
{
angle = 81;
pos = (331,303);
}
);
layerId = "EFCDB4D9-E20B-4A8D-9DB5-150AD166B0AE";
shapes = (
{
closed = 1;
nodes = (
(229,-10,o),
(289,15,o),
(326,99,c),
(304,134,l),
(302,120,ls),
(292,53,o),
(331,0,o),
(426,0,cs),
(504,0,l),
(521,110,l),
(505,110,ls),
(487,110,o),
(477,119,o),
(481,145,cs),
(522,403,l),
(362,403,l),
(351,332,l),
(365,350,l),
(339,390,o),
(287,413,o),
(231,413,cs),
(85,413,o),
(19,299,o),
(19,166,cs),
(19,73,o),
(70,-10,o),
(178,-10,cs)
);
},
{
closed = 1;
nodes = (
(207,120,o),
(189,141,o),
(189,179,cs),
(189,244,o),
(222,283,o),
(275,283,cs),
(289,283,o),
(313,280,o),
(328,270,c),
(330,297,l),
(308,157,l),
(322,195,l),
(303,145,o),
(271,120,o),
(240,120,cs)
);
}
);
width = 547;
},
{
anchors = (
{
name = bottom;
pos = (236,0);
},
{
name = ogonek;
pos = (430,0);
},
{
name = top;
pos = (299,399);
}
);
background = {
anchors = (
{
name = bottom;
pos = (1036,0);
},
{
name = ogonek;
pos = (1230,0);
},
{
name = top;
pos = (1099,399);
}
);
shapes = (
{
closed = 1;
nodes = (
(1051,-10,o),
(1114,21,o),
(1151,99,c),
(1139,123,l),
(1136,103,ls),
(1127,43,o),
(1153,0,o),
(1227,0,cs),
(1283,0,l),
(1293,77,l),
(1269,77,ls),
(1242,77,o),
(1234,86,o),
(1240,119,cs),
(1285,399,l),
(1191,399,l),
(1181,336,l),
(1191,348,l),
(1164,384,o),
(1110,409,o),
(1047,409,cs),
(898,409,o),
(832,293,o),
(832,162,cs),
(832,66,o),
(887,-10,o),
(989,-10,cs)
);
},
{
closed = 1;
nodes = (
(964,80,o),
(932,113,o),
(932,170,cs),
(932,254,o),
(976,319,o),
(1070,319,cs),
(1110,319,o),
(1148,309,o),
(1170,290,c),
(1170,312,l),
(1143,145,l),
(1152,175,l),
(1122,112,o),
(1071,80,o),
(1022,80,cs)
);
},
{
closed = 1;
nodes = (
(256,-10,o),
(323,25,o),
(350,99,c),
(338,123,l),
(335,103,ls),
(326,43,o),
(352,0,o),
(426,0,cs),
(481,0,l),
(493,77,l),
(468,77,ls),
(442,77,o),
(434,86,o),
(439,117,cs),
(513,583,l),
(344,583,l),
(332,506,l),
(399,506,l),
(372,336,l),
(385,352,l),
(359,387,o),
(310,409,o),
(255,409,cs),
(115,409,o),
(31,300,o),
(31,165,cs),
(31,58,o),
(97,-10,o),
(192,-10,cs)
);
},
{
closed = 1;
nodes = (
(163,80,o),
(130,115,o),
(130,172,cs),
(130,264,o),
(183,319,o),
(265,319,cs),
(306,319,o),
(345,309,o),
(369,290,c),
(368,312,l),
(341,144,l),
(351,179,l),
(321,112,o),
(270,80,o),
(219,80,cs)
);
}
);
};
layerId = "14AB8F11-4722-4116-93B5-2CBF67C8CE3C";
shapes = (
{
closed = 1;
nodes = (
(256,-10,o),
(323,25,o),
(350,99,c),
(338,123,l),
(335,103,ls),
(326,43,o),
(352,0,o),
(426,0,cs),
(481,0,l),
(493,77,l),
(468,77,ls),
(442,77,o),
(434,86,o),
(439,117,cs),
(484,399,l),
(390,399,l),
(380,336,l),
(390,347,l),
(358,388,o),
(310,409,o),
(255,409,cs),
(115,409,o),
(31,300,o),
(31,165,cs),
(31,58,o),
(97,-10,o),
(192,-10,cs)
);
},
{
closed = 1;
nodes = (
(163,80,o),
(130,115,o),
(130,172,cs),
(130,264,o),
(183,319,o),
(275,319,cs),
(306,319,o),
(345,309,o),
(369,290,c),
(368,312,l),
(341,144,l),
(351,179,l),
(321,112,o),
(270,80,o),
(219,80,cs)
);
}
);
width = 528;
}
);
metricLeft = o;
metricRight = l;
unicode = 97;
userData = {
com.typemytype.robofont.layerData = {
b = {
anchors = (
);
components = (
);
contours = (
{
points = (
{
segmentType = curve;
smooth = 1;
x = 391;
y = "-14";
},
{
smooth = 0;
x = 507;
y = "-14";
},
{
smooth = 0;
x = 593;
y = 21;
},
{
segmentType = curve;
smooth = 0;
x = 687;
y = 91;
},
{
segmentType = line;
smooth = 0;
x = 703;
y = "-1";
},
{
segmentType = line;
smooth = 0;
x = 890;
y = "-1";
},
{
segmentType = line;
smooth = 0;
x = 890;
y = 57;
},
{
segmentType = line;
smooth = 0;
x = 764;
y = 57;
},
{
segmentType = line;
smooth = 1;
x = 764;
y = 569;
},
{
smooth = 0;
x = 764;
y = 672;
},
{
smooth = 0;
x = 710;
y = 819;
},
{
segmentType = curve;
smooth = 1;
x = 461;
y = 819;
},
{
smooth = 0;
x = 332;
y = 819;
},
{
smooth = 0;
x = 226;
y = 792;
},
{
segmentType = curve;
smooth = 0;
x = 155;
y = 724;
},
{
segmentType = line;
smooth = 0;
x = 190;
y = 668;
},
{
smooth = 0;
x = 247;
y = 726;
},
{
smooth = 0;
x = 339;
y = 755;
},
{
segmentType = curve;
smooth = 1;
x = 459;
y = 755;
},
{
smooth = 0;
x = 600;
y = 755;
},
{
smooth = 0;
x = 687;
y = 706;
},
{
segmentType = curve;
smooth = 1;
x = 687;
y = 551;
},
{
segmentType = line;
smooth = 0;
x = 687;
y = 428;
},
{
smooth = 0;
x = 609;
y = 443;
},
{
smooth = 0;
x = 539;
y = 455;
},
{
segmentType = curve;
smooth = 1;
x = 465;
y = 455;
},
{
smooth = 0;
x = 295;
y = 455;
},
{
smooth = 0;
x = 117;
y = 433;
},
{
segmentType = curve;
smooth = 1;
x = 117;
y = 222;
},
{
smooth = 0;
x = 117;
y = 96;
},
{
smooth = 0;
x = 206;
y = "-14";
}
);
},
{
points = (
{
segmentType = curve;
smooth = 1;
x = 401;
y = 50;
},
{
smooth = 0;
x = 246;
y = 50;
},
{
smooth = 0;
x = 195;
y = 142;
},
{
segmentType = curve;
smooth = 1;
x = 195;
y = 220;
},
{
smooth = 0;
x = 195;
y = 390;
},
{
smooth = 0;
x = 346;
y = 393;
},
{
segmentType = curve;
smooth = 1;
x = 462;
y = 393;
},
{
smooth = 0;
x = 559;
y = 393;
},
{
smooth = 0;
x = 687;
y = 368;
},
{
segmentType = curve;
smooth = 0;
x = 687;
y = 368;
},
{
segmentType = line;
smooth = 0;
x = 687;
y = 151;
},
{
smooth = 0;
x = 606;
y = 76;
},
{
smooth = 0;
x = 511;
y = 50;
}
);
}
);
lib = {
};
name = a;
unicodes = (
);
width = 951;
};
};
org.robofab.postScriptHintData = {
};
};
},
{
color = 1;
glyphname = ae;
kernLeft = a;
kernRight = e;
layers = (
{
anchors = (
{
name = top;
pos = (407,393);
}
);
background = {
anchors = (
{
name = top;
pos = (1507,393);
}
);
shapes = (
{
closed = 1;
nodes = (
(1344,-10,o),
(1403,29,o),
(1462,76,c),
(1457,77,l),
(1480,28,o),
(1533,-10,o),
(1627,-10,cs),
(1689,-10,o),
(1758,15,o),
(1812,57,c),
(1799,77,l),
(1754,39,o),
(1688,13,o),
(1632,13,cs),
(1510,13,o),
(1473,85,o),
(1473,196,cs),
(1473,199,ls),
(1473,307,o),
(1574,381,o),
(1675,381,cs),
(1775,381,o),
(1829,311,o),
(1815,210,c),
(1470,210,l),
(1467,188,l),
(1840,188,l),
(1841,195,ls),
(1859,318,o),
(1800,403,o),
(1679,403,cs),
(1588,403,o),
(1508,355,o),
(1469,269,c),
(1483,269,l),
(1498,360,o),
(1456,403,o),
(1354,403,cs),
(1312,403,o),
(1257,392,o),
(1210,370,c),
(1217,347,l),
(1261,370,o),
(1311,380,o),
(1352,380,cs),
(1435,380,o),
(1467,346,o),
(1456,275,cs),
(1444,199,l),
(1463,210,l),
(1314,210,ls),
(1209,210,o),
(1156,171,o),
(1145,101,cs),
(1134,33,o),
(1176,-10,o),
(1265,-10,cs)
);
},
{
closed = 1;
nodes = (
(1196,12,o),
(1165,47,o),
(1174,101,cs),
(1182,155,o),
(1222,189,o),
(1309,189,cs),
(1443,189,l),
(1438,151,o),
(1441,120,o),
(1451,89,c),
(1454,97,l),
(1402,49,o),
(1343,12,o),
(1269,12,cs)
);
},
{
closed = 1;
nodes = (
(600,-10,o),
(661,15,o),
(701,57,c),
(685,76,l),
(655,39,o),
(597,13,o),
(531,13,cs),
(429,13,o),
(370,68,o),
(370,165,cs),
(370,169,ls),
(370,285,o),
(439,380,o),
(563,380,cs),
(640,380,o),
(684,347,o),
(684,293,cs),
(684,234,o),
(643,204,o),
(550,195,cs),
(365,177,l),
(366,155,l),
(559,174,ls),
(662,184,o),
(711,223,o),
(711,293,cs),
(711,360,o),
(655,403,o),
(562,403,cs),
(423,403,o),
(341,296,o),
(341,166,cs),
(341,57,o),
(412,-10,o),
(526,-10,cs)
);
}
);
};
layerId = "98C086B7-81AA-4491-8494-0C6A76849168";
shapes = (
{
closed = 1;
nodes = (
(247,-10,o),
(309,29,o),
(364,80,c),
(359,81,l),
(381,34,o),
(432,-10,o),
(526,-10,cs),
(600,-10,o),
(661,15,o),
(701,57,c),
(685,76,l),
(655,39,o),
(597,13,o),
(531,13,cs),
(429,13,o),
(370,68,o),
(370,165,cs),
(370,169,ls),
(370,285,o),
(439,380,o),
(563,380,cs),
(640,380,o),
(684,347,o),
(684,293,cs),
(684,234,o),
(643,204,o),
(550,195,cs),
(365,177,l),
(366,155,l),
(559,174,ls),
(662,184,o),
(711,223,o),
(711,293,cs),
(711,360,o),
(655,403,o),
(562,403,cs),
(468,403,o),
(398,352,o),
(364,272,c),
(378,269,l),
(394,364,o),
(340,403,o),
(251,403,cs),
(209,403,o),
(157,393,o),
(108,370,c),
(117,347,l),
(161,370,o),
(211,380,o),
(252,380,cs),
(329,380,o),
(367,348,o),
(354,267,cs),
(343,199,l),
(363,210,l),
(198,210,ls),
(117,210,o),
(44,179,o),
(44,89,cs),
(44,27,o),
(89,-10,o),
(171,-10,cs)
);
},
{
closed = 1;
nodes = (
(107,12,o),
(73,39,o),
(73,91,cs),
(73,161,o),
(128,189,o),
(197,189,cs),
(343,189,l),
(338,151,o),
(344,120,o),
(355,89,c),
(354,100,l),
(302,50,o),
(245,12,o),
(173,12,cs)
);
}
);
width = 742;
},
{
anchors = (
{
name = top;
pos = (405,403);
}
);
background = {
shapes = (
{
closed = 1;
nodes = (
(569,-11,o),
(656,13,o),
(696,45,c),
(640,156,l),
(601,132,o),
(559,120,o),
(520,120,cs),
(444,120,o),
(423,143,o),
(423,189,cs),
(423,226,ls),
(423,277,o),
(454,313,o),
(500,313,cs),
(531,313,o),
(540,299,o),
(540,283,cs),
(540,267,o),
(528,252,o),
(503,249,cs),
(345,231,l),
(345,142,l),
(590,175,ls),
(667,185,o),
(700,219,o),
(700,281,cs),
(700,360,o),
(632,413,o),
(506,413,cs),
(345,413,o),
(255,320,o),
(255,186,cs),
(255,64,o),
(341,-11,o),
(492,-11,cs)
);
}
);
};
layerId = "EFCDB4D9-E20B-4A8D-9DB5-150AD166B0AE";
shapes = (
{
closed = 1;
nodes = (
(220,-10,o),
(278,8,o),
(325,69,c),
(298,68,l),
(333,19,o),
(405,-11,o),
(492,-11,cs),
(569,-11,o),
(656,13,o),
(696,45,c),
(640,156,l),
(601,132,o),
(559,120,o),
(520,120,cs),
(444,120,o),
(423,143,o),
(423,189,cs),
(423,226,ls),
(423,277,o),
(454,313,o),
(500,313,cs),
(531,313,o),
(540,299,o),
(540,283,cs),
(540,267,o),
(528,252,o),
(503,249,cs),
(345,231,l),
(345,142,l),
(590,175,ls),
(667,185,o),
(700,219,o),
(700,281,cs),
(700,360,o),
(632,413,o),
(511,413,cs),
(428,413,o),
(376,389,o),
(336,354,c),
(412,358,l),
(380,397,o),
(327,413,o),
(242,413,cs),
(179,413,o),
(98,398,o),
(35,365,c),
(77,255,l),
(114,277,o),
(157,288,o),
(190,288,cs),
(243,288,o),
(265,267,o),
(260,234,cs),
(256,209,l),
(287,239,l),
(185,239,ls),
(81,239,o),
(4,194,o),
(4,109,cs),
(4,42,o),
(54,-10,o),
(161,-10,cs)
);
},
{
closed = 1;
nodes = (
(187,86,o),
(174,99,o),
(174,116,cs),
(174,140,o),
(191,154,o),
(223,154,cs),
(259,154,l),
(262,135,o),
(270,114,o),
(275,102,c),
(273,130,l),
(253,95,o),
(228,86,o),
(208,86,cs)
);
}
);
width = 712;
},
{
anchors = (
{
name = top;
pos = (406,399);
}
);
background = {
anchors = (
{
name = top;
pos = (406,399);
}
);
shapes = (
{
closed = 1;
nodes = (
(585,-11,o),
(661,14,o),
(699,50,c),
(658,123,l),
(629,97,o),
(579,74,o),
(518,74,cs),
(438,74,o),
(397,114,o),
(397,180,cs),
(397,196,ls),
(397,269,o),
(446,333,o),
(542,333,cs),
(589,333,o),
(613,318,o),
(613,290,cs),
(613,258,o),
(590,243,o),
(534,236,cs),
(356,213,l),
(356,133,l),
(573,163,ls),
(665,176,o),
(706,216,o),
(706,283,cs),
(706,355,o),
(656,410,o),
(546,410,cs),
(387,410,o),
(299,305,o),
(299,180,cs),
(299,64,o),
(383,-11,o),
(515,-11,cs)
);
}
);
};
layerId = "14AB8F11-4722-4116-93B5-2CBF67C8CE3C";
shapes = (
{
closed = 1;
nodes = (
(243,-10,o),
(308,12,o),
(359,69,c),
(333,73,l),
(361,25,o),
(425,-11,o),
(515,-11,cs),
(585,-11,o),
(659,14,o),
(699,50,c),
(658,123,l),
(629,97,o),
(579,74,o),
(518,74,cs),
(438,74,o),
(397,114,o),
(397,180,cs),
(397,196,ls),
(397,269,o),
(446,333,o),
(542,333,cs),
(589,333,o),
(613,318,o),
(613,290,cs),
(613,258,o),
(590,243,o),
(534,236,cs),
(356,213,l),
(356,133,l),
(573,163,ls),
(665,176,o),
(706,216,o),
(706,283,cs),
(706,355,o),
(656,410,o),
(546,410,cs),
(457,410,o),
(391,375,o),
(354,323,c),
(395,320,l),
(385,382,o),
(334,409,o),
(247,409,cs),
(194,409,o),
(128,396,o),
(72,367,c),
(97,288,l),
(138,310,o),
(184,321,o),
(229,321,cs),
(286,321,o),
(316,297,o),
(308,246,cs),
(301,203,l),
(325,231,l),
(192,231,ls),
(96,231,o),
(24,191,o),
(24,106,cs),
(24,39,o),
(76,-10,o),
(185,-10,cs)
);
},
{
closed = 1;
nodes = (
(148,68,o),
(124,83,o),
(124,109,cs),
(124,144,o),
(154,158,o),
(204,158,cs),
(300,158,l),
(302,135,o),
(308,116,o),
(315,99,c),
(314,118,l),
(278,82,o),
(238,68,o),
(194,68,cs)
);
}
);
width = 731;
}
);
metricRight = e;
unicode = 230;
userData = {
com.typemytype.robofont.layerData = {
b = {
anchors = (
);
components = (
);
contours = (
);
lib = {
};
name = ae;
unicodes = (
);
width = 1657;
};
};
org.robofab.postScriptHintData = {
};
};
},
{
color = 3;
glyphname = b;
kernLeft = h;
kernRight = o;
layers = (
{
anchors = (
{
name = top;
pos = (343,583);
}
);
background = {
anchors = (
{
name = top;
pos = (296,583);
}
);
shapes = (
{
closed = 1;
nodes = (
(1013,-10,o),
(1080,73,o),
(1080,197,cs),
(1080,320,o),
(1013,403,o),
(894,403,cs),
(824,403,o),
(764,374,o),
(729,324,c),
(740,332,l),
(740,583,l),
(626,583,l),
(626,561,l),
(711,561,l),
(711,22,l),
(636,22,l),
(636,0,l),
(740,0,l),
(740,64,l),
(729,69,l),
(764,19,o),
(824,-10,o),
(894,-10,cs)
);
},
{
closed = 1;
nodes = (
(823,13,o),
(767,40,o),
(736,86,c),
(740,73,l),
(740,325,l),
(736,307,l),
(767,353,o),
(823,380,o),
(892,380,cs),
(992,380,o),
(1051,311,o),
(1051,197,cs),
(1051,82,o),
(992,13,o),
(892,13,cs)
);
},
{
closed = 1;
nodes = (
(241,403,o),
(175,361,o),
(138,294,c),
(140,288,l),
(145,318,ls),
(153,368,o),
(139,393,o),
(87,393,cs),
(53,393,l),
(49,371,l),
(82,371,ls),
(117,371,o),
(123,361,o),
(116,318,cs),
(64,-10,l),
(93,-10,l),
(103,50,l),
(98,48,l),
(125,18,o),
(181,-10,o),
(251,-10,cs),
(403,-10,o),
(469,110,o),
(469,239,cs),
(469,339,o),
(411,403,o),
(315,403,cs)
);
},
{
closed = 1;
nodes = (
(394,380,o),
(440,328,o),
(440,237,cs),
(440,123,o),
(384,13,o),
(250,13,cs),
(183,13,o),
(131,37,o),
(103,69,c),
(104,57,l),
(137,268,l),
(132,252,l),
(173,335,o),
(243,380,o),
(311,380,cs)
);
}
);
};
layerId = "98C086B7-81AA-4491-8494-0C6A76849168";
shapes = (
{
closed = 1;
nodes = (
(403,-10,o),
(469,110,o),
(469,239,cs),
(469,339,o),
(411,403,o),
(315,403,cs),
(241,403,o),
(175,361,o),
(138,294,c),
(140,288,l),
(187,583,l),
(73,583,l),
(69,561,l),
(154,561,l),
(65,0,l),
(94,0,l),
(102,50,l),
(98,48,l),
(125,18,o),
(181,-10,o),
(251,-10,cs)
);
},
{
closed = 1;
nodes = (
(183,13,o),
(131,37,o),
(103,69,c),
(104,57,l),
(137,268,l),
(132,252,l),
(173,335,o),
(243,380,o),
(311,380,cs),
(394,380,o),
(440,328,o),
(440,237,cs),
(440,123,o),
(384,13,o),
(250,13,cs)
);
}
);
width = 514;
},
{
anchors = (
{
name = top;
pos = (347,583);
}
);
background = {
anchors = (
{
name = top;
pos = (300,583);
}
);
shapes = (
{
closed = 1;
nodes = (
(318,413,o),
(258,388,o),
(221,304,c),
(243,269,l),
(245,283,ls),
(255,350,o),
(216,403,o),
(121,403,cs),
(43,403,l),
(26,293,l),
(42,293,ls),
(60,293,o),
(70,284,o),
(66,258,cs),
(23,-10,l),
(199,-10,l),
(212,71,l),
(192,46,l),
(216,10,o),
(264,-10,o),
(316,-10,cs),
(462,-10,o),
(528,104,o),
(528,237,cs),
(528,330,o),
(477,413,o),
(369,413,cs)
);
},
{
closed = 1;
nodes = (
(340,283,o),
(358,262,o),
(358,224,cs),
(358,159,o),
(325,120,o),
(272,120,cs),
(258,120,o),
(234,123,o),
(219,133,c),
(217,106,l),
(239,246,l),
(225,208,l),
(244,258,o),
(276,283,o),
(307,283,cs)
);
}
);
};
layerId = "EFCDB4D9-E20B-4A8D-9DB5-150AD166B0AE";
shapes = (
{
closed = 1;
nodes = (
(462,-10,o),
(528,104,o),
(528,237,cs),
(528,330,o),
(477,413,o),
(369,413,cs),
(318,413,o),
(258,388,o),
(221,304,c),
(252,332,l),
(292,583,l),
(67,583,l),
(50,473,l),
(100,473,l),
(25,0,l),
(185,0,l),
(197,80,l),
(190,48,l),
(216,10,o),
(264,-10,o),
(316,-10,cs)
);
},
{
closed = 1;
nodes = (
(258,120,o),
(234,123,o),
(219,133,c),
(217,106,l),
(239,246,l),
(225,208,l),
(244,258,o),
(276,283,o),
(307,283,cs),
(340,283,o),
(358,262,o),
(358,224,cs),
(358,159,o),
(325,120,o),
(272,120,cs)
);
}
);
width = 547;
},
{
anchors = (
{
name = top;
pos = (345,583);
}
);
background = {
anchors = (
{
name = top;
pos = (1045,583);
}
);
shapes = (
{
closed = 1;
nodes = (
(1133,-10,o),
(1199,106,o),
(1199,238,cs),
(1199,333,o),
(1144,409,o),
(1042,409,cs),
(980,409,o),
(917,378,o),
(880,300,c),
(896,316,l),
(940,583,l),
(770,583,l),
(760,506,l),
(827,506,l),
(745,0,l),
(840,0,l),
(850,69,l),
(844,48,l),
(871,13,o),
(923,-10,o),
(984,-10,cs)
);
},
{
closed = 1;
nodes = (
(921,80,o),
(883,91,o),
(861,109,c),
(861,88,l),
(888,254,l),
(879,225,l),
(909,287,o),
(960,319,o),
(1009,319,cs),
(1067,319,o),
(1099,287,o),
(1099,229,cs),
(1099,146,o),
(1055,80,o),
(961,80,cs)
);
},
{
closed = 1;
nodes = (
(273,409,o),
(206,374,o),
(179,300,c),
(191,276,l),
(194,296,ls),
(203,356,o),
(177,399,o),
(103,399,cs),
(48,399,l),
(36,322,l),
(61,322,ls),
(87,322,o),
(95,313,o),
(90,282,cs),
(45,0,l),
(139,0,l),
(149,63,l),
(139,52,l),
(171,11,o),
(219,-10,o),
(274,-10,cs),
(414,-10,o),
(498,99,o),
(498,234,cs),
(498,341,o),
(432,409,o),
(337,409,cs)
);
},
{
closed = 1;
nodes = (
(366,319,o),
(399,284,o),
(399,227,cs),
(399,135,o),
(346,80,o),
(264,80,cs),
(223,80,o),
(184,90,o),
(160,109,c),
(161,87,l),
(188,255,l),
(178,220,l),
(208,287,o),
(259,319,o),
(310,319,cs)
);
}
);
};
layerId = "14AB8F11-4722-4116-93B5-2CBF67C8CE3C";
shapes = (
{
closed = 1;
nodes = (
(414,-10,o),
(498,99,o),
(498,234,cs),
(498,341,o),
(432,409,o),
(337,409,cs),
(273,409,o),
(206,374,o),
(179,300,c),
(197,316,l),
(239,583,l),
(70,583,l),
(58,506,l),
(125,506,l),
(45,0,l),
(140,0,l),
(151,70,l),
(139,52,l),
(171,11,o),
(219,-10,o),
(274,-10,cs)
);
},
{
closed = 1;
nodes = (
(224,80,o),
(184,90,o),
(160,109,c),
(161,87,l),
(188,255,l),
(178,220,l),
(208,287,o),
(259,319,o),
(309,319,cs),
(367,319,o),
(399,285,o),
(399,227,cs),
(399,135,o),
(346,80,o),
(254,80,cs)
);
}
);
width = 529;
}
);
metricLeft = h;
metricRight = o;
unicode = 98;
userData = {
com.typemytype.robofont.layerData = {
b = {
anchors = (
);
components = (
);
contours = (
);
lib = {
};
name = b;
unicodes = (
);
width = 1037;
};
};
org.robofab.postScriptHintData = {
};
};
},
{
color = 3;
glyphname = c;
kernLeft = o;
kernRight = c;
layers = (
{
anchors = (
{
name = bottom;
pos = (214,0);
},
{
name = top;
pos = (285,393);
}
);
background = {
shapes = (
{
closed = 1;
nodes = (
(385,-10,o),
(450,110,o),
(450,227,cs),
(450,336,o),
(379,403,o),
(267,403,cs),
(111,403,o),
(46,283,o),
(46,166,cs),
(46,57,o),
(117,-10,o),
(229,-10,cs)
);
},
{
closed = 1;
nodes = (
(136,13,o),
(75,66,o),
(75,165,cs),
(75,270,o),
(130,380,o),
(266,380,cs),
(360,380,o),
(421,327,o),
(421,228,cs),
(421,123,o),
(366,13,o),
(230,13,cs)
);
}
);
};
guides = (
{
angle = 81;
pos = (432,303);
}
);
layerId = "98C086B7-81AA-4491-8494-0C6A76849168";
shapes = (
{
closed = 1;
nodes = (
(296,-10,o),
(354,14,o),
(394,57,c),
(378,76,l),
(348,39,o),
(295,13,o),
(230,13,cs),
(136,13,o),
(75,66,o),
(75,165,cs),
(75,284,o),
(141,380,o),
(265,380,cs),
(337,380,o),
(382,351,o),
(404,286,c),
(426,299,l),
(402,370,o),
(341,403,o),
(264,403,cs),
(123,403,o),
(46,296,o),
(46,166,cs),
(46,57,o),
(117,-10,o),
(229,-10,cs)
);
}
);
width = 424;
},
{
anchors = (
{
name = bottom;
pos = (218,0);
},
{
name = top;
pos = (276,403);
}
);
background = {
shapes = (
{
closed = 1;
nodes = (
(307,-11,o),
(375,15,o),
(411,53,c),
(352,160,l),
(326,133,o),
(294,120,o),
(266,120,cs),
(214,120,o),
(191,151,o),
(191,195,cs),
(191,247,o),
(220,283,o),
(262,283,cs),
(287,283,o),
(316,270,o),
(334,233,c),
(439,311,l),
(413,378,o),
(343,413,o),
(261,413,cs),
(119,413,o),
(21,320,o),
(21,189,cs),
(21,68,o),
(108,-11,o),
(243,-11,cs)
);
}
);
};
guides = (
{
angle = 81;
pos = (437,303);
}
);
layerId = "EFCDB4D9-E20B-4A8D-9DB5-150AD166B0AE";
shapes = (
{
closed = 1;
nodes = (
(307,-11,o),
(375,15,o),
(411,53,c),
(352,160,l),
(326,133,o),
(294,119,o),
(266,119,cs),
(214,119,o),
(191,151,o),
(191,195,cs),
(191,247,o),
(220,284,o),
(264,284,cs),
(296,284,o),
(319,264,o),
(334,233,c),
(441,314,l),
(413,378,o),
(343,414,o),
(260,414,cs),
(97,414,o),
(21,299,o),
(21,186,cs),
(21,85,o),
(82,-11,o),
(243,-11,cs)
);
}
);
width = 435;
},
{
anchors = (
{
name = bottom;
pos = (216,0);
},
{
name = top;
pos = (281,399);
}
);
background = {
shapes = (
{
closed = 1;
nodes = (
(302,-11,o),
(366,12,o),
(405,54,c),
(364,129,l),
(336,98,o),
(295,77,o),
(246,77,cs),
(175,77,o),
(133,117,o),
(133,183,cs),
(133,265,o),
(180,322,o),
(257,322,cs),
(310,322,o),
(349,301,o),
(371,254,c),
(443,312,l),
(407,378,o),
(339,410,o),
(257,410,cs),
(116,410,o),
(34,305,o),
(34,182,cs),
(34,66,o),
(117,-11,o),
(241,-11,cs)
);
}
);
};
layerId = "14AB8F11-4722-4116-93B5-2CBF67C8CE3C";
shapes = (
{
closed = 1;
nodes = (
(302,-11,o),
(366,12,o),
(405,54,c),
(364,125,l),
(336,96,o),
(295,74,o),
(246,74,cs),
(175,74,o),
(133,117,o),
(133,183,cs),
(133,265,o),
(180,325,o),
(259,325,cs),
(308,325,o),
(346,303,o),
(368,265,c),
(436,323,l),
(407,378,o),
(339,410,o),
(257,410,cs),
(116,410,o),
(34,305,o),
(34,182,cs),
(34,66,o),
(117,-11,o),
(241,-11,cs)
);
}
);
width = 428;
}
);
metricLeft = o;
unicode = 99;
userData = {
com.typemytype.robofont.layerData = {
b = {
anchors = (
);
components = (
);
contours = (
{
points = (
{
smooth = 0;
x = 633;
y = "-14";
},
{
smooth = 0;
x = 758;
y = 33;
},
{
segmentType = curve;
smooth = 0;
x = 868;
y = 142;
},
{
segmentType = line;
smooth = 0;
x = 845;
y = 213;
},
{
smooth = 0;
x = 763;
y = 105;
},
{
smooth = 0;
x = 637;
y = 51;
},
{
segmentType = curve;
smooth = 1;
x = 515;
y = 51;
},
{
smooth = 0;
x = 316;
y = 51;
},
{
smooth = 0;
x = 169;
y = 193;
},
{
segmentType = curve;
smooth = 1;
x = 169;
y = 406;
},
{
smooth = 0;
x = 169;
y = 630;
},
{
smooth = 0;
x = 336;
y = 755;
},
{
segmentType = curve;
smooth = 1;
x = 515;
y = 755;
},
{
smooth = 0;
x = 705;
y = 755;
},
{
smooth = 0;
x = 768;
y = 657;
},
{
segmentType = curve;
smooth = 0;
x = 776;
y = 570;
},
{
segmentType = line;
smooth = 0;
x = 840;
y = 570;
},
{
segmentType = line;
smooth = 0;
x = 840;
y = 825;
},
{
segmentType = line;
smooth = 0;
x = 767;
y = 825;
},
{
segmentType = line;
smooth = 0;
x = 767;
y = 714;
},
{
smooth = 0;
x = 736;
y = 764;
},
{
smooth = 0;
x = 645;
y = 819;
},
{
segmentType = curve;
smooth = 1;
x = 522;
y = 819;
},
{
smooth = 0;
x = 268.968;
y = 819;
},
{
smooth = 0;
x = 90;
y = 650;
},
{
segmentType = curve;
smooth = 1;
x = 90;
y = 406;
},
{
smooth = 0;
x = 90;
y = 145;
},
{
smooth = 0;
x = 286;
y = "-14";
},
{
segmentType = curve;
smooth = 1;
x = 515;
y = "-14";
}
);
}
);
lib = {
};
name = c;
unicodes = (
);
width = 956;
};
};
org.robofab.postScriptHintData = {
};
};
},
{
color = 3;
glyphname = d;
kernLeft = o;
kernRight = d;
layers = (
{
anchors = (
{
name = bottom;
pos = (226,0);
},
{
name = mid;
pos = (386,469);
},
{
name = top;
pos = (315,583);
},
{
name = topright;
pos = (519,583);
}
);
background = {
anchors = (
{
name = bottom;
pos = (284,0);
},
{
name = mid;
pos = (343,469);
},
{
name = top;
pos = (244,583);
},
{
name = topright;
pos = (458,583);
}
);
shapes = (
{
closed = 1;
nodes = (
(273,-10,o),
(339,32,o),
(376,99,c),
(374,105,l),
(369,75,ls),
(361,25,o),
(375,0,o),
(427,0,cs),
(461,0,l),
(465,22,l),
(432,22,ls),
(397,22,o),
(391,32,o),
(398,75,cs),
(450,403,l),
(421,403,l),
(411,343,l),
(416,345,l),
(389,375,o),
(333,403,o),
(263,403,cs),
(111,403,o),
(45,283,o),
(45,154,cs),
(45,54,o),
(103,-10,o),
(199,-10,cs)
);
},
{
closed = 1;
nodes = (
(120,13,o),
(74,65,o),
(74,156,cs),
(74,270,o),
(130,380,o),
(264,380,cs),
(331,380,o),
(383,356,o),
(411,324,c),
(410,336,l),
(377,125,l),
(382,141,l),
(341,58,o),
(271,13,o),
(203,13,cs)
);
}
);
};
guides = (
{
angle = 270;
pos = (493,11);
},
{
angle = 81;
pos = (405,303);
},
{
angle = 81;
pos = (435,303);
}
);
layerId = "98C086B7-81AA-4491-8494-0C6A76849168";
shapes = (
{
closed = 1;
nodes = (
(273,-10,o),
(339,32,o),
(376,99,c),
(374,105,l),
(369,75,ls),
(361,25,o),
(375,0,o),
(427,0,cs),
(462,0,l),
(466,22,l),
(433,22,ls),
(398,22,o),
(391,32,o),
(398,75,cs),
(478,583,l),
(366,583,l),
(362,561,l),
(446,561,l),
(411,342,l),
(416,345,l),
(389,375,o),
(333,403,o),
(263,403,cs),
(111,403,o),
(45,283,o),
(45,154,cs),
(45,54,o),
(103,-10,o),
(199,-10,cs)
);
},
{
closed = 1;
nodes = (
(120,13,o),
(74,65,o),
(74,156,cs),
(74,270,o),
(130,380,o),
(264,380,cs),
(331,380,o),
(383,356,o),
(411,324,c),
(410,336,l),
(377,125,l),
(382,141,l),
(341,58,o),
(271,13,o),
(203,13,cs)
);
}
);
width = 513;
},
{
anchors = (
{
name = bottom;
pos = (246,0);
},
{
name = mid;
pos = (438,431);
},
{
name = top;
pos = (329,583);
},
{
name = topright;
pos = (580,583);
}
);
background = {
anchors = (
{
name = bottom;
pos = (304,0);
},
{
name = mid;
pos = (417,431);
},
{
name = top;
pos = (239,583);
},
{
name = topright;
pos = (533,583);
}
);
shapes = (
{
closed = 1;
nodes = (
(229,-10,o),
(289,15,o),
(326,99,c),
(304,134,l),
(302,120,ls),
(292,53,o),
(331,0,o),
(426,0,cs),
(504,0,l),
(521,110,l),
(505,110,ls),
(487,110,o),
(477,119,o),
(481,145,cs),
(524,413,l),
(348,413,l),
(335,332,l),
(355,357,l),
(331,393,o),
(283,413,o),
(231,413,cs),
(85,413,o),
(19,299,o),
(19,166,cs),
(19,73,o),
(70,-10,o),
(178,-10,cs)
);
},
{
closed = 1;
nodes = (
(207,120,o),
(189,141,o),
(189,179,cs),
(189,244,o),
(222,283,o),
(275,283,cs),
(289,283,o),
(313,280,o),
(328,270,c),
(330,297,l),
(308,157,l),
(322,195,l),
(303,145,o),
(271,120,o),
(240,120,cs)
);
}
);
};
guides = (
{
angle = 81;
pos = (331,303);
},
{
angle = 81;
pos = (506,303);
}
);
layerId = "EFCDB4D9-E20B-4A8D-9DB5-150AD166B0AE";
shapes = (
{
closed = 1;
nodes = (
(229,-10,o),
(289,15,o),
(326,99,c),
(304,134,l),
(302,120,ls),
(292,53,o),
(331,0,o),
(426,0,cs),
(504,0,l),
(521,110,l),
(505,110,ls),
(487,110,o),
(477,119,o),
(481,145,cs),
(550,583,l),
(324,583,l),
(307,473,l),
(357,473,l),
(335,332,l),
(355,357,l),
(331,393,o),
(283,413,o),
(231,413,cs),
(85,413,o),
(19,299,o),
(19,166,cs),
(19,73,o),
(70,-10,o),
(178,-10,cs)
);
},
{
closed = 1;
nodes = (
(207,120,o),
(189,141,o),
(189,179,cs),
(189,244,o),
(222,283,o),
(275,283,cs),
(289,283,o),
(313,280,o),
(328,270,c),
(330,297,l),
(308,157,l),
(322,195,l),
(303,145,o),
(271,120,o),
(240,120,cs)
);
}
);
width = 547;
},
{
anchors = (
{
name = bottom;
pos = (235,0);
},
{
name = mid;
pos = (411,445);
},
{
name = top;
pos = (321,583);
},
{
name = topright;
pos = (549,583);
}
);
background = {
shapes = (
{
closed = 1;
nodes = (
(250,-10,o),
(313,21,o),
(350,99,c),
(338,123,l),
(335,103,ls),
(326,43,o),
(352,0,o),
(426,0,cs),
(482,0,l),
(493,77,l),
(468,77,ls),
(442,77,o),
(433,86,o),
(439,119,cs),
(513,583,l),
(345,583,l),
(334,506,l),
(401,506,l),
(372,336,l),
(385,353,l),
(359,386,o),
(307,409,o),
(246,409,cs),
(97,409,o),
(31,293,o),
(31,162,cs),
(31,66,o),
(86,-10,o),
(188,-10,cs)
);
},
{
closed = 1;
nodes = (
(163,80,o),
(131,113,o),
(131,170,cs),
(131,254,o),
(175,319,o),
(269,319,cs),
(309,319,o),
(347,309,o),
(369,290,c),
(369,312,l),
(342,145,l),
(351,175,l),
(321,112,o),
(270,80,o),
(221,80,cs)
);
}
);
};
guides = (
{
angle = 260.9755;
pos = (385,421);
}
);
layerId = "14AB8F11-4722-4116-93B5-2CBF67C8CE3C";
shapes = (
{
closed = 1;
nodes = (
(256,-10,o),
(323,25,o),
(350,99,c),
(338,123,l),
(335,103,ls),
(326,43,o),
(352,0,o),
(426,0,cs),
(481,0,l),
(493,77,l),
(468,77,ls),
(442,77,o),
(434,86,o),
(439,117,cs),
(513,583,l),
(344,583,l),
(332,506,l),
(399,506,l),
(372,336,l),
(385,352,l),
(359,387,o),
(310,409,o),
(255,409,cs),
(115,409,o),
(31,300,o),
(31,165,cs),
(31,58,o),
(97,-10,o),
(192,-10,cs)
);
},
{
closed = 1;
nodes = (
(163,80,o),
(130,115,o),
(130,172,cs),
(130,264,o),
(183,319,o),
(275,319,cs),
(306,319,o),
(345,309,o),
(369,290,c),
(368,312,l),
(341,144,l),
(351,179,l),
(321,112,o),
(270,80,o),
(219,80,cs)
);
}
);
width = 528;
}
);
metricLeft = o;
metricRight = l;
unicode = 100;
userData = {
com.typemytype.robofont.layerData = {
b = {
anchors = (
);
components = (
);
contours = (
);
lib = {
};
name = d;
unicodes = (
);
width = 1011;
};
};
org.robofab.postScriptHintData = {
};
};
},
{
color = 3;
glyphname = eth;
kernLeft = eth;
kernRight = eth;
layers = (
{
background = {
shapes = (
{
closed = 1;
nodes = (
(970,-10,o),
(1045,70,o),
(1045,193,cs),
(1045,301,o),
(997,414,o),
(889,508,c),
(883,503,l),
(1003,554,l),
(993,573,l),
(866,519,l),
(879,517,l),
(842,547,o),
(806,571,o),
(763,594,c),
(751,574,l),
(788,553,o),
(821,533,o),
(850,509,c),
(854,514,l),
(722,458,l),
(732,439,l),
(873,499,l),
(861,500,l),
(943,433,o),
(993,356,o),
(1014,269,c),
(1019,267,l),
(984,335,o),
(931,373,o),
(849,373,cs),
(730,373,o),
(655,292,o),
(655,181,cs),
(655,70,o),
(730,-10,o),
(850,-10,cs)
);
},
{
closed = 1;
nodes = (
(751,13,o),
(684,79,o),
(684,181,cs),
(684,283,o),
(751,350,o),
(850,350,cs),
(949,350,o),
(1016,283,o),
(1016,181,cs),
(1016,79,o),
(949,13,o),
(850,13,cs)
);
},
{
closed = 1;
nodes = (
(358,-10,o),
(440,89,o),
(440,210,cs),
(440,311,o),
(371,373,o),
(260,373,cs),
(127,373,o),
(44,274,o),
(44,153,cs),
(44,52,o),
(114,-10,o),
(225,-10,cs)
);
},
{
closed = 1;
nodes = (
(133,13,o),
(73,64,o),
(73,153,cs),
(73,262,o),
(141,350,o),
(261,350,cs),
(351,350,o),
(411,300,o),
(411,211,cs),
(411,101,o),
(343,13,o),
(223,13,cs)
);
}
);
};
layerId = "98C086B7-81AA-4491-8494-0C6A76849168";
shapes = (
{
closed = 1;
nodes = (
(356,-10,o),
(443,91,o),
(443,237,cs),
(443,338,o),
(408,430,o),
(330,508,c),
(326,503,l),
(455,554,l),
(448,573,l),
(312,519,l),
(322,517,l),
(289,547,o),
(257,571,o),
(218,594,c),
(206,574,l),
(239,553,o),
(270,533,o),
(295,510,c),
(299,514,l),
(158,458,l),
(165,439,l),
(316,499,l),
(305,501,l),
(377,433,o),
(411,353,o),
(420,269,c),
(425,263,l),
(403,329,o),
(342,373,o),
(261,373,cs),
(126,373,o),
(44,283,o),
(44,164,cs),
(44,53,o),
(118,-10,o),
(232,-10,cs)
);
},
{
closed = 1;
nodes = (
(133,13,o),
(73,69,o),
(73,163,cs),
(73,270,o),
(141,350,o),
(261,350,cs),
(351,350,o),
(411,300,o),
(411,211,cs),
(411,93,o),
(335,13,o),
(231,13,cs)
);
}
);
width = 491;
},
{
background = {
shapes = (
{
closed = 1;
nodes = (
(355,-10,o),
(459,67,o),
(480,203,cs),
(497,308,o),
(466,413,o),
(398,499,c),
(371,461,l),
(490,496,l),
(475,578,l),
(313,528,l),
(377,523,l),
(333,569,o),
(278,609,o),
(212,636,c),
(129,534,l),
(164,516,o),
(195,499,o),
(217,479,c),
(244,508,l),
(111,467,l),
(126,385,l),
(319,444,l),
(253,452,l),
(282,423,o),
(304,391,o),
(318,359,c),
(369,360,l),
(351,368,o),
(302,373,o),
(269,373,cs),
(132,373,o),
(39,307,o),
(21,192,cs),
(2,77,o),
(81,-10,o),
(228,-10,cs)
);
},
{
closed = 1;
nodes = (
(202,120,o),
(183,143,o),
(189,182,cs),
(195,220,o),
(222,243,o),
(258,243,cs),
(294,243,o),
(313,220,o),
(307,182,cs),
(301,143,o),
(274,120,o),
(238,120,cs)
);
}
);
};
layerId = "EFCDB4D9-E20B-4A8D-9DB5-150AD166B0AE";
shapes = (
{
closed = 1;
nodes = (
(392,-10,o),
(485,104,o),
(485,260,cs),
(485,345,o),
(454,429,o),
(398,499,c),
(378,463,l),
(497,498,l),
(475,578,l),
(313,528,l),
(377,523,l),
(333,569,o),
(278,609,o),
(212,636,c),
(129,534,l),
(164,516,o),
(195,499,o),
(217,479,c),
(244,508,l),
(111,467,l),
(133,387,l),
(326,446,l),
(253,452,l),
(282,423,o),
(304,391,o),
(318,359,c),
(369,353,l),
(351,366,o),
(302,373,o),
(259,373,cs),
(117,373,o),
(18,300,o),
(18,168,cs),
(18,66,o),
(95,-10,o),
(228,-10,cs)
);
},
{
closed = 1;
nodes = (
(210,120,o),
(189,140,o),
(189,174,cs),
(189,208,o),
(209,243,o),
(255,243,cs),
(288,243,o),
(307,225,o),
(307,190,cs),
(307,155,o),
(287,120,o),
(244,120,cs)
);
}
);
width = 500;
},
{
background = {
shapes = (
{
closed = 1;
nodes = (
(374,-10,o),
(464,99,o),
(464,251,cs),
(464,342,o),
(431,429,o),
(364,502,c),
(352,478,l),
(476,519,l),
(462,576,l),
(313,525,l),
(350,521,l),
(311,561,o),
(268,595,o),
(215,620,c),
(168,549,l),
(202,530,o),
(233,512,o),
(256,491,c),
(272,510,l),
(135,464,l),
(149,407,l),
(321,466,l),
(279,470,l),
(330,427,o),
(358,377,o),
(369,325,c),
(397,319,l),
(377,352,o),
(322,373,o),
(260,373,cs),
(122,373,o),
(31,294,o),
(31,167,cs),
(31,61,o),
(107,-10,o),
(230,-10,cs)
);
},
{
closed = 1;
nodes = (
(172,80,o),
(131,113,o),
(131,170,cs),
(131,231,o),
(175,283,o),
(258,283,cs),
(320,283,o),
(359,253,o),
(359,198,cs),
(359,132,o),
(311,80,o),
(238,80,cs)
);
}
);
};
layerId = "14AB8F11-4722-4116-93B5-2CBF67C8CE3C";
shapes = (
{
closed = 1;
nodes = (
(374,-10,o),
(464,91,o),
(464,247,cs),
(464,342,o),
(431,429,o),
(364,502,c),
(356,479,l),
(480,521,l),
(462,576,l),
(313,525,l),
(350,521,l),
(311,561,o),
(268,595,o),
(215,620,c),
(168,549,l),
(202,530,o),
(233,512,o),
(256,491,c),
(272,510,l),
(135,464,l),
(153,409,l),
(325,468,l),
(279,470,l),
(330,427,o),
(358,377,o),
(369,325,c),
(397,304,l),
(377,347,o),
(322,373,o),
(250,373,cs),
(122,373,o),
(31,294,o),
(31,169,cs),
(31,71,o),
(107,-10,o),
(236,-10,cs)
);
},
{
closed = 1;
nodes = (
(172,74,o),
(130,111,o),
(130,172,cs),
(130,232,o),
(171,289,o),
(256,289,cs),
(320,289,o),
(359,254,o),
(359,196,cs),
(359,131,o),
(317,74,o),
(242,74,cs)
);
}
);
width = 495.5;
}
);
unicode = 240;
userData = {
com.typemytype.robofont.layerData = {
b = {
anchors = (
);
components = (
);
contours = (
);
lib = {
};
name = eth;
unicodes = (
);
width = 886;
};
};
org.robofab.postScriptHintData = {
};
};
},
{
color = 1;
glyphname = e;
kernLeft = o;
kernRight = e;
layers = (
{
anchors = (
{
name = bottom;
pos = (224,0);
},
{
name = ogonek;
pos = (295,0);
},
{
name = top;
pos = (279,393);
}
);
background = {
anchors = (
{
name = bottom;
pos = (275,0);
},
{
name = ogonek;
pos = (306,0);
},
{
name = top;
pos = (248,393);
}
);
shapes = (
{
closed = 1;
nodes = (
(385,-10,o),
(450,110,o),
(450,227,cs),
(450,336,o),
(379,403,o),
(267,403,cs),
(111,403,o),
(46,283,o),
(46,166,cs),
(46,57,o),
(117,-10,o),
(229,-10,cs)
);
},
{
closed = 1;
nodes = (
(136,13,o),
(75,66,o),
(75,165,cs),
(75,270,o),
(130,380,o),
(266,380,cs),
(360,380,o),
(421,327,o),
(421,228,cs),
(421,123,o),
(366,13,o),
(230,13,cs)
);
}
);
};
layerId = "98C086B7-81AA-4491-8494-0C6A76849168";
shapes = (
{
closed = 1;
nodes = (
(305,-10,o),
(366,15,o),
(406,57,c),
(390,76,l),
(360,39,o),
(302,13,o),
(236,13,cs),
(136,13,o),
(75,66,o),
(75,165,cs),
(75,169,ls),
(75,285,o),
(141,380,o),
(268,380,cs),
(345,380,o),
(389,347,o),
(389,293,cs),
(389,234,o),
(348,204,o),
(255,195,cs),
(70,177,l),
(71,155,l),
(264,174,ls),
(367,184,o),
(416,223,o),
(416,293,cs),
(416,360,o),
(361,403,o),
(268,403,cs),
(123,403,o),
(46,296,o),
(46,166,cs),
(46,57,o),
(117,-10,o),
(231,-10,cs)
);
}
);
width = 447;
},
{
anchors = (
{
name = bottom;
pos = (217,0);
},
{
name = ogonek;
pos = (319,0);
},
{
name = top;
pos = (276,403);
}
);
background = {
shapes = (
{
closed = 1;
nodes = (
(837,-11,o),
(924,13,o),
(962,50,c),
(906,156,l),
(856,127,o),
(817,120,o),
(776,120,cs),
(713,120,o),
(689,143,o),
(689,189,cs),
(689,220,ls),
(689,284,o),
(725,313,o),
(766,313,cs),
(794,313,o),
(806,299,o),
(806,283,cs),
(806,267,o),
(793,252,o),
(769,249,cs),
(611,231,l),
(611,142,l),
(836,172,ls),
(923,184,o),
(966,219,o),
(966,281,cs),
(966,360,o),
(898,413,o),
(775,413,cs),
(619,413,o),
(522,318,o),
(522,194,cs),
(522,69,o),
(612,-11,o),
(768,-11,cs)
);
},
{
closed = 1;
nodes = (
(307,-11,o),
(375,15,o),
(411,53,c),
(352,160,l),
(326,133,o),
(294,120,o),
(266,120,cs),
(214,120,o),
(191,151,o),
(191,195,cs),
(191,247,o),
(220,283,o),
(264,283,cs),
(296,283,o),
(319,264,o),
(334,233,c),
(441,314,l),
(413,378,o),
(343,413,o),
(260,413,cs),
(97,413,o),
(21,299,o),
(21,186,cs),
(21,85,o),
(82,-11,o),
(243,-11,cs)
);
}
);
};
layerId = "EFCDB4D9-E20B-4A8D-9DB5-150AD166B0AE";
shapes = (
{
closed = 1;
nodes = (
(335,-11,o),
(422,13,o),
(462,45,c),
(406,156,l),
(367,132,o),
(325,119,o),
(285,119,cs),
(210,119,o),
(189,143,o),
(189,189,cs),
(189,226,ls),
(189,277,o),
(220,314,o),
(266,314,cs),
(297,314,o),
(306,299,o),
(306,283,cs),
(306,267,o),
(294,252,o),
(269,249,cs),
(111,231,l),
(111,142,l),
(356,175,ls),
(433,185,o),
(466,219,o),
(466,281,cs),
(466,360,o),
(398,414,o),
(272,414,cs),
(111,414,o),
(21,320,o),
(21,186,cs),
(21,64,o),
(107,-11,o),
(258,-11,cs)
);
}
);
width = 478;
},
{
anchors = (
{
name = bottom;
pos = (220,0);
},
{
name = ogonek;
pos = (306,0);
},
{
name = top;
pos = (277,399);
}
);
background = {
shapes = (
{
closed = 1;
nodes = (
(319,-11,o),
(395,14,o),
(433,50,c),
(392,123,l),
(363,97,o),
(313,74,o),
(252,74,cs),
(172,74,o),
(131,114,o),
(131,180,cs),
(131,196,ls),
(131,272,o),
(180,337,o),
(276,337,cs),
(323,337,o),
(347,320,o),
(347,292,cs),
(347,260,o),
(324,243,o),
(268,236,cs),
(90,213,l),
(90,141,l),
(307,171,ls),
(399,184,o),
(440,221,o),
(440,288,cs),
(440,360,o),
(392,410,o),
(286,410,cs),
(121,410,o),
(33,305,o),
(33,180,cs),
(33,64,o),
(117,-11,o),
(249,-11,cs)
);
}
);
};
layerId = "14AB8F11-4722-4116-93B5-2CBF67C8CE3C";
shapes = (
{
closed = 1;
nodes = (
(319,-11,o),
(395,14,o),
(433,50,c),
(392,123,l),
(363,97,o),
(313,74,o),
(252,74,cs),
(172,74,o),
(131,114,o),
(131,180,cs),
(131,196,ls),
(131,269,o),
(180,333,o),
(276,333,cs),
(323,333,o),
(347,318,o),
(347,290,cs),
(347,258,o),
(324,243,o),
(268,236,cs),
(90,213,l),
(90,133,l),
(307,163,ls),
(399,176,o),
(440,216,o),
(440,283,cs),
(440,355,o),
(390,410,o),
(280,410,cs),
(121,410,o),
(33,305,o),
(33,180,cs),
(33,64,o),
(117,-11,o),
(249,-11,cs)
);
}
);
width = 465;
}
);
metricLeft = o;
unicode = 101;
userData = {
com.typemytype.robofont.layerData = {
b = {
anchors = (
);
components = (
);
contours = (
{
points = (
{
segmentType = line;
smooth = 0;
x = 171;
y = 442;
},
{
smooth = 0;
x = 182;
y = 592;
},
{
smooth = 0;
x = 296;
y = 755;
},
{
segmentType = curve;
smooth = 1;
x = 507;
y = 755;
},
{
smooth = 0;
x = 699;
y = 755;
},
{
smooth = 0;
x = 803;
y = 616;
},
{
segmentType = curve;
smooth = 0;
x = 820;
y = 442;
}
);
},
{
points = (
{
segmentType = line;
smooth = 0;
x = 890;
y = 383;
},
{
smooth = 0;
x = 889;
y = 601;
},
{
smooth = 0;
x = 778.768;
y = 819;
},
{
segmentType = curve;
smooth = 1;
x = 502;
y = 819;
},
{
smooth = 0;
x = 232;
y = 819;
},
{
smooth = 0;
x = 90;
y = 618;
},
{
segmentType = curve;
smooth = 1;
x = 90;
y = 403;
},
{
smooth = 0;
x = 90;
y = 150;
},
{
smooth = 0;
x = 284;
y = "-14";
},
{
segmentType = curve;
smooth = 1;
x = 511;
y = "-14";
},
{
smooth = 0;
x = 657;
y = "-14";
},
{
smooth = 0;
x = 761;
y = 34;
},
{
segmentType = curve;
smooth = 0;
x = 868;
y = 139;
},
{
segmentType = line;
smooth = 0;
x = 836;
y = 197;
},
{
smooth = 0;
x = 747;
y = 103;
},
{
smooth = 0;
x = 652;
y = 50;
},
{
segmentType = curve;
smooth = 1;
x = 515;
y = 50;
},
{
smooth = 0;
x = 347;
y = 50;
},
{
smooth = 0;
x = 182;
y = 162;
},
{
segmentType = curve;
smooth = 0;
x = 169;
y = 383;
}
);
}
);
lib = {
};
name = e;
unicodes = (
);
width = 975;
};
};
org.robofab.postScriptHintData = {
};
};
},
{
color = 3;
glyphname = f;
kernLeft = f;
kernRight = f;
layers = (
{
anchors = (
{
name = top;
pos = (240,583);
}
);
background = {
shapes = (
{
closed = 1;
nodes = (
(55,-65,ls),
(45,-127,o),
(27,-149,o),
(-25,-149,cs),
(-46,-149,l),
(-50,-171,l),
(-27,-171,ls),
(43,-171,o),
(71,-142,o),
(83,-69,cs),
(153,371,l),
(263,371,l),
(266,393,l),
(151,393,l),
(155,385,l),
(173,501,ls),
(180,547,o),
(202,571,o),
(242,571,cs),
(275,571,o),
(290,554,o),
(297,522,c),
(319,527,l),
(314,567,o),
(285,593,o),
(242,593,cs),
(186,593,o),
(154,561,o),
(144,496,cs),
(126,383,l),
(133,393,l),
(43,393,l),
(39,371,l),
(124,371,l)
);
}
);
};
guides = (
{
angle = 261.0071;
pos = (90,153);
}
);
layerId = "98C086B7-81AA-4491-8494-0C6A76849168";
shapes = (
{
closed = 1;
nodes = (
(61,-65,ls),
(52,-127,o),
(33,-149,o),
(-19,-149,cs),
(-40,-149,l),
(-44,-171,l),
(-21,-171,ls),
(49,-171,o),
(78,-142,o),
(89,-69,cs),
(153,371,l),
(263,371,l),
(266,393,l),
(151,393,l),
(155,385,l),
(173,501,ls),
(180,547,o),
(202,571,o),
(242,571,cs),
(275,571,o),
(290,554,o),
(297,522,c),
(319,527,l),
(314,567,o),
(285,593,o),
(242,593,cs),
(186,593,o),
(154,561,o),
(144,496,cs),
(126,383,l),
(133,393,l),
(43,393,l),
(39,371,l),
(124,371,l)
);
}
);
width = 247;
},
{
anchors = (
{
name = top;
pos = (293,583);
}
);
background = {
shapes = (
{
closed = 1;
nodes = (
(26,4,ls),
(19,-37,o),
(-7,-61,o),
(-47,-61,cs),
(-79,-61,l),
(-96,-171,l),
(-13,-171,ls),
(108,-171,o),
(183,-109,o),
(203,18,cs),
(247,293,l),
(337,293,l),
(355,403,l),
(220,403,l),
(258,359,l),
(268,422,ls),
(272,450,o),
(291,468,o),
(315,468,cs),
(337,468,o),
(355,458,o),
(363,438,c),
(477,514,l),
(450,562,o),
(395,593,o),
(310,593,cs),
(193,593,o),
(109,526,o),
(93,422,cs),
(83,359,l),
(135,403,l),
(20,403,l),
(2,293,l),
(72,293,l)
);
}
);
};
layerId = "EFCDB4D9-E20B-4A8D-9DB5-150AD166B0AE";
shapes = (
{
closed = 1;
nodes = (
(32,4,ls),
(26,-37,o),
(-1,-61,o),
(-41,-61,cs),
(-73,-61,l),
(-90,-171,l),
(-7,-171,ls),
(114,-171,o),
(191,-110,o),
(209,18,cs),
(247,293,l),
(337,293,l),
(355,403,l),
(220,403,l),
(258,359,l),
(268,422,ls),
(272,450,o),
(291,468,o),
(315,468,cs),
(337,468,o),
(355,458,o),
(363,438,c),
(477,514,l),
(450,562,o),
(395,593,o),
(310,593,cs),
(193,593,o),
(109,526,o),
(93,422,cs),
(83,359,l),
(135,403,l),
(20,403,l),
(2,293,l),
(72,293,l)
);
}
);
width = 337;
},
{
anchors = (
{
name = top;
pos = (267,583);
}
);
background = {
anchors = (
{
name = top;
pos = (267,583);
}
);
shapes = (
{
closed = 1;
nodes = (
(47,-22,ls),
(39,-71,o),
(16,-94,o),
(-30,-94,cs),
(-56,-94,l),
(-67,-171,l),
(-14,-171,ls),
(82,-171,o),
(135,-122,o),
(149,-15,cs),
(200,322,l),
(300,322,l),
(311,399,l),
(186,399,l),
(207,369,l),
(221,452,ls),
(226,486,o),
(247,507,o),
(279,507,cs),
(306,507,o),
(323,494,o),
(330,470,c),
(398,519,l),
(382,564,o),
(340,593,o),
(276,593,cs),
(190,593,o),
(132,539,o),
(119,450,cs),
(105,368,l),
(134,399,l),
(32,399,l),
(21,322,l),
(98,322,l)
);
}
);
};
guides = (
{
angle = 262.0565;
pos = (74,150);
},
{
angle = 82.0604;
pos = (177,154);
}
);
layerId = "14AB8F11-4722-4116-93B5-2CBF67C8CE3C";
shapes = (
{
closed = 1;
nodes = (
(50,-22,ls),
(43,-71,o),
(19,-94,o),
(-27,-94,cs),
(-53,-94,l),
(-65,-171,l),
(-11,-171,ls),
(85,-171,o),
(138,-122,o),
(153,-15,cs),
(200,322,l),
(300,322,l),
(312,399,l),
(186,399,l),
(207,369,l),
(219,455,ls),
(224,489,o),
(245,509,o),
(279,509,cs),
(306,509,o),
(323,494,o),
(330,470,c),
(398,519,l),
(382,564,o),
(340,593,o),
(276,593,cs),
(190,593,o),
(128,541,o),
(116,452,cs),
(105,370,l),
(134,399,l),
(33,399,l),
(21,322,l),
(98,322,l)
);
}
);
width = 296;
}
);
unicode = 102;
userData = {
com.typemytype.robofont.layerData = {
b = {
anchors = (
);
components = (
);
contours = (
);
lib = {
};
name = f;
unicodes = (
);
width = 671;
};
};
org.robofab.postScriptHintData = {
};
};
},
{
color = 3;
glyphname = g;
kernLeft = o;
kernRight = g;
layers = (
{
anchors = (
{
name = top;
pos = (289,393);
}
);
background = {
anchors = (
{
name = top;
pos = (266,393);
}
);
shapes = (
{
closed = 1;
nodes = (
(274,10,o),
(340,52,o),
(377,119,c),
(375,125,l),
(370,95,ls),
(362,45,o),
(376,20,o),
(428,20,cs),
(462,20,l),
(466,42,l),
(433,42,ls),
(398,42,o),
(392,52,o),
(399,95,cs),
(451,423,l),
(422,423,l),
(412,363,l),
(417,365,l),
(390,395,o),
(334,423,o),
(264,423,cs),
(112,423,o),
(46,303,o),
(46,174,cs),
(46,74,o),
(104,10,o),
(200,10,cs)
);
},
{
closed = 1;
nodes = (
(121,33,o),
(75,85,o),
(75,176,cs),
(75,290,o),
(131,400,o),
(265,400,cs),
(332,400,o),
(384,376,o),
(412,344,c),
(411,356,l),
(378,145,l),
(383,161,l),
(342,78,o),
(272,33,o),
(204,33,cs)
);
}
);
};
layerId = "98C086B7-81AA-4491-8494-0C6A76849168";
shapes = (
{
closed = 1;
nodes = (
(316,-181,o),
(375,-128,o),
(393,-17,cs),
(458,393,l),
(429,393,l),
(421,343,l),
(426,345,l),
(399,375,o),
(343,403,o),
(269,403,cs),
(115,403,o),
(46,289,o),
(46,166,cs),
(46,74,o),
(104,10,o),
(204,10,cs),
(286,10,o),
(352,52,o),
(389,119,c),
(386,122,l),
(363,-23,ls),
(349,-114,o),
(298,-158,o),
(203,-158,cs),
(158,-158,o),
(111,-151,o),
(69,-125,c),
(59,-149,l),
(102,-173,o),
(159,-181,o),
(202,-181,cs)
);
},
{
closed = 1;
nodes = (
(121,33,o),
(75,85,o),
(75,168,cs),
(75,276,o),
(134,380,o),
(269,380,cs),
(341,380,o),
(393,356,o),
(421,324,c),
(420,336,l),
(389,140,l),
(395,161,l),
(354,78,o),
(284,33,o),
(207,33,cs)
);
}
);
width = 520;
},
{
anchors = (
{
name = top;
pos = (308,403);
}
);
background = {
anchors = (
{
name = top;
pos = (294,403);
}
);
shapes = (
{
closed = 1;
nodes = (
(241,-10,o),
(301,15,o),
(338,99,c),
(316,134,l),
(314,120,ls),
(304,53,o),
(343,0,o),
(438,0,cs),
(516,0,l),
(533,110,l),
(517,110,ls),
(499,110,o),
(489,119,o),
(493,145,cs),
(534,403,l),
(374,403,l),
(363,332,l),
(377,350,l),
(351,390,o),
(299,413,o),
(243,413,cs),
(97,413,o),
(31,299,o),
(31,166,cs),
(31,73,o),
(82,-10,o),
(190,-10,cs)
);
},
{
closed = 1;
nodes = (
(219,120,o),
(201,141,o),
(201,179,cs),
(201,244,o),
(234,283,o),
(287,283,cs),
(301,283,o),
(325,280,o),
(340,270,c),
(342,297,l),
(320,157,l),
(334,195,l),
(315,145,o),
(283,120,o),
(252,120,cs)
);
}
);
};
layerId = "EFCDB4D9-E20B-4A8D-9DB5-150AD166B0AE";
shapes = (
{
closed = 1;
nodes = (
(353,-181,o),
(453,-106,o),
(475,32,cs),
(534,403,l),
(374,403,l),
(362,330,l),
(377,350,l),
(351,390,o),
(299,413,o),
(237,413,cs),
(86,413,o),
(20,294,o),
(20,182,cs),
(20,93,o),
(75,10,o),
(186,10,cs),
(241,10,o),
(281,26,o),
(318,78,c),
(308,90,l),
(299,33,ls),
(290,-22,o),
(259,-51,o),
(199,-51,cs),
(158,-51,o),
(120,-40,o),
(91,-20,c),
(25,-132,l),
(57,-159,o),
(123,-181,o),
(208,-181,cs)
);
},
{
closed = 1;
nodes = (
(212,140,o),
(193,164,o),
(193,195,cs),
(193,249,o),
(229,283,o),
(282,283,cs),
(303,283,o),
(325,280,o),
(339,270,c),
(342,297,l),
(320,157,l),
(333,205,l),
(314,162,o),
(287,140,o),
(244,140,cs)
);
}
);
width = 548;
},
{
anchors = (
{
name = top;
pos = (299,399);
}
);
background = {
anchors = (
{
name = top;
pos = (299,399);
}
);
shapes = (
{
closed = 1;
nodes = (
(1135,-181,o),
(1213,-114,o),
(1234,14,cs),
(1296,399,l),
(1202,399,l),
(1192,335,l),
(1202,348,l),
(1175,384,o),
(1121,409,o),
(1053,409,cs),
(901,409,o),
(833,292,o),
(833,176,cs),
(833,86,o),
(890,10,o),
(995,10,cs),
(1064,10,o),
(1117,36,o),
(1154,93,c),
(1147,102,l),
(1131,12,ls),
(1119,-56,o),
(1079,-91,o),
(1001,-91,cs),
(958,-91,o),
(916,-82,o),
(880,-59,c),
(842,-138,l),
(880,-164,o),
(941,-181,o),
(1005,-181,cs)
);
},
{
closed = 1;
nodes = (
(967,100,o),
(934,134,o),
(934,185,cs),
(934,259,o),
(982,319,o),
(1076,319,cs),
(1122,319,o),
(1159,309,o),
(1180,290,c),
(1181,312,l),
(1155,151,l),
(1164,189,l),
(1134,131,o),
(1086,100,o),
(1026,100,cs)
);
},
{
closed = 1;
nodes = (
(258,10,o),
(325,45,o),
(352,119,c),
(340,143,l),
(337,123,ls),
(328,63,o),
(354,20,o),
(428,20,cs),
(483,20,l),
(495,97,l),
(470,97,ls),
(444,97,o),
(436,106,o),
(441,137,cs),
(486,419,l),
(392,419,l),
(382,356,l),
(392,367,l),
(360,408,o),
(312,429,o),
(257,429,cs),
(117,429,o),
(33,320,o),
(33,185,cs),
(33,78,o),
(99,10,o),
(194,10,cs)
);
},
{
closed = 1;
nodes = (
(165,100,o),
(132,135,o),
(132,192,cs),
(132,284,o),
(185,339,o),
(267,339,cs),
(308,339,o),
(347,329,o),
(371,310,c),
(370,332,l),
(343,164,l),
(353,199,l),
(323,132,o),
(272,100,o),
(221,100,cs)
);
}
);
};
layerId = "14AB8F11-4722-4116-93B5-2CBF67C8CE3C";
shapes = (
{
closed = 1;
nodes = (
(329,-181,o),
(415,-114,o),
(435,14,cs),
(496,399,l),
(402,399,l),
(392,336,l),
(402,347,l),
(370,388,o),
(323,409,o),
(257,409,cs),
(140,409,o),
(33,327,o),
(33,176,cs),
(33,80,o),
(102,10,o),
(200,10,cs),
(264,10,o),
(320,36,o),
(354,93,c),
(347,102,l),
(334,22,ls),
(321,-56,o),
(276,-91,o),
(205,-91,cs),
(161,-91,o),
(119,-81,o),
(84,-58,c),
(42,-138,l),
(80,-164,o),
(141,-181,o),
(205,-181,cs)
);
},
{
closed = 1;
nodes = (
(166,97,o),
(132,131,o),
(132,188,cs),
(132,262,o),
(179,322,o),
(281,322,cs),
(322,322,o),
(359,309,o),
(380,290,c),
(380,312,l),
(354,151,l),
(364,189,l),
(334,131,o),
(286,97,o),
(226,97,cs)
);
}
);
width = 533;
}
);
metricLeft = o;
unicode = 103;
userData = {
com.typemytype.robofont.layerData = {
b = {
anchors = (
);
components = (
);
contours = (
{
points = (
{
segmentType = curve;
smooth = 1;
x = 510;
y = "-333";
},
{
smooth = 0;
x = 722;
y = "-333";
},
{
smooth = 0;
x = 880;
y = "-225";
},
{
segmentType = curve;
smooth = 0;
x = 880;
y = 15;
},
{
segmentType = line;
smooth = 0;
x = 880;
y = 735;
},
{
segmentType = line;
smooth = 0;
x = 1005;
y = 735;
},
{
segmentType = line;
smooth = 0;
x = 1005;
y = 789;
},
{
segmentType = line;
smooth = 0;
x = 804;
y = 789;
},
{
segmentType = line;
smooth = 0;
x = 804;
y = 673;
},
{
smooth = 0;
x = 804;
y = 673;
},
{
smooth = 0;
x = 804;
y = "-2";
},
{
segmentType = curve;
smooth = 1;
x = 804;
y = "-2";
},
{
smooth = 0;
x = 804;
y = "-173";
},
{
smooth = 0;
x = 695;
y = "-271";
},
{
segmentType = curve;
smooth = 1;
x = 515;
y = "-271";
},
{
smooth = 0;
x = 444;
y = "-271";
},
{
smooth = 0;
x = 362;
y = "-255";
},
{
segmentType = curve;
smooth = 0;
x = 272;
y = "-224";
},
{
segmentType = line;
smooth = 0;
x = 257;
y = "-289";
},
{
smooth = 0;
x = 345;
y = "-318";
},
{
smooth = 0;
x = 431;
y = "-333";
}
);
}
);
lib = {
};
name = g;
unicodes = (
);
width = 1013;
};
};
org.robofab.postScriptHintData = {
};
};
},
{
color = 3;
glyphname = h;
kernLeft = h;
kernRight = n;
layers = (
{
anchors = (
{
name = bottom;
pos = (230,0);
},
{
name = top;
pos = (315,583);
}
);
background = {
shapes = (
{
closed = 1;
nodes = (
(169,0,l),
(172,22,l),
(97,22,l),
(147,335,l),
(128,312,l),
(203,366,o),
(256,380,o),
(307,380,cs),
(380,380,o),
(406,348,o),
(395,278,cs),
(354,22,l),
(274,22,l),
(271,0,l),
(455,0,l),
(458,22,l),
(383,22,l),
(423,273,ls),
(437,362,o),
(404,403,o),
(311,403,cs),
(258,403,o),
(192,380,o),
(135,336,c),
(148,341,l),
(186,583,l),
(72,583,l),
(69,561,l),
(154,561,l),
(68,22,l),
(-12,22,l),
(-15,0,l)
);
}
);
};
layerId = "98C086B7-81AA-4491-8494-0C6A76849168";
shapes = (
{
closed = 1;
nodes = (
(94,0,l),
(140,294,l),
(131,261,l),
(176,338,o),
(238,380,o),
(309,380,cs),
(372,380,o),
(400,352,o),
(388,278,cs),
(355,75,ls),
(347,25,o),
(361,0,o),
(413,0,cs),
(448,0,l),
(452,22,l),
(419,22,ls),
(379,22,o),
(378,38,o),
(384,75,cs),
(417,278,ls),
(431,363,o),
(389,403,o),
(309,403,cs),
(239,403,o),
(176,363,o),
(133,296,c),
(141,299,l),
(186,583,l),
(72,583,l),
(69,561,l),
(154,561,l),
(65,0,l)
);
}
);
width = 497;
},
{
anchors = (
{
name = bottom;
pos = (262,0);
},
{
name = top;
pos = (348,583);
}
);
background = {
shapes = (
{
closed = 1;
nodes = (
(240,0,l),
(257,110,l),
(217,110,l),
(245,283,l),
(230,246,l),
(250,269,o),
(283,283,o),
(310,283,cs),
(341,283,o),
(353,268,o),
(346,225,cs),
(328,110,l),
(283,110,l),
(266,0,l),
(526,0,l),
(543,110,l),
(503,110,l),
(529,270,ls),
(544,367,o),
(496,413,o),
(413,413,cs),
(348,413,o),
(285,390,o),
(224,335,c),
(253,336,l),
(292,583,l),
(67,583,l),
(50,473,l),
(100,473,l),
(42,110,l),
(-3,110,l),
(-20,0,l)
);
}
);
};
guides = (
{
pos = (342,413);
}
);
layerId = "EFCDB4D9-E20B-4A8D-9DB5-150AD166B0AE";
shapes = (
{
closed = 1;
nodes = (
(200,0,l),
(244,283,l),
(224,208,l),
(245,262,o),
(277,283,o),
(309,283,cs),
(333,283,o),
(344,268,o),
(339,239,cs),
(319,130,ls),
(303,45,o),
(347,0,o),
(442,0,cs),
(519,0,l),
(537,110,l),
(521,110,ls),
(503,110,o),
(492,119,o),
(497,145,cs),
(521,280,ls),
(536,367,o),
(485,413,o),
(406,413,cs),
(331,413,o),
(266,382,o),
(220,317,c),
(249,311,l),
(292,583,l),
(67,583,l),
(50,473,l),
(100,473,l),
(25,0,l)
);
}
);
width = 560;
},
{
anchors = (
{
name = bottom;
pos = (246,0);
},
{
name = top;
pos = (332,583);
}
);
background = {
anchors = (
{
name = bottom;
pos = (946,0);
},
{
name = top;
pos = (1032,583);
}
);
shapes = (
{
closed = 1;
nodes = (
(847,0,l),
(892,287,l),
(878,228,l),
(911,291,o),
(958,319,o),
(1009,319,cs),
(1053,319,o),
(1072,300,o),
(1064,254,cs),
(1037,109,ls),
(1025,38,o),
(1054,0,o),
(1128,0,cs),
(1184,0,l),
(1195,77,l),
(1170,77,ls),
(1141,77,o),
(1135,89,o),
(1141,119,cs),
(1169,279,ls),
(1184,366,o),
(1137,409,o),
(1058,409,cs),
(985,409,o),
(921,375,o),
(877,309,c),
(895,307,l),
(939,583,l),
(770,583,l),
(760,506,l),
(827,506,l),
(745,0,l)
);
},
{
closed = 1;
nodes = (
(147,0,l),
(193,287,l),
(178,228,l),
(211,291,o),
(258,322,o),
(310,322,cs),
(353,322,o),
(372,302,o),
(364,256,cs),
(339,109,ls),
(327,38,o),
(355,0,o),
(428,0,cs),
(484,0,l),
(495,77,l),
(473,77,ls),
(444,77,o),
(438,89,o),
(443,119,cs),
(470,279,ls),
(485,366,o),
(438,409,o),
(358,409,cs),
(286,409,o),
(222,375,o),
(177,309,c),
(184,279,l),
(203,399,l),
(41,399,l),
(29,322,l),
(96,322,l),
(45,0,l)
);
}
);
};
layerId = "14AB8F11-4722-4116-93B5-2CBF67C8CE3C";
shapes = (
{
closed = 1;
nodes = (
(147,0,l),
(192,287,l),
(178,228,l),
(211,291,o),
(258,322,o),
(310,322,cs),
(353,322,o),
(372,302,o),
(364,256,cs),
(339,109,ls),
(327,38,o),
(354,0,o),
(428,0,cs),
(483,0,l),
(495,77,l),
(473,77,ls),
(444,77,o),
(438,89,o),
(443,119,cs),
(470,279,ls),
(485,366,o),
(435,409,o),
(353,409,cs),
(284,409,o),
(222,375,o),
(177,309,c),
(195,307,l),
(239,583,l),
(70,583,l),
(58,506,l),
(125,506,l),
(45,0,l)
);
}
);
width = 530;
}
);
metricRight = n;
unicode = 104;
userData = {
com.typemytype.robofont.layerData = {
b = {
anchors = (
);
components = (
);
contours = (
);
lib = {
};
name = h;
unicodes = (
);
width = 965;
};
};
org.robofab.postScriptHintData = {
};
};
},
{
color = 3;
glyphname = i;
kernLeft = n;
kernRight = i;
layers = (
{
anchors = (
{
name = bottom;
pos = (81,0);
}
);
background = {
anchors = (
{
name = bottom;
pos = (81,0);
},
{
name = ogonek;
pos = (139,0);
},
{
name = top;
pos = (166,537);
},
{
name = top_viet;
pos = (156,477);
}
);
shapes = (
{
closed = 1;
nodes = (
(170,0,l),
(174,22,l),
(141,22,ls),
(101,22,o),
(100,39,o),
(106,76,cs),
(156,393,l),
(42,393,l),
(39,371,l),
(124,371,l),
(77,75,ls),
(69,25,o),
(83,0,o),
(135,0,cs)
);
},
{
closed = 1;
nodes = (
(180,485,o),
(191,502,o),
(191,513,cs),
(191,527,o),
(183,540,o),
(163,540,cs),
(141,540,o),
(131,525,o),
(131,511,cs),
(131,498,o),
(139,485,o),
(159,485,cs)
);
}
);
};
layerId = "98C086B7-81AA-4491-8494-0C6A76849168";
shapes = (
{
closed = 1;
nodes = (
(170,0,l),
(174,22,l),
(141,22,ls),
(101,22,o),
(100,39,o),
(106,76,cs),
(156,393,l),
(42,393,l),
(39,371,l),
(124,371,l),
(77,75,ls),
(69,25,o),
(83,0,o),
(135,0,cs)
);
},
{
closed = 1;
nodes = (
(180,485,o),
(191,502,o),
(191,513,cs),
(191,527,o),
(183,540,o),
(163,540,cs),
(141,540,o),
(131,525,o),
(131,511,cs),
(131,498,o),
(139,485,o),
(159,485,cs)
);
}
);
width = 221;
},
{
anchors = (
{
name = bottom;
pos = (112,0);
}
);
background = {
anchors = (
{
name = bottom;
pos = (112,0);
},
{
name = ogonek;
pos = (181,0);
},
{
name = top;
pos = (212,629);
},
{
name = top_viet;
pos = (210,612);
}
);
shapes = (
{
closed = 1;
nodes = (
(245,0,l),
(263,110,l),
(247,110,ls),
(229,110,o),
(219,119,o),
(223,145,cs),
(263,403,l),
(38,403,l),
(21,293,l),
(71,293,l),
(45,130,ls),
(31,45,o),
(73,0,o),
(168,0,cs)
);
},
{
closed = 1;
nodes = (
(245,0,l),
(263,110,l),
(247,110,ls),
(229,110,o),
(219,119,o),
(223,145,cs),
(263,403,l),
(38,403,l),
(21,293,l),
(71,293,l),
(45,130,ls),
(31,45,o),
(73,0,o),
(168,0,cs)
);
},
{
closed = 1;
nodes = (
(252,440,o),
(295,481,o),
(295,542,cs),
(295,597,o),
(261,629,o),
(203,629,cs),
(141,629,o),
(98,587,o),
(98,528,cs),
(98,473,o),
(133,440,o),
(191,440,cs)
);
}
);
};
layerId = "EFCDB4D9-E20B-4A8D-9DB5-150AD166B0AE";
shapes = (
{
closed = 1;
nodes = (
(245,0,l),
(263,110,l),
(247,110,ls),
(229,110,o),
(219,119,o),
(223,145,cs),
(263,403,l),
(38,403,l),
(21,293,l),
(71,293,l),
(45,130,ls),
(31,45,o),
(73,0,o),
(168,0,cs)
);
},
{
closed = 1;
nodes = (
(252,440,o),
(295,481,o),
(295,542,cs),
(295,597,o),
(261,629,o),
(203,629,cs),
(141,629,o),
(98,587,o),
(98,528,cs),
(98,473,o),
(133,440,o),
(191,440,cs)
);
}
);
width = 288;
},
{
anchors = (
{
name = bottom;
pos = (98,0);
}
);
background = {
anchors = (
{
name = bottom;
pos = (98,0);
}
);
shapes = (
{
closed = 1;
nodes = (
(209,0,l),
(220,77,l),
(195,77,ls),
(166,77,o),
(161,89,o),
(166,119,cs),
(211,399,l),
(41,399,l),
(31,322,l),
(99,322,l),
(62,109,ls),
(51,38,o),
(79,0,o),
(153,0,cs)
);
},
{
closed = 1;
nodes = (
(217,457,o),
(244,489,o),
(244,531,cs),
(244,571,o),
(223,596,o),
(184,596,cs),
(142,596,o),
(116,564,o),
(116,522,cs),
(116,482,o),
(137,457,o),
(176,457,cs)
);
}
);
};
layerId = "14AB8F11-4722-4116-93B5-2CBF67C8CE3C";
shapes = (
{
closed = 1;
nodes = (
(209,0,l),
(220,77,l),
(195,77,ls),
(166,77,o),
(161,89,o),
(166,119,cs),
(210,399,l),
(41,399,l),
(29,322,l),
(96,322,l),
(62,109,ls),
(51,38,o),
(79,0,o),
(153,0,cs)
);
},
{
closed = 1;
nodes = (
(217,462,o),
(244,491,o),
(244,531,cs),
(244,568,o),
(223,592,o),
(184,592,cs),
(142,592,o),
(116,562,o),
(116,522,cs),
(116,485,o),
(137,462,o),
(176,462,cs)
);
}
);
width = 256;
}
);
metricLeft = n;
metricRight = idotless;
unicode = 105;
userData = {
com.typemytype.robofont.layerData = {
b = {
anchors = (
);
components = (
);
contours = (
);
lib = {
};
name = i;
unicodes = (
);
width = 531;
};
};
org.robofab.postScriptHintData = {
};
};
},
